<svg width="30" height="30" viewBox="0 0 30 30" fill="none" xmlns="http://www.w3.org/2000/svg">
<path d="M3.10547 0.243164H26.8945C28.4754 0.243388 29.7566 1.52458 29.7568 3.10547V26.8945C29.7566 28.4754 28.4754 29.7566 26.8945 29.7568H3.10547C1.52458 29.7566 0.243388 28.4754 0.243164 26.8945V3.10547C0.243373 1.62316 1.36976 0.404276 2.81348 0.257812L3.10547 0.243164Z" fill="white"/>
<path d="M3.10547 0.243164H26.8945C28.4754 0.243388 29.7566 1.52458 29.7568 3.10547V26.8945C29.7566 28.4754 28.4754 29.7566 26.8945 29.7568H3.10547C1.52458 29.7566 0.243388 28.4754 0.243164 26.8945V3.10547C0.243373 1.62316 1.36976 0.404276 2.81348 0.257812L3.10547 0.243164Z" stroke="#D9D9D9" stroke-width="0.485678"/>
<path d="M6 16.125C6 15.504 6.504 15 7.125 15H9.375C9.996 15 10.5 15.504 10.5 16.125V22.875C10.5 23.496 9.996 24 9.375 24H7.125C6.82663 24 6.54048 23.8815 6.3295 23.6705C6.11853 23.4595 6 23.1734 6 22.875V16.125ZM12.75 11.625C12.75 11.004 13.254 10.5 13.875 10.5H16.125C16.746 10.5 17.25 11.004 17.25 11.625V22.875C17.25 23.496 16.746 24 16.125 24H13.875C13.5766 24 13.2905 23.8815 13.0795 23.6705C12.8685 23.4595 12.75 23.1734 12.75 22.875V11.625ZM19.5 7.125C19.5 6.504 20.004 6 20.625 6H22.875C23.496 6 24 6.504 24 7.125V22.875C24 23.496 23.496 24 22.875 24H20.625C20.3266 24 20.0405 23.8815 19.8295 23.6705C19.6185 23.4595 19.5 23.1734 19.5 22.875V7.125Z" stroke="black" stroke-linecap="round" stroke-linejoin="round"/>
</svg>
