<svg width="45" height="44" viewBox="0 0 45 44" fill="none" xmlns="http://www.w3.org/2000/svg">
<rect x="0.678006" y="0.344022" width="43.312" height="43.312" rx="4.05598" fill="white"/>
<rect x="0.678006" y="0.344022" width="43.312" height="43.312" rx="4.05598" stroke="#D9D9D9" stroke-width="0.688044"/>
<path d="M29.834 24.25V21.625C29.834 20.7299 29.4784 19.8715 28.8455 19.2385C28.2125 18.6056 27.3541 18.25 26.459 18.25H24.959C24.6606 18.25 24.3745 18.1315 24.1635 17.9205C23.9525 17.7095 23.834 17.4234 23.834 17.125V15.625C23.834 14.7299 23.4784 13.8714 22.8455 13.2385C22.2125 12.6056 21.3541 12.25 20.459 12.25H18.584M18.584 25H26.084M18.584 28H22.334M20.834 12.25H15.959C15.338 12.25 14.834 12.754 14.834 13.375V30.625C14.834 31.246 15.338 31.75 15.959 31.75H28.709C29.33 31.75 29.834 31.246 29.834 30.625V21.25C29.834 18.8631 28.8858 16.5739 27.1979 14.886C25.5101 13.1982 23.2209 12.25 20.834 12.25Z" stroke="black" stroke-linecap="round" stroke-linejoin="round"/>
</svg>
