<svg width="23" height="28" viewBox="0 0 23 28" fill="none" xmlns="http://www.w3.org/2000/svg">
<path d="M19.0321 14.5276C19.0003 10.9902 21.9293 9.26923 22.0632 9.18911C20.4044 6.77123 17.8333 6.44087 16.9298 6.41453C14.7703 6.18733 12.6757 7.70633 11.5756 7.70633C10.4537 7.70633 8.75971 6.43648 6.93401 6.47379C4.58465 6.51001 2.38679 7.86987 1.18137 9.98154C-1.30632 14.2872 0.549021 20.6145 2.93242 24.0948C4.12466 25.8004 5.51781 27.7024 7.34131 27.6355C9.12529 27.5631 9.79167 26.4995 11.9445 26.4995C14.0776 26.4995 14.7034 27.6355 16.5631 27.5927C18.4777 27.5631 19.6831 25.8805 20.8337 24.1607C22.2114 22.2081 22.7648 20.2831 22.7867 20.1843C22.7428 20.1689 19.0695 18.7663 19.0321 14.5276ZM15.5191 4.12505C16.4786 2.92544 17.1351 1.2934 16.9528 -0.362793C15.5641 -0.301331 13.8273 0.597556 12.8272 1.77083C11.9423 2.80471 11.1519 4.49932 11.3561 6.09295C12.9161 6.20929 14.5178 5.30601 15.5191 4.12505Z" fill="white"/>
</svg>
