<svg width="13" height="12" viewBox="0 0 13 12" fill="none" xmlns="http://www.w3.org/2000/svg">
<g clip-path="url(#clip0_12262_8343)">
<path d="M13 5.81579C13 5.66652 12.9413 5.52337 12.8368 5.41782L7.63682 0.164846C7.41924 -0.0549487 7.06647 -0.0549487 6.8489 0.164846C6.63132 0.384639 6.63132 0.740997 6.8489 0.960791L11.0978 5.25297H0.5571C0.2494 5.25297 0 5.50495 0 5.81579C0 6.12663 0.2494 6.37861 0.5571 6.37861H11.0978L6.8489 10.6708C6.63132 10.8906 6.63132 11.2469 6.8489 11.4667C7.06647 11.6865 7.41924 11.6865 7.63682 11.4667L12.8368 6.21376C12.9413 6.10821 13 5.96506 13 5.81579Z" fill="black"/>
<path d="M13 5.81579C13 5.66652 12.9413 5.52337 12.8368 5.41782L7.63682 0.164846C7.41924 -0.0549487 7.06647 -0.0549487 6.8489 0.164846C6.63132 0.384639 6.63132 0.740997 6.8489 0.960791L11.0978 5.25297H0.5571C0.2494 5.25297 0 5.50495 0 5.81579C0 6.12663 0.2494 6.37861 0.5571 6.37861H11.0978L6.8489 10.6708C6.63132 10.8906 6.63132 11.2469 6.8489 11.4667C7.06647 11.6865 7.41924 11.6865 7.63682 11.4667L12.8368 6.21376C12.9413 6.10821 13 5.96506 13 5.81579Z" fill="black"/>
</g>
<defs>
<clipPath id="clip0_12262_8343">
<rect width="13" height="12" fill="white" transform="matrix(-1 0 0 1 13 0)"/>
</clipPath>
</defs>
</svg>
