<svg width="30" height="30" viewBox="0 0 30 30" fill="none" xmlns="http://www.w3.org/2000/svg">
<path d="M3.10547 0.243164H26.8945C28.4754 0.243388 29.7566 1.52458 29.7568 3.10547V26.8945C29.7566 28.4754 28.4754 29.7566 26.8945 29.7568H3.10547C1.52458 29.7566 0.243388 28.4754 0.243164 26.8945V3.10547C0.243373 1.62316 1.36976 0.404276 2.81348 0.257812L3.10547 0.243164Z" fill="white"/>
<path d="M3.10547 0.243164H26.8945C28.4754 0.243388 29.7566 1.52458 29.7568 3.10547V26.8945C29.7566 28.4754 28.4754 29.7566 26.8945 29.7568H3.10547C1.52458 29.7566 0.243388 28.4754 0.243164 26.8945V3.10547C0.243373 1.62316 1.36976 0.404276 2.81348 0.257812L3.10547 0.243164Z" stroke="#D9D9D9" stroke-width="0.485678"/>
<path d="M11.3206 22.0412L7.74707 18.4677M7.74707 18.4677L11.3206 14.8941M7.74707 18.4677H18.4677M18.4677 7.74707L22.0412 11.3206M22.0412 11.3206L18.4677 14.8941M22.0412 11.3206H11.3206" stroke="black" stroke-linecap="round" stroke-linejoin="round"/>
</svg>
