<svg width="30" height="30" viewBox="0 0 30 30" fill="none" xmlns="http://www.w3.org/2000/svg">
<path d="M3.17578 0.248047H26.8242C28.4409 0.248288 29.7517 1.55911 29.752 3.17578V26.8242C29.7517 28.4409 28.4409 29.7517 26.8242 29.752H3.17578C1.55911 29.7517 0.248287 28.4409 0.248047 26.8242V3.17578L0.251953 3.02539C0.327915 1.52841 1.52841 0.327915 3.02539 0.251953L3.17578 0.248047Z" fill="white"/>
<path d="M3.17578 0.248047H26.8242C28.4409 0.248288 29.7517 1.55911 29.752 3.17578V26.8242C29.7517 28.4409 28.4409 29.7517 26.8242 29.752H3.17578C1.55911 29.7517 0.248287 28.4409 0.248047 26.8242V3.17578L0.251953 3.02539C0.327915 1.52841 1.52841 0.327915 3.02539 0.251953L3.17578 0.248047Z" stroke="#D9D9D9" stroke-width="0.496678"/>
<path d="M12.5343 15.5843L14.2346 17.2846L17.0685 13.3172M14.8014 8C13.0903 9.62495 10.8114 10.5162 8.45192 10.4833C8.15178 11.3977 7.99923 12.354 8 13.3164C8 17.5423 10.8898 21.0927 14.8014 22.1C18.7129 21.0934 21.6028 17.5431 21.6028 13.3172C21.6028 12.3272 21.4441 11.3742 21.1508 10.4825H21.036C18.6207 10.4825 16.4262 9.53938 14.8014 8Z" stroke="black" stroke-linecap="round" stroke-linejoin="round"/>
</svg>
