<svg width="30" height="30" viewBox="0 0 30 30" fill="none" xmlns="http://www.w3.org/2000/svg">
<path d="M3.10547 0.243164H26.8945C28.4754 0.243388 29.7566 1.52458 29.7568 3.10547V26.8945C29.7566 28.4754 28.4754 29.7566 26.8945 29.7568H3.10547C1.52458 29.7566 0.243388 28.4754 0.243164 26.8945V3.10547C0.243373 1.62316 1.36976 0.404276 2.81348 0.257812L3.10547 0.243164Z" fill="white"/>
<path d="M3.10547 0.243164H26.8945C28.4754 0.243388 29.7566 1.52458 29.7568 3.10547V26.8945C29.7566 28.4754 28.4754 29.7566 26.8945 29.7568H3.10547C1.52458 29.7566 0.243388 28.4754 0.243164 26.8945V3.10547C0.243373 1.62316 1.36976 0.404276 2.81348 0.257812L3.10547 0.243164Z" stroke="#D9D9D9" stroke-width="0.485678"/>
<path d="M7.7998 15.9C7.7998 15.4032 8.203 15 8.6998 15H10.4998C10.9966 15 11.3998 15.4032 11.3998 15.9V21.3C11.3998 21.7968 10.9966 22.2 10.4998 22.2H8.6998C8.46111 22.2 8.23219 22.1052 8.06341 21.9364C7.89463 21.7677 7.7998 21.5387 7.7998 21.3V15.9ZM13.1998 12.3C13.1998 11.8032 13.603 11.4 14.0998 11.4H15.8998C16.3966 11.4 16.7998 11.8032 16.7998 12.3V21.3C16.7998 21.7968 16.3966 22.2 15.8998 22.2H14.0998C13.8611 22.2 13.6322 22.1052 13.4634 21.9364C13.2946 21.7677 13.1998 21.5387 13.1998 21.3V12.3ZM18.5998 8.70005C18.5998 8.20325 19.003 7.80005 19.4998 7.80005H21.2998C21.7966 7.80005 22.1998 8.20325 22.1998 8.70005V21.3C22.1998 21.7968 21.7966 22.2 21.2998 22.2H19.4998C19.2611 22.2 19.0322 22.1052 18.8634 21.9364C18.6946 21.7677 18.5998 21.5387 18.5998 21.3V8.70005Z" stroke="black" stroke-linecap="round" stroke-linejoin="round"/>
</svg>
