<svg width="30" height="30" viewBox="0 0 30 30" fill="none" xmlns="http://www.w3.org/2000/svg">
<path d="M3.17578 0.248047H26.8242C28.4409 0.248288 29.7517 1.55911 29.752 3.17578V26.8242C29.7517 28.4409 28.4409 29.7517 26.8242 29.752H3.17578C1.55911 29.7517 0.248287 28.4409 0.248047 26.8242V3.17578L0.251953 3.02539C0.327915 1.52841 1.52841 0.327915 3.02539 0.251953L3.17578 0.248047Z" fill="white"/>
<path d="M3.17578 0.248047H26.8242C28.4409 0.248288 29.7517 1.55911 29.752 3.17578V26.8242C29.7517 28.4409 28.4409 29.7517 26.8242 29.752H3.17578C1.55911 29.7517 0.248287 28.4409 0.248047 26.8242V3.17578L0.251953 3.02539C0.327915 1.52841 1.52841 0.327915 3.02539 0.251953L3.17578 0.248047Z" stroke="#D9D9D9" stroke-width="0.496678"/>
<path d="M14.7029 13.2793V16.3247M7.14786 19.0664C6.44458 20.2845 7.32409 21.8064 8.72984 21.8064H20.6759C22.0808 21.8064 22.9603 20.2845 22.2579 19.0664L16.2857 8.71367C15.5824 7.49551 13.8234 7.49551 13.1201 8.71367L7.14786 19.0664ZM14.7029 18.761H14.7085V18.7675H14.7029V18.761Z" stroke="black" stroke-linecap="round" stroke-linejoin="round"/>
</svg>
