<svg width="30" height="30" viewBox="0 0 30 30" fill="none" xmlns="http://www.w3.org/2000/svg">
<path d="M3.10547 0.243164H26.8945C28.4754 0.243388 29.7566 1.52458 29.7568 3.10547V26.8945C29.7566 28.4754 28.4754 29.7566 26.8945 29.7568H3.10547C1.52458 29.7566 0.243388 28.4754 0.243164 26.8945V3.10547C0.243373 1.62316 1.36976 0.404276 2.81348 0.257812L3.10547 0.243164Z" fill="white"/>
<path d="M3.10547 0.243164H26.8945C28.4754 0.243388 29.7566 1.52458 29.7568 3.10547V26.8945C29.7566 28.4754 28.4754 29.7566 26.8945 29.7568H3.10547C1.52458 29.7566 0.243388 28.4754 0.243164 26.8945V3.10547C0.243373 1.62316 1.36976 0.404276 2.81348 0.257812L3.10547 0.243164Z" stroke="#D9D9D9" stroke-width="0.485678"/>
<path d="M13.5857 7.80005H12.0429C11.6337 7.80005 11.2412 7.9626 10.9519 8.25194C10.6626 8.54128 10.5 8.93371 10.5 9.34291V20.6572C10.5 21.0664 10.6626 21.4588 10.9519 21.7482C11.2412 22.0375 11.6337 22.2 12.0429 22.2H17.1857C17.5949 22.2 17.9873 22.0375 18.2767 21.7482C18.566 21.4588 18.7286 21.0664 18.7286 20.6572V9.34291C18.7286 8.93371 18.566 8.54128 18.2767 8.25194C17.9873 7.9626 17.5949 7.80005 17.1857 7.80005H15.6429M13.5857 7.80005V8.82862H15.6429V7.80005M13.5857 7.80005H15.6429M13.5857 20.6572H15.6429" stroke="black" stroke-linecap="round" stroke-linejoin="round"/>
</svg>
