<svg width="30" height="30" viewBox="0 0 30 30" fill="none" xmlns="http://www.w3.org/2000/svg">
<path d="M2.58203 0.202148H27.418C28.7324 0.202148 29.7979 1.26755 29.7979 2.58203V27.418C29.7979 28.7324 28.7324 29.7979 27.418 29.7979H2.58203C1.26755 29.7979 0.202148 28.7324 0.202148 27.418V2.58203L0.213867 2.33887C0.327509 1.21847 1.21847 0.327509 2.33887 0.213867L2.58203 0.202148Z" fill="white"/>
<path d="M2.58203 0.202148H27.418C28.7324 0.202148 29.7979 1.26755 29.7979 2.58203V27.418C29.7979 28.7324 28.7324 29.7979 27.418 29.7979H2.58203C1.26755 29.7979 0.202148 28.7324 0.202148 27.418V2.58203L0.213867 2.33887C0.327509 1.21847 1.21847 0.327509 2.33887 0.213867L2.58203 0.202148Z" stroke="#D9D9D9" stroke-width="0.403748"/>
<path d="M17.1316 20.786C17.824 20.9871 18.5414 21.0887 19.2624 21.088C20.4219 21.0897 21.5663 20.8253 22.6075 20.3152C22.6383 19.5877 22.4311 18.8699 22.0172 18.2707C21.6034 17.6716 21.0055 17.2236 20.3142 16.9948C19.6228 16.7661 18.8758 16.7689 18.1862 17.0029C17.4966 17.2369 16.9021 17.6893 16.4928 18.2916M17.1316 20.786V20.7836C17.1316 19.8801 16.8995 19.0303 16.4928 18.2916M17.1316 20.786V20.8721C15.5694 21.8129 13.7797 22.3087 11.956 22.3056C10.0639 22.3056 8.2935 21.782 6.78206 20.8721L6.78125 20.7836C6.78063 19.6346 7.16245 18.518 7.86652 17.6099C8.57059 16.7019 9.55685 16.054 10.6698 15.7684C11.7828 15.4828 12.9592 15.5758 14.0135 16.0326C15.0678 16.4895 15.9401 17.2842 16.4928 18.2916M14.6964 10.434C14.6964 11.1606 14.4078 11.8574 13.894 12.3712C13.3802 12.885 12.6834 13.1736 11.9568 13.1736C11.2303 13.1736 10.5334 12.885 10.0197 12.3712C9.50588 11.8574 9.21725 11.1606 9.21725 10.434C9.21725 9.70746 9.50588 9.01064 10.0197 8.49686C10.5334 7.98309 11.2303 7.69446 11.9568 7.69446C12.6834 7.69446 13.3802 7.98309 13.894 8.49686C14.4078 9.01064 14.6964 9.70746 14.6964 10.434ZM21.3932 12.2604C21.3932 12.8256 21.1687 13.3675 20.7691 13.7671C20.3695 14.1667 19.8275 14.3912 19.2624 14.3912C18.6973 14.3912 18.1553 14.1667 17.7557 13.7671C17.3561 13.3675 17.1316 12.8256 17.1316 12.2604C17.1316 11.6953 17.3561 11.1533 17.7557 10.7537C18.1553 10.3541 18.6973 10.1296 19.2624 10.1296C19.8275 10.1296 20.3695 10.3541 20.7691 10.7537C21.1687 11.1533 21.3932 11.6953 21.3932 12.2604Z" stroke="black" stroke-linecap="round" stroke-linejoin="round"/>
</svg>
