<svg width="44" height="44" viewBox="0 0 44 44" fill="none" xmlns="http://www.w3.org/2000/svg">
<rect x="0.344022" y="0.344022" width="43.312" height="43.312" rx="4.05598" fill="white"/>
<rect x="0.344022" y="0.344022" width="43.312" height="43.312" rx="4.05598" stroke="#D9D9D9" stroke-width="0.688044"/>
<path d="M30.25 18.511C31.134 18.795 31.75 19.639 31.75 20.608V24.894C31.75 26.03 30.903 26.994 29.77 27.087C29.43 27.114 29.09 27.139 28.75 27.159V30.25L25.75 27.25C24.396 27.25 23.056 27.195 21.73 27.087C21.4413 27.0637 21.1605 26.9813 20.905 26.845M30.25 18.511C30.0955 18.4613 29.9358 18.4294 29.774 18.416C27.0959 18.1937 24.4041 18.1937 21.726 18.416C20.595 18.51 19.75 19.473 19.75 20.608V24.894C19.75 25.731 20.21 26.474 20.905 26.845M30.25 18.511V16.637C30.25 15.016 29.098 13.611 27.49 13.402C25.4208 13.1338 23.3365 12.9995 21.25 13C19.135 13 17.052 13.137 15.01 13.402C13.402 13.611 12.25 15.016 12.25 16.637V22.863C12.25 24.484 13.402 25.889 15.01 26.098C15.587 26.173 16.167 26.238 16.75 26.292V31L20.905 26.845" stroke="#14171A" stroke-linecap="round" stroke-linejoin="round"/>
</svg>
