<svg width="15" height="15" viewBox="0 0 15 15" fill="none" xmlns="http://www.w3.org/2000/svg">
<path d="M14.4 7.29814C14.4 8.24366 14.2138 9.17992 13.8519 10.0535C13.4901 10.927 12.9597 11.7207 12.2912 12.3893C11.6226 13.0579 10.8289 13.5882 9.95532 13.9501C9.08178 14.3119 8.14552 14.4981 7.2 14.4981C6.25448 14.4981 5.31822 14.3119 4.44468 13.9501C3.57113 13.5882 2.77741 13.0579 2.10883 12.3893C1.44025 11.7207 0.909901 10.927 0.548067 10.0535C0.186233 9.17992 -1.40893e-08 8.24366 0 7.29814C2.84546e-08 5.38859 0.758569 3.55724 2.10883 2.20698C3.45909 0.856714 5.29044 0.0981445 7.2 0.0981445C9.10956 0.0981445 10.9409 0.856714 12.2912 2.20698C13.6414 3.55724 14.4 5.38859 14.4 7.29814Z" fill="#14171A"/>
<path d="M5.2002 7.89854L7.0002 9.69853L10.0002 5.49854" stroke="white" stroke-width="0.8" stroke-linecap="round" stroke-linejoin="round"/>
</svg>
