<svg width="12" height="12" viewBox="0 0 12 12" fill="none" xmlns="http://www.w3.org/2000/svg">
<path fill-rule="evenodd" clip-rule="evenodd" d="M10.0794 0.696777H1.82286C1.06395 0.696777 0.446777 1.31395 0.446777 2.07286V10.3294C0.446777 11.0883 1.06395 11.7055 1.82286 11.7055H5.95113V7.92123H4.57504V6.20113H5.95113V4.82504C5.95113 4.2776 6.1686 3.75258 6.55569 3.36548C6.94279 2.97838 7.46781 2.76091 8.01526 2.76091H9.39134V4.48102H8.7033C8.3235 4.48102 8.01526 4.44524 8.01526 4.82504V6.20113H9.73536L9.04732 7.92123H8.01526V11.7055H10.0794C10.8383 11.7055 11.4555 11.0883 11.4555 10.3294V2.07286C11.4555 1.31395 10.8383 0.696777 10.0794 0.696777Z" fill="white"/>
</svg>
