<svg width="12" height="12" viewBox="0 0 12 12" fill="none" xmlns="http://www.w3.org/2000/svg">
<path fill-rule="evenodd" clip-rule="evenodd" d="M10.3202 0.240005H1.68023C0.886074 0.240005 0.240234 0.885845 0.240234 1.68001V10.32C0.240234 11.1142 0.886074 11.76 1.68023 11.76H6.00023V7.80001H4.56023V6.00001H6.00023V4.56001C6.00023 3.98714 6.22781 3.43773 6.63288 3.03266C7.03796 2.62758 7.58737 2.40001 8.16023 2.40001H9.60023V4.20001H8.88023C8.48279 4.20001 8.16023 4.16257 8.16023 4.56001V6.00001H9.96023L9.24023 7.80001H8.16023V11.76H10.3202C11.1144 11.76 11.7602 11.1142 11.7602 10.32V1.68001C11.7602 0.885845 11.1144 0.240005 10.3202 0.240005Z" fill="#14171A"/>
</svg>
