<svg width="28" height="28" viewBox="0 0 28 28" fill="none" xmlns="http://www.w3.org/2000/svg">
<g clip-path="url(#clip0_12096_51)">
<path d="M25.3764 12.004L4.90493 0.302134C4.55811 0.104002 4.16556 -0.000143702 3.76613 1.48818e-07C3.75813 1.48818e-07 3.75026 0.00106682 3.7424 0.00106682C3.62448 0.0025654 3.50684 0.013085 3.39053 0.0325335C3.37573 0.0350668 3.3608 0.0358668 3.346 0.0386668L3.3468 0.0397335C3.08793 0.0872288 2.83918 0.178971 2.61146 0.310934C2.26332 0.512915 1.97434 0.802802 1.77346 1.15158C1.57257 1.50035 1.46682 1.89578 1.4668 2.29827V25.7019C1.46682 26.1044 1.57257 26.4998 1.77346 26.8486C1.97434 27.1973 2.26332 27.4872 2.61146 27.6892C2.83912 27.8212 3.08782 27.913 3.34666 27.9605L3.346 27.9615C3.35933 27.964 3.3728 27.9648 3.386 27.9669C3.42986 27.9744 3.47386 27.9805 3.518 27.9852C3.54013 27.9876 3.56213 27.99 3.58426 27.9917C3.63613 27.9959 3.68786 27.9983 3.73986 27.9989C3.74866 27.9991 3.75733 28.0001 3.76613 28.0001C4.15906 28.0001 4.552 27.8996 4.90493 27.698L25.3764 15.996C25.728 15.795 26.0203 15.5046 26.2236 15.1543C26.4268 14.8039 26.5339 14.4061 26.5339 14.0011V13.9989C26.5338 13.5939 26.4268 13.1961 26.2235 12.8458C26.0203 12.4954 25.728 12.205 25.3764 12.004ZM17.2807 9.68013L15.2452 12.3504L10.0665 5.55627L17.2807 9.68013ZM24.3839 14.2596L10.0665 22.4437L19.0311 10.6829L24.3837 13.7425C24.4293 13.7686 24.4671 13.8062 24.4935 13.8516C24.5199 13.8969 24.5339 13.9485 24.534 14.0009C24.5339 14.0534 24.5199 14.105 24.4936 14.1504C24.4672 14.1958 24.4294 14.2335 24.3839 14.2596Z" fill="white"/>
</g>
<defs>
<clipPath id="clip0_12096_51">
<rect width="28" height="28" fill="white"/>
</clipPath>
</defs>
</svg>
