<svg width="30" height="30" viewBox="0 0 30 30" fill="none" xmlns="http://www.w3.org/2000/svg">
<g clip-path="url(#clip0_14136_52413)">
<path d="M3.17578 0.248047H26.8242C28.4409 0.248288 29.7517 1.55911 29.752 3.17578V26.8242C29.7517 28.4409 28.4409 29.7517 26.8242 29.752H3.17578C1.55911 29.7517 0.248287 28.4409 0.248047 26.8242V3.17578L0.251953 3.02539C0.327915 1.52841 1.52841 0.327915 3.02539 0.251953L3.17578 0.248047Z" fill="white"/>
<path d="M3.17578 0.248047H26.8242C28.4409 0.248288 29.7517 1.55911 29.752 3.17578V26.8242C29.7517 28.4409 28.4409 29.7517 26.8242 29.752H3.17578C1.55911 29.7517 0.248287 28.4409 0.248047 26.8242V3.17578L0.251953 3.02539C0.327915 1.52841 1.52841 0.327915 3.02539 0.251953L3.17578 0.248047Z" stroke="#D9D9D9" stroke-width="0.496678"/>
<path d="M19.792 11.1138C19.8732 11.2367 20.0366 11.2698 20.1748 11.2026L20.1738 11.2017C20.1925 11.1931 20.218 11.1817 20.2402 11.1616C20.2663 11.1379 20.2833 11.1089 20.293 11.0767C20.3017 11.0473 20.3048 11.0135 20.3066 10.979C20.3085 10.9438 20.3096 10.9 20.3096 10.8472C20.3095 10.6285 20.2723 10.3869 20.2051 10.2065C20.1925 10.1719 20.1641 10.0873 20.1455 10.019L20.1445 10.0161C20.0979 9.86427 20.0008 9.64138 19.9014 9.44092C19.8035 9.24367 19.6957 9.05131 19.624 8.96826L19.6221 8.96631C19.6097 8.95273 19.5984 8.9381 19.5908 8.92627C19.587 8.92023 19.5846 8.91578 19.584 8.91455C19.584 8.91455 19.5852 8.91603 19.5859 8.91846C19.5864 8.91999 19.5872 8.92283 19.5879 8.92627L19.5889 8.94189L19.5791 8.89404C19.5753 8.88508 19.5705 8.87668 19.5664 8.86963C19.558 8.85527 19.5469 8.83959 19.5352 8.82373C19.5116 8.79198 19.4791 8.75487 19.4443 8.71826C19.3811 8.64867 19.3077 8.56304 19.2793 8.52588C19.2242 8.44609 19.09 8.31158 18.9453 8.18115C18.8717 8.11475 18.7928 8.04651 18.7158 7.98389L18.498 7.81885C18.47 7.79965 18.4437 7.77822 18.4238 7.76123C18.4139 7.75275 18.4061 7.74639 18.4014 7.7417C18.3991 7.73944 18.3984 7.7378 18.3984 7.73779C18.3985 7.73787 18.3992 7.73908 18.4004 7.74072C18.4013 7.74205 18.4035 7.74599 18.4062 7.75146C18.3923 7.72365 18.3701 7.70461 18.3506 7.69287C18.33 7.68053 18.3027 7.67045 18.2715 7.67041C18.2783 7.67042 18.2836 7.67091 18.2861 7.67139C18.2873 7.67161 18.2882 7.67217 18.2891 7.67236C18.2844 7.67035 18.2773 7.66584 18.2676 7.66064C18.247 7.64964 18.2204 7.63457 18.1943 7.61768L18.1934 7.61865C18.0978 7.55109 17.9214 7.45414 17.7412 7.36768C17.6496 7.32373 17.5545 7.28084 17.4658 7.24365L17.2275 7.15381C17.0893 7.10999 16.9567 7.06735 16.9277 7.0542L16.9248 7.05225C16.8542 7.02342 16.7305 6.99884 16.5947 6.97803C16.4553 6.95666 16.291 6.93796 16.1309 6.92432C15.9708 6.91069 15.813 6.90127 15.6865 6.8999C15.6235 6.89922 15.5667 6.90122 15.5205 6.90479C15.4975 6.90657 15.4755 6.90906 15.4561 6.9126C15.4382 6.91586 15.415 6.9209 15.3945 6.93115H15.3936C15.2913 6.98377 15.2536 7.09543 15.252 7.18799C15.2503 7.28261 15.2845 7.39171 15.3691 7.46143C15.4156 7.50143 15.4695 7.52062 15.54 7.53076C15.6079 7.54051 15.7007 7.54248 15.832 7.54248C16.1313 7.54248 16.3659 7.57106 16.6592 7.64111L16.9502 7.72021C16.985 7.73103 17.0118 7.7401 17.0303 7.74756C17.053 7.75673 17.0529 7.75963 17.0459 7.75342L17.0566 7.76221C17.0871 7.78249 17.1396 7.8042 17.1914 7.8042C17.1854 7.8042 17.1851 7.80373 17.1943 7.80615C17.202 7.80819 17.2126 7.81182 17.2266 7.81689C17.2549 7.82724 17.2919 7.84308 17.335 7.86279C17.4209 7.90208 17.5267 7.95569 17.6309 8.01221C17.735 8.0687 17.836 8.12669 17.9121 8.17529C17.9504 8.19975 17.9809 8.22149 18.002 8.23779C18.0125 8.24598 18.0189 8.25187 18.0225 8.25537C18.0275 8.26034 18.0237 8.257 18.0186 8.24756C18.0326 8.27525 18.0547 8.29446 18.0742 8.30615C18.0948 8.31847 18.1221 8.32858 18.1533 8.32861C18.1344 8.32858 18.1256 8.32189 18.1367 8.32764C18.1438 8.33132 18.1552 8.33814 18.1709 8.34912C18.2022 8.37107 18.2441 8.4039 18.293 8.4458C18.3902 8.52922 18.511 8.64252 18.6289 8.76025C18.7469 8.87802 18.8607 8.99885 18.9443 9.09619C18.9863 9.14499 19.0191 9.18686 19.041 9.21826C19.052 9.23399 19.0588 9.24527 19.0625 9.25244C19.0683 9.26367 19.0615 9.25533 19.0615 9.23682C19.0615 9.26132 19.0693 9.2815 19.0742 9.29248C19.0798 9.30507 19.0869 9.31671 19.0938 9.32666C19.1072 9.34626 19.1247 9.36662 19.1436 9.3833L19.1582 9.40674C19.1716 9.42832 19.1889 9.45838 19.209 9.49463C19.2489 9.56686 19.2982 9.66062 19.3457 9.75537C19.3932 9.85008 19.4391 9.94485 19.4727 10.019C19.4894 10.0561 19.5028 10.087 19.5117 10.1099C19.5162 10.1214 19.5189 10.13 19.5205 10.1353V10.1235C19.5205 10.149 19.5273 10.1768 19.5332 10.1958C19.5399 10.2176 19.5497 10.2415 19.5605 10.2632L19.5615 10.2671C19.5728 10.2876 19.5906 10.338 19.6133 10.4253C19.6351 10.5092 19.6596 10.6193 19.6855 10.7524V10.7534C19.7088 10.8632 19.7431 10.9949 19.7607 11.0513L19.7617 11.0562L19.792 11.1138Z" fill="black" stroke="black" stroke-width="0.2"/>
<path d="M18.4023 10.7358C18.3822 10.7178 18.3678 10.6975 18.3604 10.6821C18.3504 10.6614 18.3422 10.6347 18.3408 10.606C18.3398 10.602 18.3373 10.5957 18.334 10.5864C18.3273 10.5678 18.317 10.5427 18.3037 10.5122C18.2772 10.4512 18.2407 10.3729 18.2002 10.2915C18.1592 10.209 18.1154 10.1256 18.0762 10.0542L17.9785 9.88916C17.9287 9.81743 17.7908 9.66782 17.6543 9.53174C17.5874 9.46501 17.5233 9.40382 17.4736 9.35986C17.4486 9.33768 17.4281 9.32058 17.4141 9.31006C17.4103 9.30724 17.4072 9.30553 17.4053 9.3042C17.3833 9.2989 17.3636 9.29115 17.3506 9.28369C17.328 9.27078 17.3048 9.25235 17.2852 9.22998H17.2842L17.2812 9.22607C17.2863 9.23246 17.2856 9.22907 17.2637 9.21436C17.2459 9.20244 17.2212 9.18753 17.1914 9.17041C17.1319 9.13622 17.0546 9.09605 16.9766 9.05713C16.8987 9.0183 16.821 8.98125 16.7588 8.95459C16.7276 8.94124 16.7012 8.93116 16.6816 8.92432C16.6718 8.92089 16.6646 8.91864 16.6602 8.91748C16.6538 8.91585 16.6574 8.91748 16.666 8.91748C16.6376 8.91748 16.6093 8.91075 16.585 8.90088C16.5651 8.89281 16.5332 8.87591 16.5117 8.84326C16.5161 8.84965 16.5197 8.85451 16.5225 8.85693C16.5254 8.85947 16.5278 8.86052 16.5283 8.86084C16.5277 8.86052 16.5239 8.85941 16.5166 8.85693C16.4992 8.85108 16.4706 8.84401 16.4268 8.83643C16.3389 8.82126 16.2038 8.80587 16.0098 8.78955H16.0088C15.8098 8.77175 15.6773 8.75516 15.5898 8.72998C15.5449 8.71701 15.5042 8.69927 15.4707 8.67236C15.4358 8.64426 15.4147 8.61083 15.4014 8.57568C15.3747 8.5079 15.3735 8.43234 15.3887 8.3667C15.4037 8.30194 15.4373 8.23527 15.4932 8.18994L15.4941 8.18896C15.515 8.17265 15.539 8.16439 15.5527 8.16064C15.569 8.15622 15.5868 8.15323 15.6045 8.15088C15.6402 8.14614 15.684 8.14328 15.7314 8.14209C15.8268 8.1397 15.9459 8.14361 16.0635 8.15088C16.1809 8.15814 16.2994 8.16894 16.3945 8.18311C16.4419 8.19018 16.4861 8.19839 16.5215 8.20752C16.5391 8.21206 16.5566 8.21785 16.5723 8.22412C16.5859 8.22956 16.6069 8.23896 16.625 8.25537L16.6211 8.25244L16.6191 8.25146C16.6203 8.252 16.6235 8.25313 16.6279 8.25439C16.6381 8.25724 16.6514 8.25928 16.6631 8.25928C16.719 8.25936 16.7935 8.27518 16.8418 8.29932L16.8457 8.30127C16.8703 8.31486 16.9508 8.35244 17.0215 8.38135H17.0225C17.3268 8.51086 17.5783 8.64426 17.6982 8.75146L17.6992 8.75049C17.7373 8.78219 17.7952 8.82477 17.8301 8.84229L17.833 8.84326C17.8536 8.8543 17.8766 8.87218 17.8975 8.88916C17.92 8.90754 17.9462 8.93048 17.9736 8.95557C18.0286 9.00578 18.0927 9.06773 18.1533 9.12939C18.2138 9.19094 18.2717 9.25378 18.3154 9.3042C18.3371 9.32916 18.3567 9.35274 18.3711 9.37256C18.3781 9.38225 18.3856 9.39304 18.3916 9.40381C18.3945 9.40912 18.3983 9.41625 18.4014 9.42432C18.4019 9.4257 18.4017 9.42819 18.4023 9.43018L18.4092 9.46533L18.4053 9.43896C18.4043 9.43575 18.4041 9.43288 18.4033 9.43115C18.406 9.43497 18.4101 9.44054 18.416 9.44775C18.4315 9.46675 18.4542 9.49184 18.4785 9.51611L18.4775 9.51709C18.5077 9.54566 18.5361 9.57484 18.5566 9.60107C18.5669 9.61426 18.5771 9.62861 18.585 9.64209C18.5888 9.64876 18.5931 9.65743 18.5967 9.6665C18.5997 9.67422 18.6055 9.69095 18.6055 9.71143C18.6055 9.70073 18.6041 9.69236 18.6035 9.68994C18.6027 9.68684 18.6017 9.68437 18.6016 9.68408C18.6016 9.68408 18.6021 9.68587 18.6035 9.68896C18.6068 9.69597 18.6124 9.70649 18.6201 9.72021C18.6356 9.74782 18.6581 9.78365 18.6816 9.81982V9.8208C18.7882 9.98582 18.8528 10.1209 18.959 10.4028H18.96C18.9917 10.4876 19.051 10.7041 19.0781 10.8423C19.0928 10.9108 19.1042 10.966 19.1113 11.0103C19.1184 11.0537 19.1228 11.0933 19.1201 11.1294C19.1171 11.1689 19.1054 11.2031 19.085 11.2349C19.0669 11.2629 19.0432 11.2862 19.0234 11.3052L19.0225 11.3062L18.9639 11.3521C18.9019 11.3923 18.8317 11.4121 18.7588 11.3989C18.6616 11.3813 18.5891 11.3105 18.5439 11.2183L18.543 11.2163C18.505 11.1353 18.4715 11.0476 18.4473 10.9683C18.4238 10.8917 18.4053 10.8136 18.4053 10.7554C18.4053 10.7523 18.405 10.7478 18.4043 10.7437C18.4037 10.7405 18.403 10.7379 18.4023 10.7358ZM18.4023 10.7358C18.4034 10.7374 18.4066 10.7402 18.4102 10.7437C18.412 10.7454 18.4149 10.7473 18.418 10.7495C18.412 10.7456 18.4074 10.7404 18.4023 10.7358Z" fill="black" stroke="black" stroke-width="0.2"/>
<mask id="path-5-outside-1_14136_52413" maskUnits="userSpaceOnUse" x="8.80078" y="8" width="12" height="16" fill="black">
<rect fill="white" x="8.80078" y="8" width="12" height="16"/>
<path d="M12.5654 8.89614C12.477 8.9387 12.3493 9.02382 12.2871 9.08602C12.1824 9.19078 12.1497 9.23989 12.058 9.44613C12.0416 9.48869 12.022 9.65893 12.0187 9.82917L12.0089 10.1369L11.7568 10.1304C11.2134 10.114 10.8762 10.3759 10.7518 10.9128C10.719 11.0568 10.7256 11.1125 10.8369 11.6756C10.8467 11.7247 10.8664 11.7738 10.8827 11.7836C10.8991 11.7934 10.9122 11.8327 10.9122 11.8753C10.9122 11.9146 10.9253 11.9604 10.9417 11.9768C10.958 11.9964 10.9777 12.0619 10.9908 12.1274L11.0104 12.2452L10.7518 12.2681C10.2771 12.3074 9.98574 12.5464 9.83515 13.0113C9.78932 13.1586 9.78932 13.3386 9.83515 13.5122C9.95628 13.9705 9.99229 14.1047 10.0283 14.2029C10.0414 14.2389 10.0872 14.3797 10.1265 14.5139C10.1691 14.6482 10.2313 14.8544 10.2673 14.9723C10.3 15.0901 10.3426 15.2112 10.3589 15.2407C10.3753 15.2734 10.3884 15.3226 10.3884 15.3487C10.3884 15.3749 10.4015 15.424 10.4179 15.4568C10.4342 15.4862 10.467 15.5779 10.4866 15.6597C10.5095 15.7416 10.539 15.8365 10.5521 15.8725C10.5652 15.9086 10.5946 16.0035 10.6176 16.0853C10.6372 16.1672 10.6699 16.2588 10.6863 16.2883C10.7027 16.3211 10.7158 16.3702 10.7158 16.3963C10.7158 16.4225 10.7289 16.4716 10.7452 16.5044C10.7616 16.5338 10.8074 16.6713 10.8467 16.8056C10.886 16.9398 10.9318 17.0806 10.9449 17.1166C10.958 17.1526 10.9875 17.2475 11.0104 17.3294C11.0301 17.4112 11.0628 17.5029 11.0792 17.5323C11.0955 17.5651 11.1086 17.6207 11.1086 17.6535C11.1086 17.6895 11.125 17.7288 11.1414 17.7386C11.161 17.7484 11.1741 17.7942 11.1741 17.8368C11.1741 17.8794 11.1905 17.9252 11.2068 17.935C11.2265 17.9448 11.2396 17.9907 11.2396 18.0332C11.2396 18.0758 11.2527 18.1216 11.2723 18.1314C11.2887 18.1413 11.305 18.1773 11.305 18.2133C11.305 18.246 11.3345 18.3279 11.3672 18.3999C11.4033 18.4686 11.4753 18.6127 11.5277 18.7207C11.7143 19.1005 11.8648 19.3395 12.1038 19.6374C12.2511 19.8174 12.6309 20.2103 12.6603 20.2103C12.6702 20.2103 12.7651 20.2758 12.8666 20.3543C13.027 20.4755 13.063 20.5213 13.099 20.6555C13.1252 20.7439 13.1579 20.8487 13.1743 20.8912C13.1907 20.9338 13.2038 21.0025 13.2038 21.0451C13.2038 21.0877 13.2169 21.1302 13.2332 21.14C13.2496 21.1499 13.2693 21.2055 13.2791 21.2644C13.2889 21.3234 13.3118 21.4281 13.3315 21.4936C13.4689 21.965 13.5017 22.0796 13.5181 22.1746C13.5377 22.2695 13.577 22.3644 13.6785 22.5674C13.7603 22.7311 14.0091 22.9406 14.1662 22.9766C14.3201 23.0126 14.6442 23.0061 14.8013 22.9635C15.0207 22.9046 15.1778 22.8653 15.2826 22.8457C15.3382 22.8326 15.4102 22.8129 15.4463 22.7966C15.4823 22.7802 15.5477 22.7606 15.5936 22.7507C15.6394 22.7442 15.7343 22.718 15.8064 22.6984C15.8784 22.6787 15.9897 22.6492 16.0519 22.6329C16.1599 22.6067 16.2843 22.5707 16.52 22.5052C16.5757 22.4856 16.6837 22.4561 16.7557 22.4365C16.8277 22.4168 16.9391 22.3841 17.0013 22.3677C17.0635 22.3481 17.1649 22.3251 17.2239 22.3153C17.2828 22.3055 17.3384 22.2859 17.3483 22.2695C17.3581 22.2531 17.3974 22.24 17.4334 22.24C17.4989 22.24 17.6265 22.204 17.8033 22.1418C17.9703 22.0829 18.1078 22.0436 18.1569 22.0436C18.1896 22.0436 18.2387 22.0305 18.2714 22.0141C18.3009 21.9978 18.4417 21.9487 18.5824 21.9061C18.7887 21.8472 18.8705 21.8013 18.9917 21.6835C19.2372 21.4478 19.2699 21.2513 19.1291 20.8814C19.1161 20.8454 19.0702 20.7046 19.0309 20.5704C18.9917 20.4362 18.9458 20.2987 18.9295 20.2692C18.9131 20.2365 18.9 20.1874 18.9 20.1612C18.9 20.135 18.8869 20.0859 18.8705 20.0531C18.8542 20.0237 18.8214 19.932 18.7985 19.8502C18.7789 19.7683 18.7232 19.5883 18.6774 19.4475C18.6021 19.2118 18.5988 19.1889 18.6512 19.1365C18.6807 19.1038 18.7036 19.0612 18.7036 19.0416C18.7036 19.0219 18.7265 18.9892 18.7527 18.9663C18.8673 18.8713 19.2274 18.0561 19.2274 17.8925C19.2274 17.8564 19.2405 17.8172 19.2568 17.8073C19.2732 17.7975 19.2928 17.732 19.3059 17.6666C19.3157 17.5978 19.3387 17.4472 19.3583 17.3294C19.391 17.1231 19.4205 16.8874 19.4893 16.2981C19.522 16.0297 19.5613 15.6925 19.6202 15.2178C19.6922 14.6318 19.7806 14.0425 19.8821 13.4729C19.941 13.1586 19.9574 12.7756 19.9181 12.7363C19.8985 12.7166 19.8821 12.6741 19.8821 12.6446C19.8821 12.566 19.6006 12.2649 19.4663 12.2026C19.3256 12.1339 18.8411 12.1274 18.7101 12.1896C18.661 12.2125 18.5857 12.2485 18.5432 12.2681C18.4122 12.3271 18.1503 12.5791 18.0947 12.7003C18.0652 12.7625 18.0292 12.8116 18.0128 12.8116C17.9965 12.8116 17.9834 12.8345 17.9834 12.8607C17.9834 12.8869 17.9703 12.9392 17.9506 12.9753C17.9343 13.0113 17.9048 13.0702 17.8851 13.1062C17.8688 13.1422 17.8524 13.2011 17.8524 13.2339C17.8524 13.2699 17.8393 13.3092 17.8197 13.319C17.8033 13.3288 17.7869 13.3714 17.7869 13.4074C17.7869 13.4827 17.7313 13.6726 17.6855 13.7675C17.6691 13.8002 17.656 13.8494 17.656 13.8821C17.656 13.9116 17.6265 14.0261 17.5905 14.1342C17.4727 14.4877 17.4596 14.5336 17.4596 14.6056C17.4596 14.6416 17.4465 14.6842 17.4268 14.694C17.4105 14.7038 17.3941 14.7496 17.3941 14.7955C17.3941 14.8904 17.3417 15.005 17.2959 15.005C17.2762 15.005 17.2631 14.9755 17.2631 14.9428C17.2631 14.9068 17.2501 14.8675 17.2304 14.8577C17.214 14.8479 17.1977 14.802 17.1977 14.7562C17.1977 14.7136 17.1846 14.6514 17.1682 14.6187C17.1518 14.5892 17.1191 14.4976 17.0995 14.4157C17.0307 14.1669 16.9947 14.0425 16.9685 13.9738C16.9554 13.9377 16.926 13.8428 16.903 13.761C16.8277 13.4991 16.795 13.3845 16.7721 13.319C16.7426 13.2339 16.6313 12.8705 16.5757 12.6806C16.5528 12.5988 16.5233 12.5038 16.5102 12.4678C16.4971 12.4318 16.4676 12.3369 16.4447 12.255C16.3694 11.9931 16.3367 11.8785 16.3138 11.8131C16.2843 11.728 16.173 11.3646 16.1174 11.1747C16.0944 11.0928 16.065 10.9979 16.0519 10.9619C16.0224 10.8833 15.9144 10.5265 15.8555 10.3235C15.6787 9.68512 15.3906 9.40685 14.9126 9.40685C14.7817 9.40685 14.6344 9.42977 14.5656 9.45596C14.3987 9.5247 14.2088 9.70804 14.1531 9.84553C14.0811 10.0321 14.0746 10.0223 13.9207 9.54107C13.8323 9.26608 13.6359 9.01727 13.4395 8.92888C13.3707 8.89941 13.2922 8.8634 13.2627 8.84703C13.1481 8.78811 12.7389 8.81757 12.5654 8.89614ZM13.2496 9.34465C13.3838 9.42322 13.5311 9.69821 13.6294 10.0616C13.6523 10.1434 13.6817 10.2384 13.6948 10.2744C13.7669 10.4676 13.8585 10.7818 13.8585 10.8408C13.8585 10.88 13.8749 10.9193 13.8913 10.9292C13.9109 10.939 13.924 10.9783 13.924 11.0143C13.924 11.047 13.9371 11.1027 13.9535 11.1354C13.9698 11.1649 14.0026 11.2565 14.0222 11.3384C14.0909 11.5806 14.127 11.7116 14.1531 11.7803C14.1761 11.8458 14.2121 11.9604 14.2841 12.2223C14.307 12.3041 14.3365 12.3991 14.3496 12.4351C14.4052 12.589 14.4478 12.7395 14.4478 12.7887C14.4478 12.8214 14.4609 12.8705 14.4772 12.9032C14.5198 12.9884 14.5787 13.1848 14.5787 13.247C14.5787 13.2797 14.5918 13.3288 14.6082 13.3616C14.6344 13.4139 14.6507 13.463 14.7424 13.7937C14.7653 13.8755 14.7948 13.977 14.8079 14.0229C14.821 14.0687 14.8504 14.1702 14.8734 14.252C14.893 14.3339 14.9257 14.4255 14.9421 14.455C14.9585 14.4877 14.9716 14.5303 14.9716 14.5532C14.9716 14.7104 15.2597 14.7693 15.3513 14.6285C15.4037 14.5467 15.3971 14.3175 15.3349 14.1211C15.3022 14.0261 15.2597 13.869 15.2007 13.6627C15.1811 13.5809 15.1483 13.4892 15.132 13.4598C15.1156 13.427 15.1025 13.3779 15.1025 13.3452C15.1025 13.283 15.0436 13.0866 15.001 13.0014C14.9847 12.9687 14.9716 12.9065 14.9716 12.864C14.9716 12.8181 14.9585 12.7723 14.9388 12.7625C14.9225 12.7526 14.9061 12.7068 14.9061 12.661C14.9061 12.6184 14.893 12.5562 14.8766 12.5235C14.8603 12.494 14.8275 12.4023 14.8079 12.3205C14.7228 12.0095 14.6999 11.9407 14.6737 11.8884C14.6573 11.8556 14.6442 11.7934 14.6442 11.7509C14.6442 11.705 14.6311 11.6592 14.6115 11.6494C14.5951 11.6396 14.5787 11.5937 14.5787 11.5479C14.5787 11.5053 14.5656 11.4431 14.5493 11.4104C14.5329 11.3809 14.5002 11.2893 14.4805 11.2074C14.4576 11.1256 14.4281 11.0306 14.415 10.9946C14.3299 10.7884 14.3005 10.4414 14.3528 10.2777C14.4445 9.98631 14.6016 9.86518 14.8865 9.86518C15.0272 9.86518 15.0698 9.88155 15.1582 9.96339C15.2564 10.0551 15.4299 10.3726 15.4299 10.461C15.4299 10.497 15.479 10.664 15.5281 10.7982C15.5412 10.8342 15.5707 10.9292 15.5936 11.011C15.6132 11.0928 15.6459 11.1845 15.6623 11.214C15.6787 11.2467 15.6918 11.3089 15.6918 11.3515C15.6918 11.3973 15.7081 11.4431 15.7245 11.453C15.7442 11.4628 15.7573 11.5021 15.7573 11.5381C15.7573 11.5708 15.7703 11.6265 15.7867 11.6592C15.8129 11.7116 15.8358 11.7803 15.9209 12.0913C15.9406 12.1732 15.9733 12.2649 15.9897 12.2943C16.0061 12.3271 16.0191 12.3762 16.0191 12.4023C16.0191 12.4285 16.0322 12.4776 16.0486 12.5104C16.0748 12.5628 16.0912 12.6119 16.1828 12.9425C16.2057 13.0244 16.2352 13.1193 16.2483 13.1553C16.3203 13.3485 16.412 13.6627 16.412 13.7217C16.412 13.761 16.4284 13.8002 16.4447 13.8101C16.4644 13.8199 16.4775 13.8592 16.4775 13.8952C16.4775 13.9279 16.4906 13.9836 16.5069 14.0163C16.5331 14.0687 16.556 14.1374 16.6411 14.4485C16.6608 14.5303 16.6935 14.622 16.7099 14.6514C16.7263 14.6842 16.7394 14.7398 16.7394 14.7726C16.7394 14.8086 16.7557 14.8479 16.7721 14.8577C16.7917 14.8675 16.8048 14.9133 16.8048 14.9559C16.8048 14.9984 16.8212 15.0443 16.8376 15.0541C16.8572 15.0639 16.8703 15.1065 16.8703 15.149C16.8703 15.2047 16.8343 15.2407 16.7132 15.2931C16.6248 15.3324 16.5462 15.3651 16.5331 15.3651C16.5233 15.3651 16.4447 15.4142 16.3596 15.4699C16.2778 15.5288 16.1861 15.591 16.1534 15.6106C16.0126 15.6958 15.6394 16.1148 15.5412 16.2981C15.5215 16.3341 15.4888 16.3931 15.4692 16.4291C15.3873 16.5731 15.2989 16.7892 15.2989 16.8416C15.2989 16.8743 15.2858 16.9071 15.2695 16.9169C15.2269 16.9431 15.2007 17.1559 15.1811 17.5847C15.1614 17.9383 15.1647 17.9612 15.2367 18.0365C15.3153 18.1216 15.4659 18.1413 15.5215 18.0725C15.5379 18.0529 15.5608 17.9088 15.5739 17.755C15.6034 17.3326 15.6689 17.0216 15.7736 16.7892C15.8718 16.5797 16.1174 16.2228 16.2352 16.1246C16.52 15.8856 16.9489 15.627 17.0536 15.627C17.0798 15.627 17.1257 15.6139 17.1584 15.5975C17.1879 15.5812 17.273 15.5517 17.345 15.5288C17.6494 15.4371 17.6625 15.424 17.7542 15.1196C17.7771 15.0476 17.8066 14.9592 17.8197 14.9232C17.8819 14.7464 17.9179 14.6187 17.9179 14.5532C17.9179 14.5172 17.9343 14.4746 17.9506 14.4648C17.9703 14.455 17.9834 14.4124 17.9834 14.3764C17.9834 14.311 18.0194 14.1833 18.0816 14.0065C18.1405 13.8395 18.1798 13.702 18.1798 13.6529C18.1798 13.6202 18.1929 13.5711 18.2092 13.5383C18.2256 13.5089 18.2583 13.4172 18.2813 13.3354C18.3631 13.0538 18.5039 12.841 18.6937 12.7101C18.8149 12.625 18.8673 12.6086 19.044 12.6086C19.4762 12.6053 19.5515 12.7952 19.4238 13.5482C19.3256 14.1342 19.1684 15.2734 19.0997 15.9053C18.9655 17.1133 18.9393 17.3032 18.8378 17.7059C18.8181 17.7779 18.7952 17.8761 18.7821 17.9285C18.7723 17.9776 18.7494 18.0267 18.733 18.0365C18.7167 18.0463 18.7036 18.0758 18.7036 18.102C18.7036 18.2035 18.4155 18.7142 18.206 18.9859C18.1503 19.0612 17.62 19.5915 17.5447 19.6472C17.4137 19.752 17.0078 20.0073 16.8965 20.0564C16.4971 20.2365 16.4022 20.2725 16.0355 20.3674C15.4528 20.518 14.8734 20.5344 14.0942 20.4198C14.0189 20.41 13.9469 20.3871 13.9371 20.3707C13.9273 20.3543 13.888 20.3412 13.8454 20.3412C13.8061 20.3412 13.7603 20.3281 13.7407 20.3151C13.7243 20.302 13.6523 20.2692 13.5803 20.2463C13.4395 20.1972 13.0303 19.9582 13.0139 19.9124C13.0074 19.896 12.9844 19.8829 12.9615 19.8829C12.8961 19.8829 12.2217 19.1561 12.2217 19.0841C12.2217 19.0743 12.1857 19.0121 12.1398 18.9466C12.0253 18.7797 11.7175 18.1282 11.6651 17.9514C11.6422 17.8695 11.6128 17.7746 11.5997 17.7386C11.5866 17.7026 11.5571 17.6076 11.5342 17.5258C11.5146 17.444 11.4818 17.3523 11.4655 17.3228C11.4491 17.2901 11.436 17.241 11.436 17.2148C11.436 17.1886 11.4229 17.1395 11.4065 17.1068C11.3771 17.0511 11.2854 16.7565 11.2068 16.4782C11.1872 16.3963 11.1545 16.3047 11.1381 16.2752C11.1217 16.2425 11.1086 16.1934 11.1086 16.1672C11.1086 16.141 11.0955 16.0919 11.0792 16.0591C11.0628 16.0297 11.0333 15.938 11.0104 15.8562C10.9875 15.7743 10.958 15.6827 10.9417 15.6532C10.9253 15.6205 10.9122 15.5583 10.9122 15.5157C10.9122 15.4699 10.8991 15.424 10.8795 15.4142C10.8631 15.4044 10.8467 15.3586 10.8467 15.316C10.8467 15.2734 10.8336 15.2276 10.814 15.2178C10.7976 15.208 10.7812 15.1687 10.7812 15.1327C10.7812 15.0999 10.7682 15.0443 10.7518 15.0115C10.7354 14.9821 10.7027 14.8904 10.683 14.8086C10.6601 14.7267 10.6307 14.6318 10.6176 14.5958C10.6045 14.5598 10.575 14.4648 10.5521 14.383C10.5324 14.3011 10.4997 14.2095 10.4833 14.18C10.467 14.1473 10.4539 14.0916 10.4539 14.0589C10.4539 14.0229 10.4408 13.9836 10.4211 13.9738C10.4048 13.9639 10.3884 13.9247 10.3884 13.8886C10.3884 13.8559 10.3753 13.8002 10.3589 13.7675C10.3131 13.6791 10.2575 13.4107 10.2575 13.2895C10.2575 12.9753 10.5521 12.6773 10.8598 12.6806C10.9809 12.6839 11.1741 12.7756 11.2068 12.8443C11.2559 12.9458 11.2985 13.0604 11.3378 13.2044C11.3607 13.2863 11.3902 13.3812 11.4033 13.4172C11.4262 13.4827 11.4589 13.5907 11.5342 13.8592C11.5571 13.941 11.5866 14.036 11.5997 14.072C11.6226 14.1374 11.6553 14.2422 11.7306 14.5139C11.7535 14.5958 11.783 14.6973 11.7961 14.7431C11.8092 14.7889 11.8387 14.8904 11.8616 14.9723C11.8845 15.0541 11.9139 15.1523 11.9303 15.1949C11.9467 15.2374 11.9598 15.3062 11.9598 15.3487C11.9598 15.3913 11.9761 15.4371 11.9925 15.447C12.0122 15.4568 12.0253 15.4993 12.0253 15.5386C12.0253 15.5779 12.0547 15.6597 12.0907 15.7154C12.1693 15.8431 12.2708 15.8562 12.4017 15.7547C12.477 15.6925 12.4868 15.6663 12.4705 15.5648C12.4377 15.3356 12.4148 15.2178 12.3854 15.1523C12.369 15.1163 12.3493 15.0508 12.3395 15.005C12.333 14.9592 12.3068 14.8642 12.2871 14.7922C12.2675 14.7202 12.2413 14.6252 12.2348 14.5794C12.2249 14.5336 12.2053 14.4681 12.1922 14.4321C12.166 14.3666 12.13 14.252 12.058 13.9901C12.0383 13.9083 12.0056 13.8166 11.9892 13.7872C11.9729 13.7544 11.9598 13.7053 11.9598 13.6791C11.9598 13.6529 11.9467 13.6038 11.9303 13.5711C11.9139 13.5416 11.8812 13.45 11.8616 13.3681C11.8387 13.2863 11.8092 13.1913 11.7961 13.1553C11.783 13.1193 11.7535 13.0244 11.7306 12.9425C11.711 12.8607 11.6782 12.769 11.6619 12.7395C11.6455 12.7068 11.6324 12.6512 11.6324 12.6184C11.6324 12.5824 11.6193 12.5431 11.5997 12.5333C11.5833 12.5235 11.5669 12.4842 11.5669 12.4482C11.5669 12.4154 11.5538 12.3598 11.5375 12.3271C11.4851 12.2321 11.2658 11.5283 11.2232 11.3253C11.1675 11.0536 11.2232 10.8375 11.3902 10.6902C11.5047 10.592 11.5277 10.5854 11.7601 10.5854C11.9467 10.5854 12.0253 10.6018 12.0776 10.6443C12.1758 10.7262 12.261 10.9292 12.3854 11.3711C12.405 11.453 12.4377 11.5446 12.4541 11.5741C12.4705 11.6068 12.4836 11.6559 12.4836 11.6821C12.4836 11.7083 12.4967 11.7574 12.513 11.7902C12.5392 11.8425 12.5556 11.8916 12.6473 12.2223C12.6702 12.3041 12.6996 12.3991 12.7127 12.4351C12.7258 12.4711 12.7553 12.566 12.7782 12.6479C12.8535 12.9163 12.8862 13.0244 12.9091 13.0898C12.9222 13.1259 12.9517 13.2208 12.9746 13.3026C13.0499 13.5645 13.0827 13.6791 13.1056 13.7446C13.135 13.8297 13.2463 14.1931 13.302 14.383C13.3249 14.4648 13.3544 14.5598 13.3675 14.5958C13.3871 14.6514 13.4428 14.838 13.482 14.9886C13.4853 15.0083 13.5279 15.0443 13.5737 15.0672C13.6425 15.1032 13.6785 15.1065 13.757 15.0705C13.8782 15.0214 13.9109 14.8904 13.8585 14.6776C13.8389 14.5958 13.8127 14.4943 13.8061 14.4485C13.7963 14.4026 13.7767 14.3371 13.7603 14.3011C13.7472 14.2651 13.7177 14.1702 13.6948 14.0883C13.6719 14.0065 13.6425 13.9116 13.6294 13.8755C13.6163 13.8395 13.5868 13.7446 13.5639 13.6627C13.541 13.5809 13.4984 13.4336 13.4657 13.3354C13.4329 13.2372 13.3904 13.0898 13.3675 13.008C13.3445 12.9262 13.3151 12.8312 13.302 12.7952C13.2758 12.7265 13.2398 12.602 13.171 12.3532C13.1514 12.2714 13.1187 12.1797 13.1023 12.1503C13.0859 12.1175 13.0728 12.0684 13.0728 12.0422C13.0728 12.016 13.0597 11.9669 13.0434 11.9342C13.027 11.9047 12.9812 11.7672 12.9386 11.633C12.7847 11.1125 12.6702 10.7622 12.644 10.7098C12.6276 10.6771 12.6145 10.6214 12.6145 10.5887C12.6145 10.5527 12.6014 10.5134 12.5818 10.5036C12.5654 10.4937 12.549 10.4479 12.549 10.4053C12.549 10.3628 12.5359 10.3202 12.5196 10.3104C12.5032 10.3006 12.4836 10.2449 12.4737 10.186C12.4639 10.1271 12.4443 10.0354 12.4312 9.98303C12.3919 9.81934 12.4836 9.5378 12.6211 9.4003C12.7356 9.28572 12.7586 9.2759 12.9386 9.2759C13.0794 9.2759 13.1678 9.29554 13.2496 9.34465ZM18.2944 19.693C18.3042 19.7356 18.3271 19.8273 18.3467 19.8993C18.3664 19.9713 18.3958 20.0564 18.4122 20.0859C18.4286 20.1186 18.4417 20.1743 18.4417 20.207C18.4417 20.243 18.458 20.2823 18.4744 20.2921C18.4941 20.302 18.5071 20.3478 18.5071 20.3903C18.5071 20.4329 18.5235 20.4787 18.5399 20.4886C18.5595 20.4984 18.5726 20.5442 18.5726 20.5868C18.5726 20.6293 18.589 20.6752 18.6054 20.685C18.625 20.6948 18.6381 20.7406 18.6381 20.7832C18.6381 20.8258 18.6545 20.8716 18.6708 20.8814C18.6905 20.8912 18.7036 20.9371 18.7036 20.9796C18.7036 21.0222 18.7199 21.068 18.7363 21.0778C18.8018 21.1171 18.769 21.2775 18.6807 21.3594C18.5759 21.4543 18.4875 21.4969 18.278 21.5525C18.1961 21.5722 18.1045 21.6049 18.075 21.6213C18.0423 21.6377 17.9866 21.6507 17.9506 21.6507C17.9146 21.6507 17.859 21.6638 17.8262 21.6802C17.7738 21.7064 17.7116 21.726 17.3941 21.8144C17.3123 21.8374 17.214 21.8668 17.1715 21.8832C17.1289 21.8996 17.0667 21.9126 17.0307 21.9126C16.998 21.9126 16.9423 21.9257 16.9096 21.9421C16.8572 21.9683 16.795 21.9879 16.4775 22.0763C16.3956 22.0993 16.2974 22.1287 16.2549 22.1451C16.2123 22.1615 16.1435 22.1746 16.101 22.1746C16.0584 22.1746 16.0159 22.1876 16.0061 22.204C15.9962 22.2204 15.9406 22.24 15.8817 22.2498C15.8227 22.2597 15.7147 22.2826 15.6427 22.3055C15.5707 22.3251 15.4528 22.3579 15.3808 22.3743C15.2204 22.4135 15.0501 22.4561 14.8668 22.5052C14.7882 22.5248 14.6377 22.5478 14.5263 22.5576C14.2055 22.5805 14.0648 22.4692 13.96 22.1091C13.9371 22.0272 13.9043 21.9257 13.8913 21.8799C13.8683 21.8013 13.8389 21.6966 13.757 21.379C13.7374 21.3037 13.7079 21.2088 13.6916 21.1662C13.6752 21.1237 13.6621 21.0549 13.6621 21.0124C13.6621 20.9698 13.649 20.924 13.6294 20.9141C13.5835 20.8847 13.5868 20.7341 13.6359 20.7341C13.6752 20.7341 13.852 20.7865 13.9731 20.8356C14.1171 20.8912 14.3594 20.9109 14.9225 20.9109C15.4921 20.9109 15.7474 20.8912 15.9209 20.8323C15.9668 20.8192 16.0912 20.7865 16.1992 20.7636C16.3072 20.7406 16.4087 20.7112 16.4251 20.6948C16.4447 20.6817 16.4906 20.6686 16.5298 20.6686C16.5724 20.6686 16.615 20.6522 16.6248 20.6359C16.6346 20.6162 16.6706 20.6031 16.7033 20.6031C16.7786 20.6031 17.3286 20.3216 17.5447 20.1743C17.7607 20.0237 17.9637 19.86 18.0914 19.729C18.2158 19.6046 18.2682 19.5948 18.2944 19.693Z"/>
</mask>
<path d="M12.5654 8.89614C12.477 8.9387 12.3493 9.02382 12.2871 9.08602C12.1824 9.19078 12.1497 9.23989 12.058 9.44613C12.0416 9.48869 12.022 9.65893 12.0187 9.82917L12.0089 10.1369L11.7568 10.1304C11.2134 10.114 10.8762 10.3759 10.7518 10.9128C10.719 11.0568 10.7256 11.1125 10.8369 11.6756C10.8467 11.7247 10.8664 11.7738 10.8827 11.7836C10.8991 11.7934 10.9122 11.8327 10.9122 11.8753C10.9122 11.9146 10.9253 11.9604 10.9417 11.9768C10.958 11.9964 10.9777 12.0619 10.9908 12.1274L11.0104 12.2452L10.7518 12.2681C10.2771 12.3074 9.98574 12.5464 9.83515 13.0113C9.78932 13.1586 9.78932 13.3386 9.83515 13.5122C9.95628 13.9705 9.99229 14.1047 10.0283 14.2029C10.0414 14.2389 10.0872 14.3797 10.1265 14.5139C10.1691 14.6482 10.2313 14.8544 10.2673 14.9723C10.3 15.0901 10.3426 15.2112 10.3589 15.2407C10.3753 15.2734 10.3884 15.3226 10.3884 15.3487C10.3884 15.3749 10.4015 15.424 10.4179 15.4568C10.4342 15.4862 10.467 15.5779 10.4866 15.6597C10.5095 15.7416 10.539 15.8365 10.5521 15.8725C10.5652 15.9086 10.5946 16.0035 10.6176 16.0853C10.6372 16.1672 10.6699 16.2588 10.6863 16.2883C10.7027 16.3211 10.7158 16.3702 10.7158 16.3963C10.7158 16.4225 10.7289 16.4716 10.7452 16.5044C10.7616 16.5338 10.8074 16.6713 10.8467 16.8056C10.886 16.9398 10.9318 17.0806 10.9449 17.1166C10.958 17.1526 10.9875 17.2475 11.0104 17.3294C11.0301 17.4112 11.0628 17.5029 11.0792 17.5323C11.0955 17.5651 11.1086 17.6207 11.1086 17.6535C11.1086 17.6895 11.125 17.7288 11.1414 17.7386C11.161 17.7484 11.1741 17.7942 11.1741 17.8368C11.1741 17.8794 11.1905 17.9252 11.2068 17.935C11.2265 17.9448 11.2396 17.9907 11.2396 18.0332C11.2396 18.0758 11.2527 18.1216 11.2723 18.1314C11.2887 18.1413 11.305 18.1773 11.305 18.2133C11.305 18.246 11.3345 18.3279 11.3672 18.3999C11.4033 18.4686 11.4753 18.6127 11.5277 18.7207C11.7143 19.1005 11.8648 19.3395 12.1038 19.6374C12.2511 19.8174 12.6309 20.2103 12.6603 20.2103C12.6702 20.2103 12.7651 20.2758 12.8666 20.3543C13.027 20.4755 13.063 20.5213 13.099 20.6555C13.1252 20.7439 13.1579 20.8487 13.1743 20.8912C13.1907 20.9338 13.2038 21.0025 13.2038 21.0451C13.2038 21.0877 13.2169 21.1302 13.2332 21.14C13.2496 21.1499 13.2693 21.2055 13.2791 21.2644C13.2889 21.3234 13.3118 21.4281 13.3315 21.4936C13.4689 21.965 13.5017 22.0796 13.5181 22.1746C13.5377 22.2695 13.577 22.3644 13.6785 22.5674C13.7603 22.7311 14.0091 22.9406 14.1662 22.9766C14.3201 23.0126 14.6442 23.0061 14.8013 22.9635C15.0207 22.9046 15.1778 22.8653 15.2826 22.8457C15.3382 22.8326 15.4102 22.8129 15.4463 22.7966C15.4823 22.7802 15.5477 22.7606 15.5936 22.7507C15.6394 22.7442 15.7343 22.718 15.8064 22.6984C15.8784 22.6787 15.9897 22.6492 16.0519 22.6329C16.1599 22.6067 16.2843 22.5707 16.52 22.5052C16.5757 22.4856 16.6837 22.4561 16.7557 22.4365C16.8277 22.4168 16.9391 22.3841 17.0013 22.3677C17.0635 22.3481 17.1649 22.3251 17.2239 22.3153C17.2828 22.3055 17.3384 22.2859 17.3483 22.2695C17.3581 22.2531 17.3974 22.24 17.4334 22.24C17.4989 22.24 17.6265 22.204 17.8033 22.1418C17.9703 22.0829 18.1078 22.0436 18.1569 22.0436C18.1896 22.0436 18.2387 22.0305 18.2714 22.0141C18.3009 21.9978 18.4417 21.9487 18.5824 21.9061C18.7887 21.8472 18.8705 21.8013 18.9917 21.6835C19.2372 21.4478 19.2699 21.2513 19.1291 20.8814C19.1161 20.8454 19.0702 20.7046 19.0309 20.5704C18.9917 20.4362 18.9458 20.2987 18.9295 20.2692C18.9131 20.2365 18.9 20.1874 18.9 20.1612C18.9 20.135 18.8869 20.0859 18.8705 20.0531C18.8542 20.0237 18.8214 19.932 18.7985 19.8502C18.7789 19.7683 18.7232 19.5883 18.6774 19.4475C18.6021 19.2118 18.5988 19.1889 18.6512 19.1365C18.6807 19.1038 18.7036 19.0612 18.7036 19.0416C18.7036 19.0219 18.7265 18.9892 18.7527 18.9663C18.8673 18.8713 19.2274 18.0561 19.2274 17.8925C19.2274 17.8564 19.2405 17.8172 19.2568 17.8073C19.2732 17.7975 19.2928 17.732 19.3059 17.6666C19.3157 17.5978 19.3387 17.4472 19.3583 17.3294C19.391 17.1231 19.4205 16.8874 19.4893 16.2981C19.522 16.0297 19.5613 15.6925 19.6202 15.2178C19.6922 14.6318 19.7806 14.0425 19.8821 13.4729C19.941 13.1586 19.9574 12.7756 19.9181 12.7363C19.8985 12.7166 19.8821 12.6741 19.8821 12.6446C19.8821 12.566 19.6006 12.2649 19.4663 12.2026C19.3256 12.1339 18.8411 12.1274 18.7101 12.1896C18.661 12.2125 18.5857 12.2485 18.5432 12.2681C18.4122 12.3271 18.1503 12.5791 18.0947 12.7003C18.0652 12.7625 18.0292 12.8116 18.0128 12.8116C17.9965 12.8116 17.9834 12.8345 17.9834 12.8607C17.9834 12.8869 17.9703 12.9392 17.9506 12.9753C17.9343 13.0113 17.9048 13.0702 17.8851 13.1062C17.8688 13.1422 17.8524 13.2011 17.8524 13.2339C17.8524 13.2699 17.8393 13.3092 17.8197 13.319C17.8033 13.3288 17.7869 13.3714 17.7869 13.4074C17.7869 13.4827 17.7313 13.6726 17.6855 13.7675C17.6691 13.8002 17.656 13.8494 17.656 13.8821C17.656 13.9116 17.6265 14.0261 17.5905 14.1342C17.4727 14.4877 17.4596 14.5336 17.4596 14.6056C17.4596 14.6416 17.4465 14.6842 17.4268 14.694C17.4105 14.7038 17.3941 14.7496 17.3941 14.7955C17.3941 14.8904 17.3417 15.005 17.2959 15.005C17.2762 15.005 17.2631 14.9755 17.2631 14.9428C17.2631 14.9068 17.2501 14.8675 17.2304 14.8577C17.214 14.8479 17.1977 14.802 17.1977 14.7562C17.1977 14.7136 17.1846 14.6514 17.1682 14.6187C17.1518 14.5892 17.1191 14.4976 17.0995 14.4157C17.0307 14.1669 16.9947 14.0425 16.9685 13.9738C16.9554 13.9377 16.926 13.8428 16.903 13.761C16.8277 13.4991 16.795 13.3845 16.7721 13.319C16.7426 13.2339 16.6313 12.8705 16.5757 12.6806C16.5528 12.5988 16.5233 12.5038 16.5102 12.4678C16.4971 12.4318 16.4676 12.3369 16.4447 12.255C16.3694 11.9931 16.3367 11.8785 16.3138 11.8131C16.2843 11.728 16.173 11.3646 16.1174 11.1747C16.0944 11.0928 16.065 10.9979 16.0519 10.9619C16.0224 10.8833 15.9144 10.5265 15.8555 10.3235C15.6787 9.68512 15.3906 9.40685 14.9126 9.40685C14.7817 9.40685 14.6344 9.42977 14.5656 9.45596C14.3987 9.5247 14.2088 9.70804 14.1531 9.84553C14.0811 10.0321 14.0746 10.0223 13.9207 9.54107C13.8323 9.26608 13.6359 9.01727 13.4395 8.92888C13.3707 8.89941 13.2922 8.8634 13.2627 8.84703C13.1481 8.78811 12.7389 8.81757 12.5654 8.89614ZM13.2496 9.34465C13.3838 9.42322 13.5311 9.69821 13.6294 10.0616C13.6523 10.1434 13.6817 10.2384 13.6948 10.2744C13.7669 10.4676 13.8585 10.7818 13.8585 10.8408C13.8585 10.88 13.8749 10.9193 13.8913 10.9292C13.9109 10.939 13.924 10.9783 13.924 11.0143C13.924 11.047 13.9371 11.1027 13.9535 11.1354C13.9698 11.1649 14.0026 11.2565 14.0222 11.3384C14.0909 11.5806 14.127 11.7116 14.1531 11.7803C14.1761 11.8458 14.2121 11.9604 14.2841 12.2223C14.307 12.3041 14.3365 12.3991 14.3496 12.4351C14.4052 12.589 14.4478 12.7395 14.4478 12.7887C14.4478 12.8214 14.4609 12.8705 14.4772 12.9032C14.5198 12.9884 14.5787 13.1848 14.5787 13.247C14.5787 13.2797 14.5918 13.3288 14.6082 13.3616C14.6344 13.4139 14.6507 13.463 14.7424 13.7937C14.7653 13.8755 14.7948 13.977 14.8079 14.0229C14.821 14.0687 14.8504 14.1702 14.8734 14.252C14.893 14.3339 14.9257 14.4255 14.9421 14.455C14.9585 14.4877 14.9716 14.5303 14.9716 14.5532C14.9716 14.7104 15.2597 14.7693 15.3513 14.6285C15.4037 14.5467 15.3971 14.3175 15.3349 14.1211C15.3022 14.0261 15.2597 13.869 15.2007 13.6627C15.1811 13.5809 15.1483 13.4892 15.132 13.4598C15.1156 13.427 15.1025 13.3779 15.1025 13.3452C15.1025 13.283 15.0436 13.0866 15.001 13.0014C14.9847 12.9687 14.9716 12.9065 14.9716 12.864C14.9716 12.8181 14.9585 12.7723 14.9388 12.7625C14.9225 12.7526 14.9061 12.7068 14.9061 12.661C14.9061 12.6184 14.893 12.5562 14.8766 12.5235C14.8603 12.494 14.8275 12.4023 14.8079 12.3205C14.7228 12.0095 14.6999 11.9407 14.6737 11.8884C14.6573 11.8556 14.6442 11.7934 14.6442 11.7509C14.6442 11.705 14.6311 11.6592 14.6115 11.6494C14.5951 11.6396 14.5787 11.5937 14.5787 11.5479C14.5787 11.5053 14.5656 11.4431 14.5493 11.4104C14.5329 11.3809 14.5002 11.2893 14.4805 11.2074C14.4576 11.1256 14.4281 11.0306 14.415 10.9946C14.3299 10.7884 14.3005 10.4414 14.3528 10.2777C14.4445 9.98631 14.6016 9.86518 14.8865 9.86518C15.0272 9.86518 15.0698 9.88155 15.1582 9.96339C15.2564 10.0551 15.4299 10.3726 15.4299 10.461C15.4299 10.497 15.479 10.664 15.5281 10.7982C15.5412 10.8342 15.5707 10.9292 15.5936 11.011C15.6132 11.0928 15.6459 11.1845 15.6623 11.214C15.6787 11.2467 15.6918 11.3089 15.6918 11.3515C15.6918 11.3973 15.7081 11.4431 15.7245 11.453C15.7442 11.4628 15.7573 11.5021 15.7573 11.5381C15.7573 11.5708 15.7703 11.6265 15.7867 11.6592C15.8129 11.7116 15.8358 11.7803 15.9209 12.0913C15.9406 12.1732 15.9733 12.2649 15.9897 12.2943C16.0061 12.3271 16.0191 12.3762 16.0191 12.4023C16.0191 12.4285 16.0322 12.4776 16.0486 12.5104C16.0748 12.5628 16.0912 12.6119 16.1828 12.9425C16.2057 13.0244 16.2352 13.1193 16.2483 13.1553C16.3203 13.3485 16.412 13.6627 16.412 13.7217C16.412 13.761 16.4284 13.8002 16.4447 13.8101C16.4644 13.8199 16.4775 13.8592 16.4775 13.8952C16.4775 13.9279 16.4906 13.9836 16.5069 14.0163C16.5331 14.0687 16.556 14.1374 16.6411 14.4485C16.6608 14.5303 16.6935 14.622 16.7099 14.6514C16.7263 14.6842 16.7394 14.7398 16.7394 14.7726C16.7394 14.8086 16.7557 14.8479 16.7721 14.8577C16.7917 14.8675 16.8048 14.9133 16.8048 14.9559C16.8048 14.9984 16.8212 15.0443 16.8376 15.0541C16.8572 15.0639 16.8703 15.1065 16.8703 15.149C16.8703 15.2047 16.8343 15.2407 16.7132 15.2931C16.6248 15.3324 16.5462 15.3651 16.5331 15.3651C16.5233 15.3651 16.4447 15.4142 16.3596 15.4699C16.2778 15.5288 16.1861 15.591 16.1534 15.6106C16.0126 15.6958 15.6394 16.1148 15.5412 16.2981C15.5215 16.3341 15.4888 16.3931 15.4692 16.4291C15.3873 16.5731 15.2989 16.7892 15.2989 16.8416C15.2989 16.8743 15.2858 16.9071 15.2695 16.9169C15.2269 16.9431 15.2007 17.1559 15.1811 17.5847C15.1614 17.9383 15.1647 17.9612 15.2367 18.0365C15.3153 18.1216 15.4659 18.1413 15.5215 18.0725C15.5379 18.0529 15.5608 17.9088 15.5739 17.755C15.6034 17.3326 15.6689 17.0216 15.7736 16.7892C15.8718 16.5797 16.1174 16.2228 16.2352 16.1246C16.52 15.8856 16.9489 15.627 17.0536 15.627C17.0798 15.627 17.1257 15.6139 17.1584 15.5975C17.1879 15.5812 17.273 15.5517 17.345 15.5288C17.6494 15.4371 17.6625 15.424 17.7542 15.1196C17.7771 15.0476 17.8066 14.9592 17.8197 14.9232C17.8819 14.7464 17.9179 14.6187 17.9179 14.5532C17.9179 14.5172 17.9343 14.4746 17.9506 14.4648C17.9703 14.455 17.9834 14.4124 17.9834 14.3764C17.9834 14.311 18.0194 14.1833 18.0816 14.0065C18.1405 13.8395 18.1798 13.702 18.1798 13.6529C18.1798 13.6202 18.1929 13.5711 18.2092 13.5383C18.2256 13.5089 18.2583 13.4172 18.2813 13.3354C18.3631 13.0538 18.5039 12.841 18.6937 12.7101C18.8149 12.625 18.8673 12.6086 19.044 12.6086C19.4762 12.6053 19.5515 12.7952 19.4238 13.5482C19.3256 14.1342 19.1684 15.2734 19.0997 15.9053C18.9655 17.1133 18.9393 17.3032 18.8378 17.7059C18.8181 17.7779 18.7952 17.8761 18.7821 17.9285C18.7723 17.9776 18.7494 18.0267 18.733 18.0365C18.7167 18.0463 18.7036 18.0758 18.7036 18.102C18.7036 18.2035 18.4155 18.7142 18.206 18.9859C18.1503 19.0612 17.62 19.5915 17.5447 19.6472C17.4137 19.752 17.0078 20.0073 16.8965 20.0564C16.4971 20.2365 16.4022 20.2725 16.0355 20.3674C15.4528 20.518 14.8734 20.5344 14.0942 20.4198C14.0189 20.41 13.9469 20.3871 13.9371 20.3707C13.9273 20.3543 13.888 20.3412 13.8454 20.3412C13.8061 20.3412 13.7603 20.3281 13.7407 20.3151C13.7243 20.302 13.6523 20.2692 13.5803 20.2463C13.4395 20.1972 13.0303 19.9582 13.0139 19.9124C13.0074 19.896 12.9844 19.8829 12.9615 19.8829C12.8961 19.8829 12.2217 19.1561 12.2217 19.0841C12.2217 19.0743 12.1857 19.0121 12.1398 18.9466C12.0253 18.7797 11.7175 18.1282 11.6651 17.9514C11.6422 17.8695 11.6128 17.7746 11.5997 17.7386C11.5866 17.7026 11.5571 17.6076 11.5342 17.5258C11.5146 17.444 11.4818 17.3523 11.4655 17.3228C11.4491 17.2901 11.436 17.241 11.436 17.2148C11.436 17.1886 11.4229 17.1395 11.4065 17.1068C11.3771 17.0511 11.2854 16.7565 11.2068 16.4782C11.1872 16.3963 11.1545 16.3047 11.1381 16.2752C11.1217 16.2425 11.1086 16.1934 11.1086 16.1672C11.1086 16.141 11.0955 16.0919 11.0792 16.0591C11.0628 16.0297 11.0333 15.938 11.0104 15.8562C10.9875 15.7743 10.958 15.6827 10.9417 15.6532C10.9253 15.6205 10.9122 15.5583 10.9122 15.5157C10.9122 15.4699 10.8991 15.424 10.8795 15.4142C10.8631 15.4044 10.8467 15.3586 10.8467 15.316C10.8467 15.2734 10.8336 15.2276 10.814 15.2178C10.7976 15.208 10.7812 15.1687 10.7812 15.1327C10.7812 15.0999 10.7682 15.0443 10.7518 15.0115C10.7354 14.9821 10.7027 14.8904 10.683 14.8086C10.6601 14.7267 10.6307 14.6318 10.6176 14.5958C10.6045 14.5598 10.575 14.4648 10.5521 14.383C10.5324 14.3011 10.4997 14.2095 10.4833 14.18C10.467 14.1473 10.4539 14.0916 10.4539 14.0589C10.4539 14.0229 10.4408 13.9836 10.4211 13.9738C10.4048 13.9639 10.3884 13.9247 10.3884 13.8886C10.3884 13.8559 10.3753 13.8002 10.3589 13.7675C10.3131 13.6791 10.2575 13.4107 10.2575 13.2895C10.2575 12.9753 10.5521 12.6773 10.8598 12.6806C10.9809 12.6839 11.1741 12.7756 11.2068 12.8443C11.2559 12.9458 11.2985 13.0604 11.3378 13.2044C11.3607 13.2863 11.3902 13.3812 11.4033 13.4172C11.4262 13.4827 11.4589 13.5907 11.5342 13.8592C11.5571 13.941 11.5866 14.036 11.5997 14.072C11.6226 14.1374 11.6553 14.2422 11.7306 14.5139C11.7535 14.5958 11.783 14.6973 11.7961 14.7431C11.8092 14.7889 11.8387 14.8904 11.8616 14.9723C11.8845 15.0541 11.9139 15.1523 11.9303 15.1949C11.9467 15.2374 11.9598 15.3062 11.9598 15.3487C11.9598 15.3913 11.9761 15.4371 11.9925 15.447C12.0122 15.4568 12.0253 15.4993 12.0253 15.5386C12.0253 15.5779 12.0547 15.6597 12.0907 15.7154C12.1693 15.8431 12.2708 15.8562 12.4017 15.7547C12.477 15.6925 12.4868 15.6663 12.4705 15.5648C12.4377 15.3356 12.4148 15.2178 12.3854 15.1523C12.369 15.1163 12.3493 15.0508 12.3395 15.005C12.333 14.9592 12.3068 14.8642 12.2871 14.7922C12.2675 14.7202 12.2413 14.6252 12.2348 14.5794C12.2249 14.5336 12.2053 14.4681 12.1922 14.4321C12.166 14.3666 12.13 14.252 12.058 13.9901C12.0383 13.9083 12.0056 13.8166 11.9892 13.7872C11.9729 13.7544 11.9598 13.7053 11.9598 13.6791C11.9598 13.6529 11.9467 13.6038 11.9303 13.5711C11.9139 13.5416 11.8812 13.45 11.8616 13.3681C11.8387 13.2863 11.8092 13.1913 11.7961 13.1553C11.783 13.1193 11.7535 13.0244 11.7306 12.9425C11.711 12.8607 11.6782 12.769 11.6619 12.7395C11.6455 12.7068 11.6324 12.6512 11.6324 12.6184C11.6324 12.5824 11.6193 12.5431 11.5997 12.5333C11.5833 12.5235 11.5669 12.4842 11.5669 12.4482C11.5669 12.4154 11.5538 12.3598 11.5375 12.3271C11.4851 12.2321 11.2658 11.5283 11.2232 11.3253C11.1675 11.0536 11.2232 10.8375 11.3902 10.6902C11.5047 10.592 11.5277 10.5854 11.7601 10.5854C11.9467 10.5854 12.0253 10.6018 12.0776 10.6443C12.1758 10.7262 12.261 10.9292 12.3854 11.3711C12.405 11.453 12.4377 11.5446 12.4541 11.5741C12.4705 11.6068 12.4836 11.6559 12.4836 11.6821C12.4836 11.7083 12.4967 11.7574 12.513 11.7902C12.5392 11.8425 12.5556 11.8916 12.6473 12.2223C12.6702 12.3041 12.6996 12.3991 12.7127 12.4351C12.7258 12.4711 12.7553 12.566 12.7782 12.6479C12.8535 12.9163 12.8862 13.0244 12.9091 13.0898C12.9222 13.1259 12.9517 13.2208 12.9746 13.3026C13.0499 13.5645 13.0827 13.6791 13.1056 13.7446C13.135 13.8297 13.2463 14.1931 13.302 14.383C13.3249 14.4648 13.3544 14.5598 13.3675 14.5958C13.3871 14.6514 13.4428 14.838 13.482 14.9886C13.4853 15.0083 13.5279 15.0443 13.5737 15.0672C13.6425 15.1032 13.6785 15.1065 13.757 15.0705C13.8782 15.0214 13.9109 14.8904 13.8585 14.6776C13.8389 14.5958 13.8127 14.4943 13.8061 14.4485C13.7963 14.4026 13.7767 14.3371 13.7603 14.3011C13.7472 14.2651 13.7177 14.1702 13.6948 14.0883C13.6719 14.0065 13.6425 13.9116 13.6294 13.8755C13.6163 13.8395 13.5868 13.7446 13.5639 13.6627C13.541 13.5809 13.4984 13.4336 13.4657 13.3354C13.4329 13.2372 13.3904 13.0898 13.3675 13.008C13.3445 12.9262 13.3151 12.8312 13.302 12.7952C13.2758 12.7265 13.2398 12.602 13.171 12.3532C13.1514 12.2714 13.1187 12.1797 13.1023 12.1503C13.0859 12.1175 13.0728 12.0684 13.0728 12.0422C13.0728 12.016 13.0597 11.9669 13.0434 11.9342C13.027 11.9047 12.9812 11.7672 12.9386 11.633C12.7847 11.1125 12.6702 10.7622 12.644 10.7098C12.6276 10.6771 12.6145 10.6214 12.6145 10.5887C12.6145 10.5527 12.6014 10.5134 12.5818 10.5036C12.5654 10.4937 12.549 10.4479 12.549 10.4053C12.549 10.3628 12.5359 10.3202 12.5196 10.3104C12.5032 10.3006 12.4836 10.2449 12.4737 10.186C12.4639 10.1271 12.4443 10.0354 12.4312 9.98303C12.3919 9.81934 12.4836 9.5378 12.6211 9.4003C12.7356 9.28572 12.7586 9.2759 12.9386 9.2759C13.0794 9.2759 13.1678 9.29554 13.2496 9.34465ZM18.2944 19.693C18.3042 19.7356 18.3271 19.8273 18.3467 19.8993C18.3664 19.9713 18.3958 20.0564 18.4122 20.0859C18.4286 20.1186 18.4417 20.1743 18.4417 20.207C18.4417 20.243 18.458 20.2823 18.4744 20.2921C18.4941 20.302 18.5071 20.3478 18.5071 20.3903C18.5071 20.4329 18.5235 20.4787 18.5399 20.4886C18.5595 20.4984 18.5726 20.5442 18.5726 20.5868C18.5726 20.6293 18.589 20.6752 18.6054 20.685C18.625 20.6948 18.6381 20.7406 18.6381 20.7832C18.6381 20.8258 18.6545 20.8716 18.6708 20.8814C18.6905 20.8912 18.7036 20.9371 18.7036 20.9796C18.7036 21.0222 18.7199 21.068 18.7363 21.0778C18.8018 21.1171 18.769 21.2775 18.6807 21.3594C18.5759 21.4543 18.4875 21.4969 18.278 21.5525C18.1961 21.5722 18.1045 21.6049 18.075 21.6213C18.0423 21.6377 17.9866 21.6507 17.9506 21.6507C17.9146 21.6507 17.859 21.6638 17.8262 21.6802C17.7738 21.7064 17.7116 21.726 17.3941 21.8144C17.3123 21.8374 17.214 21.8668 17.1715 21.8832C17.1289 21.8996 17.0667 21.9126 17.0307 21.9126C16.998 21.9126 16.9423 21.9257 16.9096 21.9421C16.8572 21.9683 16.795 21.9879 16.4775 22.0763C16.3956 22.0993 16.2974 22.1287 16.2549 22.1451C16.2123 22.1615 16.1435 22.1746 16.101 22.1746C16.0584 22.1746 16.0159 22.1876 16.0061 22.204C15.9962 22.2204 15.9406 22.24 15.8817 22.2498C15.8227 22.2597 15.7147 22.2826 15.6427 22.3055C15.5707 22.3251 15.4528 22.3579 15.3808 22.3743C15.2204 22.4135 15.0501 22.4561 14.8668 22.5052C14.7882 22.5248 14.6377 22.5478 14.5263 22.5576C14.2055 22.5805 14.0648 22.4692 13.96 22.1091C13.9371 22.0272 13.9043 21.9257 13.8913 21.8799C13.8683 21.8013 13.8389 21.6966 13.757 21.379C13.7374 21.3037 13.7079 21.2088 13.6916 21.1662C13.6752 21.1237 13.6621 21.0549 13.6621 21.0124C13.6621 20.9698 13.649 20.924 13.6294 20.9141C13.5835 20.8847 13.5868 20.7341 13.6359 20.7341C13.6752 20.7341 13.852 20.7865 13.9731 20.8356C14.1171 20.8912 14.3594 20.9109 14.9225 20.9109C15.4921 20.9109 15.7474 20.8912 15.9209 20.8323C15.9668 20.8192 16.0912 20.7865 16.1992 20.7636C16.3072 20.7406 16.4087 20.7112 16.4251 20.6948C16.4447 20.6817 16.4906 20.6686 16.5298 20.6686C16.5724 20.6686 16.615 20.6522 16.6248 20.6359C16.6346 20.6162 16.6706 20.6031 16.7033 20.6031C16.7786 20.6031 17.3286 20.3216 17.5447 20.1743C17.7607 20.0237 17.9637 19.86 18.0914 19.729C18.2158 19.6046 18.2682 19.5948 18.2944 19.693Z" fill="black"/>
<path d="M12.5654 8.89614C12.477 8.9387 12.3493 9.02382 12.2871 9.08602C12.1824 9.19078 12.1497 9.23989 12.058 9.44613C12.0416 9.48869 12.022 9.65893 12.0187 9.82917L12.0089 10.1369L11.7568 10.1304C11.2134 10.114 10.8762 10.3759 10.7518 10.9128C10.719 11.0568 10.7256 11.1125 10.8369 11.6756C10.8467 11.7247 10.8664 11.7738 10.8827 11.7836C10.8991 11.7934 10.9122 11.8327 10.9122 11.8753C10.9122 11.9146 10.9253 11.9604 10.9417 11.9768C10.958 11.9964 10.9777 12.0619 10.9908 12.1274L11.0104 12.2452L10.7518 12.2681C10.2771 12.3074 9.98574 12.5464 9.83515 13.0113C9.78932 13.1586 9.78932 13.3386 9.83515 13.5122C9.95628 13.9705 9.99229 14.1047 10.0283 14.2029C10.0414 14.2389 10.0872 14.3797 10.1265 14.5139C10.1691 14.6482 10.2313 14.8544 10.2673 14.9723C10.3 15.0901 10.3426 15.2112 10.3589 15.2407C10.3753 15.2734 10.3884 15.3226 10.3884 15.3487C10.3884 15.3749 10.4015 15.424 10.4179 15.4568C10.4342 15.4862 10.467 15.5779 10.4866 15.6597C10.5095 15.7416 10.539 15.8365 10.5521 15.8725C10.5652 15.9086 10.5946 16.0035 10.6176 16.0853C10.6372 16.1672 10.6699 16.2588 10.6863 16.2883C10.7027 16.3211 10.7158 16.3702 10.7158 16.3963C10.7158 16.4225 10.7289 16.4716 10.7452 16.5044C10.7616 16.5338 10.8074 16.6713 10.8467 16.8056C10.886 16.9398 10.9318 17.0806 10.9449 17.1166C10.958 17.1526 10.9875 17.2475 11.0104 17.3294C11.0301 17.4112 11.0628 17.5029 11.0792 17.5323C11.0955 17.5651 11.1086 17.6207 11.1086 17.6535C11.1086 17.6895 11.125 17.7288 11.1414 17.7386C11.161 17.7484 11.1741 17.7942 11.1741 17.8368C11.1741 17.8794 11.1905 17.9252 11.2068 17.935C11.2265 17.9448 11.2396 17.9907 11.2396 18.0332C11.2396 18.0758 11.2527 18.1216 11.2723 18.1314C11.2887 18.1413 11.305 18.1773 11.305 18.2133C11.305 18.246 11.3345 18.3279 11.3672 18.3999C11.4033 18.4686 11.4753 18.6127 11.5277 18.7207C11.7143 19.1005 11.8648 19.3395 12.1038 19.6374C12.2511 19.8174 12.6309 20.2103 12.6603 20.2103C12.6702 20.2103 12.7651 20.2758 12.8666 20.3543C13.027 20.4755 13.063 20.5213 13.099 20.6555C13.1252 20.7439 13.1579 20.8487 13.1743 20.8912C13.1907 20.9338 13.2038 21.0025 13.2038 21.0451C13.2038 21.0877 13.2169 21.1302 13.2332 21.14C13.2496 21.1499 13.2693 21.2055 13.2791 21.2644C13.2889 21.3234 13.3118 21.4281 13.3315 21.4936C13.4689 21.965 13.5017 22.0796 13.5181 22.1746C13.5377 22.2695 13.577 22.3644 13.6785 22.5674C13.7603 22.7311 14.0091 22.9406 14.1662 22.9766C14.3201 23.0126 14.6442 23.0061 14.8013 22.9635C15.0207 22.9046 15.1778 22.8653 15.2826 22.8457C15.3382 22.8326 15.4102 22.8129 15.4463 22.7966C15.4823 22.7802 15.5477 22.7606 15.5936 22.7507C15.6394 22.7442 15.7343 22.718 15.8064 22.6984C15.8784 22.6787 15.9897 22.6492 16.0519 22.6329C16.1599 22.6067 16.2843 22.5707 16.52 22.5052C16.5757 22.4856 16.6837 22.4561 16.7557 22.4365C16.8277 22.4168 16.9391 22.3841 17.0013 22.3677C17.0635 22.3481 17.1649 22.3251 17.2239 22.3153C17.2828 22.3055 17.3384 22.2859 17.3483 22.2695C17.3581 22.2531 17.3974 22.24 17.4334 22.24C17.4989 22.24 17.6265 22.204 17.8033 22.1418C17.9703 22.0829 18.1078 22.0436 18.1569 22.0436C18.1896 22.0436 18.2387 22.0305 18.2714 22.0141C18.3009 21.9978 18.4417 21.9487 18.5824 21.9061C18.7887 21.8472 18.8705 21.8013 18.9917 21.6835C19.2372 21.4478 19.2699 21.2513 19.1291 20.8814C19.1161 20.8454 19.0702 20.7046 19.0309 20.5704C18.9917 20.4362 18.9458 20.2987 18.9295 20.2692C18.9131 20.2365 18.9 20.1874 18.9 20.1612C18.9 20.135 18.8869 20.0859 18.8705 20.0531C18.8542 20.0237 18.8214 19.932 18.7985 19.8502C18.7789 19.7683 18.7232 19.5883 18.6774 19.4475C18.6021 19.2118 18.5988 19.1889 18.6512 19.1365C18.6807 19.1038 18.7036 19.0612 18.7036 19.0416C18.7036 19.0219 18.7265 18.9892 18.7527 18.9663C18.8673 18.8713 19.2274 18.0561 19.2274 17.8925C19.2274 17.8564 19.2405 17.8172 19.2568 17.8073C19.2732 17.7975 19.2928 17.732 19.3059 17.6666C19.3157 17.5978 19.3387 17.4472 19.3583 17.3294C19.391 17.1231 19.4205 16.8874 19.4893 16.2981C19.522 16.0297 19.5613 15.6925 19.6202 15.2178C19.6922 14.6318 19.7806 14.0425 19.8821 13.4729C19.941 13.1586 19.9574 12.7756 19.9181 12.7363C19.8985 12.7166 19.8821 12.6741 19.8821 12.6446C19.8821 12.566 19.6006 12.2649 19.4663 12.2026C19.3256 12.1339 18.8411 12.1274 18.7101 12.1896C18.661 12.2125 18.5857 12.2485 18.5432 12.2681C18.4122 12.3271 18.1503 12.5791 18.0947 12.7003C18.0652 12.7625 18.0292 12.8116 18.0128 12.8116C17.9965 12.8116 17.9834 12.8345 17.9834 12.8607C17.9834 12.8869 17.9703 12.9392 17.9506 12.9753C17.9343 13.0113 17.9048 13.0702 17.8851 13.1062C17.8688 13.1422 17.8524 13.2011 17.8524 13.2339C17.8524 13.2699 17.8393 13.3092 17.8197 13.319C17.8033 13.3288 17.7869 13.3714 17.7869 13.4074C17.7869 13.4827 17.7313 13.6726 17.6855 13.7675C17.6691 13.8002 17.656 13.8494 17.656 13.8821C17.656 13.9116 17.6265 14.0261 17.5905 14.1342C17.4727 14.4877 17.4596 14.5336 17.4596 14.6056C17.4596 14.6416 17.4465 14.6842 17.4268 14.694C17.4105 14.7038 17.3941 14.7496 17.3941 14.7955C17.3941 14.8904 17.3417 15.005 17.2959 15.005C17.2762 15.005 17.2631 14.9755 17.2631 14.9428C17.2631 14.9068 17.2501 14.8675 17.2304 14.8577C17.214 14.8479 17.1977 14.802 17.1977 14.7562C17.1977 14.7136 17.1846 14.6514 17.1682 14.6187C17.1518 14.5892 17.1191 14.4976 17.0995 14.4157C17.0307 14.1669 16.9947 14.0425 16.9685 13.9738C16.9554 13.9377 16.926 13.8428 16.903 13.761C16.8277 13.4991 16.795 13.3845 16.7721 13.319C16.7426 13.2339 16.6313 12.8705 16.5757 12.6806C16.5528 12.5988 16.5233 12.5038 16.5102 12.4678C16.4971 12.4318 16.4676 12.3369 16.4447 12.255C16.3694 11.9931 16.3367 11.8785 16.3138 11.8131C16.2843 11.728 16.173 11.3646 16.1174 11.1747C16.0944 11.0928 16.065 10.9979 16.0519 10.9619C16.0224 10.8833 15.9144 10.5265 15.8555 10.3235C15.6787 9.68512 15.3906 9.40685 14.9126 9.40685C14.7817 9.40685 14.6344 9.42977 14.5656 9.45596C14.3987 9.5247 14.2088 9.70804 14.1531 9.84553C14.0811 10.0321 14.0746 10.0223 13.9207 9.54107C13.8323 9.26608 13.6359 9.01727 13.4395 8.92888C13.3707 8.89941 13.2922 8.8634 13.2627 8.84703C13.1481 8.78811 12.7389 8.81757 12.5654 8.89614ZM13.2496 9.34465C13.3838 9.42322 13.5311 9.69821 13.6294 10.0616C13.6523 10.1434 13.6817 10.2384 13.6948 10.2744C13.7669 10.4676 13.8585 10.7818 13.8585 10.8408C13.8585 10.88 13.8749 10.9193 13.8913 10.9292C13.9109 10.939 13.924 10.9783 13.924 11.0143C13.924 11.047 13.9371 11.1027 13.9535 11.1354C13.9698 11.1649 14.0026 11.2565 14.0222 11.3384C14.0909 11.5806 14.127 11.7116 14.1531 11.7803C14.1761 11.8458 14.2121 11.9604 14.2841 12.2223C14.307 12.3041 14.3365 12.3991 14.3496 12.4351C14.4052 12.589 14.4478 12.7395 14.4478 12.7887C14.4478 12.8214 14.4609 12.8705 14.4772 12.9032C14.5198 12.9884 14.5787 13.1848 14.5787 13.247C14.5787 13.2797 14.5918 13.3288 14.6082 13.3616C14.6344 13.4139 14.6507 13.463 14.7424 13.7937C14.7653 13.8755 14.7948 13.977 14.8079 14.0229C14.821 14.0687 14.8504 14.1702 14.8734 14.252C14.893 14.3339 14.9257 14.4255 14.9421 14.455C14.9585 14.4877 14.9716 14.5303 14.9716 14.5532C14.9716 14.7104 15.2597 14.7693 15.3513 14.6285C15.4037 14.5467 15.3971 14.3175 15.3349 14.1211C15.3022 14.0261 15.2597 13.869 15.2007 13.6627C15.1811 13.5809 15.1483 13.4892 15.132 13.4598C15.1156 13.427 15.1025 13.3779 15.1025 13.3452C15.1025 13.283 15.0436 13.0866 15.001 13.0014C14.9847 12.9687 14.9716 12.9065 14.9716 12.864C14.9716 12.8181 14.9585 12.7723 14.9388 12.7625C14.9225 12.7526 14.9061 12.7068 14.9061 12.661C14.9061 12.6184 14.893 12.5562 14.8766 12.5235C14.8603 12.494 14.8275 12.4023 14.8079 12.3205C14.7228 12.0095 14.6999 11.9407 14.6737 11.8884C14.6573 11.8556 14.6442 11.7934 14.6442 11.7509C14.6442 11.705 14.6311 11.6592 14.6115 11.6494C14.5951 11.6396 14.5787 11.5937 14.5787 11.5479C14.5787 11.5053 14.5656 11.4431 14.5493 11.4104C14.5329 11.3809 14.5002 11.2893 14.4805 11.2074C14.4576 11.1256 14.4281 11.0306 14.415 10.9946C14.3299 10.7884 14.3005 10.4414 14.3528 10.2777C14.4445 9.98631 14.6016 9.86518 14.8865 9.86518C15.0272 9.86518 15.0698 9.88155 15.1582 9.96339C15.2564 10.0551 15.4299 10.3726 15.4299 10.461C15.4299 10.497 15.479 10.664 15.5281 10.7982C15.5412 10.8342 15.5707 10.9292 15.5936 11.011C15.6132 11.0928 15.6459 11.1845 15.6623 11.214C15.6787 11.2467 15.6918 11.3089 15.6918 11.3515C15.6918 11.3973 15.7081 11.4431 15.7245 11.453C15.7442 11.4628 15.7573 11.5021 15.7573 11.5381C15.7573 11.5708 15.7703 11.6265 15.7867 11.6592C15.8129 11.7116 15.8358 11.7803 15.9209 12.0913C15.9406 12.1732 15.9733 12.2649 15.9897 12.2943C16.0061 12.3271 16.0191 12.3762 16.0191 12.4023C16.0191 12.4285 16.0322 12.4776 16.0486 12.5104C16.0748 12.5628 16.0912 12.6119 16.1828 12.9425C16.2057 13.0244 16.2352 13.1193 16.2483 13.1553C16.3203 13.3485 16.412 13.6627 16.412 13.7217C16.412 13.761 16.4284 13.8002 16.4447 13.8101C16.4644 13.8199 16.4775 13.8592 16.4775 13.8952C16.4775 13.9279 16.4906 13.9836 16.5069 14.0163C16.5331 14.0687 16.556 14.1374 16.6411 14.4485C16.6608 14.5303 16.6935 14.622 16.7099 14.6514C16.7263 14.6842 16.7394 14.7398 16.7394 14.7726C16.7394 14.8086 16.7557 14.8479 16.7721 14.8577C16.7917 14.8675 16.8048 14.9133 16.8048 14.9559C16.8048 14.9984 16.8212 15.0443 16.8376 15.0541C16.8572 15.0639 16.8703 15.1065 16.8703 15.149C16.8703 15.2047 16.8343 15.2407 16.7132 15.2931C16.6248 15.3324 16.5462 15.3651 16.5331 15.3651C16.5233 15.3651 16.4447 15.4142 16.3596 15.4699C16.2778 15.5288 16.1861 15.591 16.1534 15.6106C16.0126 15.6958 15.6394 16.1148 15.5412 16.2981C15.5215 16.3341 15.4888 16.3931 15.4692 16.4291C15.3873 16.5731 15.2989 16.7892 15.2989 16.8416C15.2989 16.8743 15.2858 16.9071 15.2695 16.9169C15.2269 16.9431 15.2007 17.1559 15.1811 17.5847C15.1614 17.9383 15.1647 17.9612 15.2367 18.0365C15.3153 18.1216 15.4659 18.1413 15.5215 18.0725C15.5379 18.0529 15.5608 17.9088 15.5739 17.755C15.6034 17.3326 15.6689 17.0216 15.7736 16.7892C15.8718 16.5797 16.1174 16.2228 16.2352 16.1246C16.52 15.8856 16.9489 15.627 17.0536 15.627C17.0798 15.627 17.1257 15.6139 17.1584 15.5975C17.1879 15.5812 17.273 15.5517 17.345 15.5288C17.6494 15.4371 17.6625 15.424 17.7542 15.1196C17.7771 15.0476 17.8066 14.9592 17.8197 14.9232C17.8819 14.7464 17.9179 14.6187 17.9179 14.5532C17.9179 14.5172 17.9343 14.4746 17.9506 14.4648C17.9703 14.455 17.9834 14.4124 17.9834 14.3764C17.9834 14.311 18.0194 14.1833 18.0816 14.0065C18.1405 13.8395 18.1798 13.702 18.1798 13.6529C18.1798 13.6202 18.1929 13.5711 18.2092 13.5383C18.2256 13.5089 18.2583 13.4172 18.2813 13.3354C18.3631 13.0538 18.5039 12.841 18.6937 12.7101C18.8149 12.625 18.8673 12.6086 19.044 12.6086C19.4762 12.6053 19.5515 12.7952 19.4238 13.5482C19.3256 14.1342 19.1684 15.2734 19.0997 15.9053C18.9655 17.1133 18.9393 17.3032 18.8378 17.7059C18.8181 17.7779 18.7952 17.8761 18.7821 17.9285C18.7723 17.9776 18.7494 18.0267 18.733 18.0365C18.7167 18.0463 18.7036 18.0758 18.7036 18.102C18.7036 18.2035 18.4155 18.7142 18.206 18.9859C18.1503 19.0612 17.62 19.5915 17.5447 19.6472C17.4137 19.752 17.0078 20.0073 16.8965 20.0564C16.4971 20.2365 16.4022 20.2725 16.0355 20.3674C15.4528 20.518 14.8734 20.5344 14.0942 20.4198C14.0189 20.41 13.9469 20.3871 13.9371 20.3707C13.9273 20.3543 13.888 20.3412 13.8454 20.3412C13.8061 20.3412 13.7603 20.3281 13.7407 20.3151C13.7243 20.302 13.6523 20.2692 13.5803 20.2463C13.4395 20.1972 13.0303 19.9582 13.0139 19.9124C13.0074 19.896 12.9844 19.8829 12.9615 19.8829C12.8961 19.8829 12.2217 19.1561 12.2217 19.0841C12.2217 19.0743 12.1857 19.0121 12.1398 18.9466C12.0253 18.7797 11.7175 18.1282 11.6651 17.9514C11.6422 17.8695 11.6128 17.7746 11.5997 17.7386C11.5866 17.7026 11.5571 17.6076 11.5342 17.5258C11.5146 17.444 11.4818 17.3523 11.4655 17.3228C11.4491 17.2901 11.436 17.241 11.436 17.2148C11.436 17.1886 11.4229 17.1395 11.4065 17.1068C11.3771 17.0511 11.2854 16.7565 11.2068 16.4782C11.1872 16.3963 11.1545 16.3047 11.1381 16.2752C11.1217 16.2425 11.1086 16.1934 11.1086 16.1672C11.1086 16.141 11.0955 16.0919 11.0792 16.0591C11.0628 16.0297 11.0333 15.938 11.0104 15.8562C10.9875 15.7743 10.958 15.6827 10.9417 15.6532C10.9253 15.6205 10.9122 15.5583 10.9122 15.5157C10.9122 15.4699 10.8991 15.424 10.8795 15.4142C10.8631 15.4044 10.8467 15.3586 10.8467 15.316C10.8467 15.2734 10.8336 15.2276 10.814 15.2178C10.7976 15.208 10.7812 15.1687 10.7812 15.1327C10.7812 15.0999 10.7682 15.0443 10.7518 15.0115C10.7354 14.9821 10.7027 14.8904 10.683 14.8086C10.6601 14.7267 10.6307 14.6318 10.6176 14.5958C10.6045 14.5598 10.575 14.4648 10.5521 14.383C10.5324 14.3011 10.4997 14.2095 10.4833 14.18C10.467 14.1473 10.4539 14.0916 10.4539 14.0589C10.4539 14.0229 10.4408 13.9836 10.4211 13.9738C10.4048 13.9639 10.3884 13.9247 10.3884 13.8886C10.3884 13.8559 10.3753 13.8002 10.3589 13.7675C10.3131 13.6791 10.2575 13.4107 10.2575 13.2895C10.2575 12.9753 10.5521 12.6773 10.8598 12.6806C10.9809 12.6839 11.1741 12.7756 11.2068 12.8443C11.2559 12.9458 11.2985 13.0604 11.3378 13.2044C11.3607 13.2863 11.3902 13.3812 11.4033 13.4172C11.4262 13.4827 11.4589 13.5907 11.5342 13.8592C11.5571 13.941 11.5866 14.036 11.5997 14.072C11.6226 14.1374 11.6553 14.2422 11.7306 14.5139C11.7535 14.5958 11.783 14.6973 11.7961 14.7431C11.8092 14.7889 11.8387 14.8904 11.8616 14.9723C11.8845 15.0541 11.9139 15.1523 11.9303 15.1949C11.9467 15.2374 11.9598 15.3062 11.9598 15.3487C11.9598 15.3913 11.9761 15.4371 11.9925 15.447C12.0122 15.4568 12.0253 15.4993 12.0253 15.5386C12.0253 15.5779 12.0547 15.6597 12.0907 15.7154C12.1693 15.8431 12.2708 15.8562 12.4017 15.7547C12.477 15.6925 12.4868 15.6663 12.4705 15.5648C12.4377 15.3356 12.4148 15.2178 12.3854 15.1523C12.369 15.1163 12.3493 15.0508 12.3395 15.005C12.333 14.9592 12.3068 14.8642 12.2871 14.7922C12.2675 14.7202 12.2413 14.6252 12.2348 14.5794C12.2249 14.5336 12.2053 14.4681 12.1922 14.4321C12.166 14.3666 12.13 14.252 12.058 13.9901C12.0383 13.9083 12.0056 13.8166 11.9892 13.7872C11.9729 13.7544 11.9598 13.7053 11.9598 13.6791C11.9598 13.6529 11.9467 13.6038 11.9303 13.5711C11.9139 13.5416 11.8812 13.45 11.8616 13.3681C11.8387 13.2863 11.8092 13.1913 11.7961 13.1553C11.783 13.1193 11.7535 13.0244 11.7306 12.9425C11.711 12.8607 11.6782 12.769 11.6619 12.7395C11.6455 12.7068 11.6324 12.6512 11.6324 12.6184C11.6324 12.5824 11.6193 12.5431 11.5997 12.5333C11.5833 12.5235 11.5669 12.4842 11.5669 12.4482C11.5669 12.4154 11.5538 12.3598 11.5375 12.3271C11.4851 12.2321 11.2658 11.5283 11.2232 11.3253C11.1675 11.0536 11.2232 10.8375 11.3902 10.6902C11.5047 10.592 11.5277 10.5854 11.7601 10.5854C11.9467 10.5854 12.0253 10.6018 12.0776 10.6443C12.1758 10.7262 12.261 10.9292 12.3854 11.3711C12.405 11.453 12.4377 11.5446 12.4541 11.5741C12.4705 11.6068 12.4836 11.6559 12.4836 11.6821C12.4836 11.7083 12.4967 11.7574 12.513 11.7902C12.5392 11.8425 12.5556 11.8916 12.6473 12.2223C12.6702 12.3041 12.6996 12.3991 12.7127 12.4351C12.7258 12.4711 12.7553 12.566 12.7782 12.6479C12.8535 12.9163 12.8862 13.0244 12.9091 13.0898C12.9222 13.1259 12.9517 13.2208 12.9746 13.3026C13.0499 13.5645 13.0827 13.6791 13.1056 13.7446C13.135 13.8297 13.2463 14.1931 13.302 14.383C13.3249 14.4648 13.3544 14.5598 13.3675 14.5958C13.3871 14.6514 13.4428 14.838 13.482 14.9886C13.4853 15.0083 13.5279 15.0443 13.5737 15.0672C13.6425 15.1032 13.6785 15.1065 13.757 15.0705C13.8782 15.0214 13.9109 14.8904 13.8585 14.6776C13.8389 14.5958 13.8127 14.4943 13.8061 14.4485C13.7963 14.4026 13.7767 14.3371 13.7603 14.3011C13.7472 14.2651 13.7177 14.1702 13.6948 14.0883C13.6719 14.0065 13.6425 13.9116 13.6294 13.8755C13.6163 13.8395 13.5868 13.7446 13.5639 13.6627C13.541 13.5809 13.4984 13.4336 13.4657 13.3354C13.4329 13.2372 13.3904 13.0898 13.3675 13.008C13.3445 12.9262 13.3151 12.8312 13.302 12.7952C13.2758 12.7265 13.2398 12.602 13.171 12.3532C13.1514 12.2714 13.1187 12.1797 13.1023 12.1503C13.0859 12.1175 13.0728 12.0684 13.0728 12.0422C13.0728 12.016 13.0597 11.9669 13.0434 11.9342C13.027 11.9047 12.9812 11.7672 12.9386 11.633C12.7847 11.1125 12.6702 10.7622 12.644 10.7098C12.6276 10.6771 12.6145 10.6214 12.6145 10.5887C12.6145 10.5527 12.6014 10.5134 12.5818 10.5036C12.5654 10.4937 12.549 10.4479 12.549 10.4053C12.549 10.3628 12.5359 10.3202 12.5196 10.3104C12.5032 10.3006 12.4836 10.2449 12.4737 10.186C12.4639 10.1271 12.4443 10.0354 12.4312 9.98303C12.3919 9.81934 12.4836 9.5378 12.6211 9.4003C12.7356 9.28572 12.7586 9.2759 12.9386 9.2759C13.0794 9.2759 13.1678 9.29554 13.2496 9.34465ZM18.2944 19.693C18.3042 19.7356 18.3271 19.8273 18.3467 19.8993C18.3664 19.9713 18.3958 20.0564 18.4122 20.0859C18.4286 20.1186 18.4417 20.1743 18.4417 20.207C18.4417 20.243 18.458 20.2823 18.4744 20.2921C18.4941 20.302 18.5071 20.3478 18.5071 20.3903C18.5071 20.4329 18.5235 20.4787 18.5399 20.4886C18.5595 20.4984 18.5726 20.5442 18.5726 20.5868C18.5726 20.6293 18.589 20.6752 18.6054 20.685C18.625 20.6948 18.6381 20.7406 18.6381 20.7832C18.6381 20.8258 18.6545 20.8716 18.6708 20.8814C18.6905 20.8912 18.7036 20.9371 18.7036 20.9796C18.7036 21.0222 18.7199 21.068 18.7363 21.0778C18.8018 21.1171 18.769 21.2775 18.6807 21.3594C18.5759 21.4543 18.4875 21.4969 18.278 21.5525C18.1961 21.5722 18.1045 21.6049 18.075 21.6213C18.0423 21.6377 17.9866 21.6507 17.9506 21.6507C17.9146 21.6507 17.859 21.6638 17.8262 21.6802C17.7738 21.7064 17.7116 21.726 17.3941 21.8144C17.3123 21.8374 17.214 21.8668 17.1715 21.8832C17.1289 21.8996 17.0667 21.9126 17.0307 21.9126C16.998 21.9126 16.9423 21.9257 16.9096 21.9421C16.8572 21.9683 16.795 21.9879 16.4775 22.0763C16.3956 22.0993 16.2974 22.1287 16.2549 22.1451C16.2123 22.1615 16.1435 22.1746 16.101 22.1746C16.0584 22.1746 16.0159 22.1876 16.0061 22.204C15.9962 22.2204 15.9406 22.24 15.8817 22.2498C15.8227 22.2597 15.7147 22.2826 15.6427 22.3055C15.5707 22.3251 15.4528 22.3579 15.3808 22.3743C15.2204 22.4135 15.0501 22.4561 14.8668 22.5052C14.7882 22.5248 14.6377 22.5478 14.5263 22.5576C14.2055 22.5805 14.0648 22.4692 13.96 22.1091C13.9371 22.0272 13.9043 21.9257 13.8913 21.8799C13.8683 21.8013 13.8389 21.6966 13.757 21.379C13.7374 21.3037 13.7079 21.2088 13.6916 21.1662C13.6752 21.1237 13.6621 21.0549 13.6621 21.0124C13.6621 20.9698 13.649 20.924 13.6294 20.9141C13.5835 20.8847 13.5868 20.7341 13.6359 20.7341C13.6752 20.7341 13.852 20.7865 13.9731 20.8356C14.1171 20.8912 14.3594 20.9109 14.9225 20.9109C15.4921 20.9109 15.7474 20.8912 15.9209 20.8323C15.9668 20.8192 16.0912 20.7865 16.1992 20.7636C16.3072 20.7406 16.4087 20.7112 16.4251 20.6948C16.4447 20.6817 16.4906 20.6686 16.5298 20.6686C16.5724 20.6686 16.615 20.6522 16.6248 20.6359C16.6346 20.6162 16.6706 20.6031 16.7033 20.6031C16.7786 20.6031 17.3286 20.3216 17.5447 20.1743C17.7607 20.0237 17.9637 19.86 18.0914 19.729C18.2158 19.6046 18.2682 19.5948 18.2944 19.693Z" stroke="black" stroke-width="0.4" mask="url(#path-5-outside-1_14136_52413)"/>
</g>
<defs>
<clipPath id="clip0_14136_52413">
<rect width="30" height="30" fill="white"/>
</clipPath>
</defs>
</svg>
