<svg width="12" height="12" viewBox="0 0 12 12" fill="none" xmlns="http://www.w3.org/2000/svg">
<path d="M11.9595 11.505V7.24546C11.9595 4.96306 10.7412 3.90107 9.11689 3.90107C7.80613 3.90107 7.21861 4.62215 6.89137 5.12831V4.07566H4.42177C4.45453 4.77298 4.42177 11.505 4.42177 11.505H6.89137V7.35598C6.89137 7.13458 6.90721 6.91246 6.97273 6.75406C7.15093 6.31018 7.55737 5.85083 8.23921 5.85083C9.13309 5.85083 9.49021 6.53195 9.49021 7.53059V11.5053L11.9595 11.505ZM1.82005 3.06154C2.68081 3.06154 3.21757 2.49058 3.21757 1.77742C3.20173 1.04878 2.68117 0.494385 1.83661 0.494385C0.992053 0.494385 0.439453 1.04842 0.439453 1.77742C0.439453 2.49058 0.975493 3.06154 1.80457 3.06154H1.82005ZM3.05485 11.505V4.07566H0.585613V11.505H3.05485Z" fill="#14171A"/>
</svg>
