<svg width="13" height="12" viewBox="0 0 13 12" fill="none" xmlns="http://www.w3.org/2000/svg">
<path d="M6.40063 1.28097C7.92737 1.28097 8.13557 1.28097 8.76014 1.28097C9.31532 1.28097 9.59291 1.41976 9.80111 1.48916C10.0787 1.62796 10.2869 1.69736 10.4951 1.90555C10.7033 2.11374 10.8421 2.32193 10.9115 2.59952C10.9809 2.80772 11.0503 3.08531 11.1197 3.64049C11.1197 4.26507 11.1197 4.40386 11.1197 6.00001C11.1197 7.59615 11.1197 7.73495 11.1197 8.35952C11.1197 8.91471 10.9809 9.1923 10.9115 9.40049C10.7727 9.67808 10.7033 9.88627 10.4951 10.0945C10.2869 10.3027 10.0787 10.4415 9.80111 10.5108C9.59291 10.5802 9.31532 10.6496 8.76014 10.719C8.13557 10.719 7.99677 10.719 6.40063 10.719C4.80448 10.719 4.66569 10.719 4.04111 10.719C3.48593 10.719 3.20834 10.5802 3.00014 10.5108C2.72255 10.3721 2.51436 10.3027 2.30617 10.0945C2.09798 9.88627 1.95918 9.67808 1.88978 9.40049C1.82038 9.1923 1.75099 8.91471 1.68159 8.35952C1.68159 7.73495 1.68159 7.59615 1.68159 6.00001C1.68159 4.40386 1.68159 4.26507 1.68159 3.64049C1.68159 3.08531 1.82038 2.80772 1.88978 2.59952C2.02858 2.32193 2.09798 2.11374 2.30617 1.90555C2.51436 1.69736 2.72255 1.55856 3.00014 1.48916C3.20834 1.41976 3.48593 1.35037 4.04111 1.28097C4.66569 1.28097 4.87388 1.28097 6.40063 1.28097ZM6.40063 0.240005C4.80448 0.240005 4.66569 0.240005 4.04111 0.240005C3.41653 0.240005 3.00014 0.378801 2.65316 0.517596C2.30617 0.656391 1.95918 0.864584 1.61219 1.21157C1.2652 1.55856 1.12641 1.83615 0.918216 2.25254C0.779421 2.59952 0.710023 3.01591 0.640625 3.64049C0.640625 4.26507 0.640625 4.47326 0.640625 6.00001C0.640625 7.59615 0.640625 7.73495 0.640625 8.35952C0.640625 8.9841 0.779421 9.40049 0.918216 9.74748C1.05701 10.0945 1.2652 10.4415 1.61219 10.7884C1.95918 11.1354 2.23677 11.2742 2.65316 11.4824C3.00014 11.6212 3.41653 11.6906 4.04111 11.76C4.66569 11.76 4.87388 11.76 6.40063 11.76C7.92737 11.76 8.13557 11.76 8.76014 11.76C9.38472 11.76 9.80111 11.6212 10.1481 11.4824C10.4951 11.3436 10.8421 11.1354 11.1891 10.7884C11.536 10.4415 11.6748 10.1639 11.883 9.74748C12.0218 9.40049 12.0912 8.9841 12.1606 8.35952C12.1606 7.73495 12.1606 7.52675 12.1606 6.00001C12.1606 4.47326 12.1606 4.26507 12.1606 3.64049C12.1606 3.01591 12.0218 2.59952 11.883 2.25254C11.7442 1.90555 11.536 1.55856 11.1891 1.21157C10.8421 0.864584 10.5645 0.725789 10.1481 0.517596C9.80111 0.378801 9.38472 0.309403 8.76014 0.240005C8.13557 0.240005 7.99677 0.240005 6.40063 0.240005Z" fill="#14171A"/>
<path d="M6.40063 3.01591C4.73508 3.01591 3.41653 4.33446 3.41653 6.00001C3.41653 7.66555 4.73508 8.9841 6.40063 8.9841C8.06617 8.9841 9.38472 7.66555 9.38472 6.00001C9.38472 4.33446 8.06617 3.01591 6.40063 3.01591ZM6.40063 7.94314C5.35966 7.94314 4.45749 7.11037 4.45749 6.00001C4.45749 4.95904 5.29026 4.05687 6.40063 4.05687C7.44159 4.05687 8.34376 4.88964 8.34376 6.00001C8.34376 7.04097 7.44159 7.94314 6.40063 7.94314Z" fill="#14171A"/>
<path d="M9.45412 3.64049C9.83739 3.64049 10.1481 3.32978 10.1481 2.94651C10.1481 2.56324 9.83739 2.25254 9.45412 2.25254C9.07085 2.25254 8.76014 2.56324 8.76014 2.94651C8.76014 3.32978 9.07085 3.64049 9.45412 3.64049Z" fill="#14171A"/>
</svg>
