<svg width="12" height="12" viewBox="0 0 12 12" fill="none" xmlns="http://www.w3.org/2000/svg">
<path d="M5.51656 1.69154C6.97554 1.69154 7.17449 1.69154 7.77135 1.69154C8.30189 1.69154 8.56716 1.82417 8.76611 1.89049C9.03138 2.02313 9.23033 2.08944 9.42929 2.2884C9.62824 2.48735 9.76087 2.6863 9.82719 2.95157C9.89351 3.15052 9.95982 3.41579 10.0261 3.94633C10.0261 4.54319 10.0261 4.67582 10.0261 6.20113C10.0261 7.72643 10.0261 7.85906 10.0261 8.45592C10.0261 8.98646 9.89351 9.25173 9.82719 9.45068C9.69456 9.71595 9.62824 9.9149 9.42929 10.1139C9.23033 10.3128 9.03138 10.4454 8.76611 10.5118C8.56716 10.5781 8.30189 10.6444 7.77135 10.7107C7.17449 10.7107 7.04186 10.7107 5.51656 10.7107C3.99125 10.7107 3.85862 10.7107 3.26176 10.7107C2.73122 10.7107 2.46595 10.5781 2.267 10.5118C2.00173 10.3791 1.80278 10.3128 1.60383 10.1139C1.40487 9.9149 1.27224 9.71595 1.20592 9.45068C1.1396 9.25173 1.07329 8.98646 1.00697 8.45592C1.00697 7.85906 1.00697 7.72643 1.00697 6.20113C1.00697 4.67582 1.00697 4.54319 1.00697 3.94633C1.00697 3.41579 1.1396 3.15052 1.20592 2.95157C1.33856 2.6863 1.40487 2.48735 1.60383 2.2884C1.80278 2.08944 2.00173 1.95681 2.267 1.89049C2.46595 1.82417 2.73122 1.75786 3.26176 1.69154C3.85862 1.69154 4.05757 1.69154 5.51656 1.69154ZM5.51656 0.696777C3.99125 0.696777 3.85862 0.696777 3.26176 0.696777C2.66491 0.696777 2.267 0.829413 1.93541 0.962048C1.60383 1.09468 1.27224 1.29363 0.940652 1.62522C0.609064 1.95681 0.47643 2.22208 0.277477 2.61998C0.144842 2.95157 0.0785245 3.34948 0.012207 3.94633C0.012207 4.54319 0.012207 4.74214 0.012207 6.20113C0.012207 7.72643 0.012207 7.85906 0.012207 8.45592C0.012207 9.05278 0.144842 9.45068 0.277477 9.78227C0.410112 10.1139 0.609064 10.4454 0.940652 10.777C1.27224 11.1086 1.53751 11.2413 1.93541 11.4402C2.267 11.5728 2.66491 11.6392 3.26176 11.7055C3.85862 11.7055 4.05757 11.7055 5.51656 11.7055C6.97554 11.7055 7.17449 11.7055 7.77135 11.7055C8.36821 11.7055 8.76611 11.5728 9.0977 11.4402C9.42929 11.3076 9.76087 11.1086 10.0925 10.777C10.424 10.4454 10.5567 10.1802 10.7556 9.78227C10.8883 9.45068 10.9546 9.05278 11.0209 8.45592C11.0209 7.85906 11.0209 7.66011 11.0209 6.20113C11.0209 4.74214 11.0209 4.54319 11.0209 3.94633C11.0209 3.34948 10.8883 2.95157 10.7556 2.61998C10.623 2.2884 10.424 1.95681 10.0925 1.62522C9.76087 1.29363 9.4956 1.161 9.0977 0.962048C8.76611 0.829413 8.36821 0.763095 7.77135 0.696777C7.17449 0.696777 7.04186 0.696777 5.51656 0.696777Z" fill="white"/>
<path d="M5.51656 3.34948C3.92494 3.34948 2.66491 4.60951 2.66491 6.20113C2.66491 7.79274 3.92494 9.05278 5.51656 9.05278C7.10817 9.05278 8.36821 7.79274 8.36821 6.20113C8.36821 4.60951 7.10817 3.34948 5.51656 3.34948ZM5.51656 8.05801C4.52179 8.05801 3.65967 7.26221 3.65967 6.20113C3.65967 5.20636 4.45548 4.34424 5.51656 4.34424C6.51132 4.34424 7.37344 5.14005 7.37344 6.20113C7.37344 7.19589 6.51132 8.05801 5.51656 8.05801Z" fill="white"/>
<path d="M8.43452 3.94633C8.80078 3.94633 9.0977 3.64942 9.0977 3.28316C9.0977 2.9169 8.80078 2.61998 8.43452 2.61998C8.06826 2.61998 7.77135 2.9169 7.77135 3.28316C7.77135 3.64942 8.06826 3.94633 8.43452 3.94633Z" fill="white"/>
</svg>
