<svg width="12" height="12" viewBox="0 0 12 12" fill="none" xmlns="http://www.w3.org/2000/svg">
<path d="M11.7372 11.4618V7.39138C11.7372 5.21028 10.573 4.19542 9.02082 4.19542C7.76823 4.19542 7.20679 4.88449 6.89407 5.36819V4.36227H4.53408C4.56539 5.02864 4.53408 11.4618 4.53408 11.4618H6.89407V7.497C6.89407 7.28542 6.90921 7.07316 6.97182 6.92179C7.14211 6.49761 7.53051 6.05864 8.18209 6.05864C9.0363 6.05864 9.37757 6.70953 9.37757 7.66385V11.4622L11.7372 11.4618ZM2.04784 3.39316C2.87039 3.39316 3.38333 2.84754 3.38333 2.16603C3.36819 1.46973 2.87074 0.939941 2.06366 0.939941C1.25659 0.939941 0.728516 1.46939 0.728516 2.16603C0.728516 2.84754 1.24076 3.39316 2.03305 3.39316H2.04784ZM3.22783 11.4618V4.36227H0.868188V11.4618H3.22783Z" fill="white"/>
</svg>
