<svg width="30" height="30" viewBox="0 0 30 30" fill="none" xmlns="http://www.w3.org/2000/svg">
<path d="M3.17578 0.248047H26.8242C28.4409 0.248288 29.7517 1.55911 29.752 3.17578V26.8242C29.7517 28.4409 28.4409 29.7517 26.8242 29.752H3.17578C1.55911 29.7517 0.248287 28.4409 0.248047 26.8242V3.17578L0.251953 3.02539C0.327915 1.52841 1.52841 0.327915 3.02539 0.251953L3.17578 0.248047Z" fill="white"/>
<path d="M3.17578 0.248047H26.8242C28.4409 0.248288 29.7517 1.55911 29.752 3.17578V26.8242C29.7517 28.4409 28.4409 29.7517 26.8242 29.752H3.17578C1.55911 29.7517 0.248287 28.4409 0.248047 26.8242V3.17578L0.251953 3.02539C0.327915 1.52841 1.52841 0.327915 3.02539 0.251953L3.17578 0.248047Z" stroke="#D9D9D9" stroke-width="0.496678"/>
<path d="M12.1058 15.6821L14.2764 17.8527L17.8942 12.7879M15 6C12.8156 8.0744 9.90644 9.21215 6.8943 9.17011C6.51114 10.3374 6.31639 11.5583 6.31739 12.7869C6.31739 18.1817 10.0065 22.714 15 24C19.9934 22.715 23.6826 18.1826 23.6826 12.7879C23.6826 11.5241 23.48 10.3075 23.1057 9.16915H22.959C19.8757 9.16915 17.0742 7.96516 15 6Z" stroke="black" stroke-linecap="round" stroke-linejoin="round"/>
</svg>
