<svg width="16" height="12" viewBox="0 0 16 12" fill="none" xmlns="http://www.w3.org/2000/svg">
<path d="M14.9888 2.36774C14.7996 1.6797 14.3265 1.18824 13.6643 0.991653C12.529 0.696778 7.70409 0.696777 7.70409 0.696777C7.70409 0.696777 2.9738 0.696778 1.74393 0.991653C1.08168 1.18824 0.608646 1.6797 0.419434 2.36774C0.230222 3.64554 0.230225 6.20113 0.230225 6.20113C0.230225 6.20113 0.230227 8.75671 0.514045 10.0345C0.703257 10.7226 1.17628 11.214 1.83852 11.4106C2.9738 11.7055 7.7987 11.7055 7.7987 11.7055C7.7987 11.7055 12.529 11.7055 13.7589 11.4106C14.4211 11.214 14.8942 10.7226 15.0834 10.0345C15.3672 8.75671 15.3672 6.20113 15.3672 6.20113C15.3672 6.20113 15.3672 3.64554 14.9888 2.36774ZM6.285 8.56013V3.84212L10.2585 6.20113L6.285 8.56013Z" fill="white"/>
</svg>
