<svg width="17" height="12" viewBox="0 0 17 12" fill="none" xmlns="http://www.w3.org/2000/svg">
<path d="M16.1237 1.98858C15.9257 1.26858 15.4307 0.754291 14.7377 0.548577C13.5497 0.240006 8.50068 0.240005 8.50068 0.240005C8.50068 0.240005 3.55069 0.240006 2.26369 0.548577C1.57069 0.754291 1.07568 1.26858 0.877684 1.98858C0.679684 3.32572 0.679688 6.00001 0.679688 6.00001C0.679688 6.00001 0.679691 8.67429 0.976691 10.0114C1.17469 10.7314 1.66968 11.2457 2.36268 11.4514C3.55068 11.76 8.59969 11.76 8.59969 11.76C8.59969 11.76 13.5497 11.76 14.8367 11.4514C15.5297 11.2457 16.0247 10.7314 16.2227 10.0114C16.5197 8.67429 16.5197 6.00001 16.5197 6.00001C16.5197 6.00001 16.5197 3.32572 16.1237 1.98858ZM7.01568 8.46858V3.53143L11.1737 6.00001L7.01568 8.46858Z" fill="#14171A"/>
</svg>
