<svg width="1999" height="496" viewBox="0 0 1999 496" fill="none" xmlns="http://www.w3.org/2000/svg">
<path d="M12.6598 223V55.7273H82.4112C94.9349 55.7273 105.417 57.4969 113.857 61.0362C122.351 64.5755 128.722 69.5305 132.969 75.9013C137.27 82.272 139.421 89.6501 139.421 98.0355C139.421 104.406 138.087 110.096 135.419 115.106C132.751 120.061 129.076 124.172 124.393 127.439C119.71 130.706 114.292 132.993 108.139 134.3V135.933C114.891 136.26 121.126 138.084 126.843 141.406C132.615 144.727 137.243 149.355 140.728 155.29C144.213 161.171 145.955 168.141 145.955 176.2C145.955 185.184 143.668 193.215 139.094 200.294C134.521 207.318 127.905 212.872 119.247 216.956C110.589 220.985 100.08 223 87.7202 223H12.6598ZM53.0895 190.411H78.0824C86.849 190.411 93.3014 188.75 97.4396 185.429C101.632 182.107 103.729 177.479 103.729 171.544C103.729 167.242 102.721 163.54 100.707 160.436C98.692 157.278 95.8333 154.855 92.1307 153.167C88.428 151.424 83.9903 150.553 78.8175 150.553H53.0895V190.411ZM53.0895 124.499H75.4688C79.8793 124.499 83.7997 123.763 87.2301 122.293C90.6605 120.823 93.3286 118.7 95.2344 115.923C97.1946 113.146 98.1747 109.797 98.1747 105.876C98.1747 100.268 96.1873 95.8575 92.2124 92.6449C88.2375 89.4323 82.8741 87.826 76.1222 87.826H53.0895V124.499ZM323.274 139.364C323.274 157.768 319.735 173.368 312.656 186.164C305.578 198.96 295.994 208.679 283.906 215.322C271.873 221.965 258.369 225.287 243.395 225.287C228.366 225.287 214.835 221.938 202.802 215.241C190.768 208.543 181.212 198.824 174.134 186.082C167.109 173.286 163.597 157.714 163.597 139.364C163.597 120.959 167.109 105.359 174.134 92.5632C181.212 79.7673 190.768 70.0478 202.802 63.4048C214.835 56.7618 228.366 53.4403 243.395 53.4403C258.369 53.4403 271.873 56.7618 283.906 63.4048C295.994 70.0478 305.578 79.7673 312.656 92.5632C319.735 105.359 323.274 120.959 323.274 139.364ZM281.946 139.364C281.946 128.473 280.394 119.271 277.29 111.757C274.241 104.243 269.831 98.5528 264.059 94.6868C258.342 90.8208 251.454 88.8878 243.395 88.8878C235.391 88.8878 228.503 90.8208 222.731 94.6868C216.959 98.5528 212.521 104.243 209.418 111.757C206.368 119.271 204.844 128.473 204.844 139.364C204.844 150.254 206.368 159.456 209.418 166.97C212.521 174.484 216.959 180.174 222.731 184.04C228.503 187.906 235.391 189.839 243.395 189.839C251.454 189.839 258.342 187.906 264.059 184.04C269.831 180.174 274.241 174.484 277.29 166.97C280.394 159.456 281.946 150.254 281.946 139.364ZM346.879 223V55.7273H415.977C428.5 55.7273 439.309 57.987 448.402 62.5064C457.55 66.9713 464.601 73.3965 469.556 81.782C474.511 90.1129 476.989 99.9957 476.989 111.43C476.989 123.028 474.457 132.884 469.393 140.997C464.329 149.056 457.141 155.209 447.83 159.456C438.519 163.649 427.493 165.745 414.751 165.745H371.055V133.891H407.237C413.336 133.891 418.427 133.102 422.511 131.523C426.649 129.889 429.78 127.439 431.903 124.172C434.027 120.85 435.089 116.603 435.089 111.43C435.089 106.258 434.027 101.983 431.903 98.6072C429.78 95.1768 426.649 92.6177 422.511 90.9297C418.372 89.1873 413.281 88.3161 407.237 88.3161H387.308V223H346.879ZM441.051 146.551L482.706 223H438.601L397.763 146.551H441.051ZM499.164 223V55.7273H615.797V88.5611H539.593V122.865H609.835V155.781H539.593V190.166H615.797V223H499.164Z" fill="white"/>
<path d="M702.946 223H641.117V55.7273H702.864C719.907 55.7273 734.582 59.076 746.887 65.7734C759.248 72.4164 768.777 81.9998 775.474 94.5234C782.172 106.993 785.52 121.912 785.52 139.282C785.52 156.706 782.172 171.68 775.474 184.204C768.831 196.728 759.329 206.338 746.969 213.036C734.609 219.679 719.934 223 702.946 223ZM681.547 188.533H701.394C710.759 188.533 718.682 186.954 725.162 183.795C731.696 180.583 736.623 175.383 739.945 168.195C743.321 160.953 745.009 151.316 745.009 139.282C745.009 127.248 743.321 117.665 739.945 110.532C736.569 103.344 731.587 98.1716 724.998 95.0135C718.464 91.8009 710.405 90.1946 700.822 90.1946H681.547V188.533ZM809.125 55.7273H859.192L901.664 159.293H903.624L946.096 55.7273H996.163V223H956.795V120.251H955.407L915.222 221.938H890.066L849.881 119.68H848.493V223H809.125V55.7273Z" fill="#C4C4C4"/>
<path d="M24.0945 441V331.5H55.1445C65.1445 331.5 72.9445 334 78.5445 339C84.2445 344 87.0945 350.95 87.0945 359.85C87.0945 364.85 86.0445 369.2 83.9445 372.9C81.8445 376.6 78.8445 379.45 74.9445 381.45C71.1445 383.45 66.5445 384.4 61.1445 384.3V382.05C66.9445 381.95 71.9445 383.05 76.1445 385.35C80.4445 387.65 83.7445 390.95 86.0445 395.25C88.4445 399.55 89.6445 404.65 89.6445 410.55C89.6445 416.75 88.3445 422.15 85.7445 426.75C83.1445 431.35 79.4445 434.9 74.6445 437.4C69.8445 439.8 64.0945 441 57.3945 441H24.0945ZM37.2945 428.85H55.8945C62.1945 428.85 67.1445 427.2 70.7445 423.9C74.4445 420.5 76.2945 415.9 76.2945 410.1C76.2945 404.1 74.4445 399.25 70.7445 395.55C67.1445 391.75 62.1945 389.85 55.8945 389.85H37.2945V428.85ZM37.2945 378.15H54.9945C60.7945 378.15 65.3445 376.6 68.6445 373.5C72.0445 370.4 73.7445 366.2 73.7445 360.9C73.7445 355.6 72.0945 351.4 68.7945 348.3C65.4945 345.2 60.9445 343.65 55.1445 343.65H37.2945V378.15ZM145.086 442.5C138.486 442.5 132.786 441.25 127.986 438.75C123.286 436.25 119.636 432.65 117.036 427.95C114.536 423.15 113.286 417.5 113.286 411V361.5C113.286 354.9 114.536 349.25 117.036 344.55C119.636 339.85 123.286 336.25 127.986 333.75C132.786 331.25 138.486 330 145.086 330C151.686 330 157.336 331.25 162.036 333.75C166.836 336.25 170.486 339.85 172.986 344.55C175.586 349.25 176.886 354.85 176.886 361.35V411C176.886 417.5 175.586 423.15 172.986 427.95C170.486 432.65 166.836 436.25 162.036 438.75C157.336 441.25 151.686 442.5 145.086 442.5ZM145.086 430.35C150.986 430.35 155.486 428.7 158.586 425.4C161.786 422 163.386 417.2 163.386 411V361.5C163.386 355.3 161.786 350.55 158.586 347.25C155.486 343.85 150.986 342.15 145.086 342.15C139.286 342.15 134.786 343.85 131.586 347.25C128.386 350.55 126.786 355.3 126.786 361.5V411C126.786 417.2 128.386 422 131.586 425.4C134.786 428.7 139.286 430.35 145.086 430.35ZM203.827 441V331.5H237.727C244.227 331.5 249.927 332.85 254.827 335.55C259.727 338.15 263.527 341.8 266.227 346.5C268.927 351.2 270.277 356.7 270.277 363C270.277 370.4 268.327 376.75 264.427 382.05C260.627 387.35 255.427 391 248.827 393L271.777 441H255.877L234.877 394.5H217.327V441H203.827ZM217.327 382.35H237.727C243.327 382.35 247.827 380.6 251.227 377.1C254.627 373.5 256.327 368.8 256.327 363C256.327 357.1 254.627 352.4 251.227 348.9C247.827 345.4 243.327 343.65 237.727 343.65H217.327V382.35ZM295.719 441V428.7H318.069V343.8H295.719V331.5H354.219V343.8H331.869V428.7H354.219V441H295.719ZM383.41 441V331.5H401.41L434.86 425.25C434.66 422.75 434.41 419.7 434.11 416.1C433.91 412.4 433.71 408.55 433.51 404.55C433.41 400.45 433.36 396.6 433.36 393V331.5H446.41V441H428.41L395.11 347.25C395.31 349.65 395.51 352.7 395.71 356.4C395.91 360 396.06 363.85 396.16 367.95C396.36 371.95 396.46 375.8 396.46 379.5V441H383.41ZM505.452 442.5C498.852 442.5 493.102 441.25 488.202 438.75C483.402 436.25 479.652 432.65 476.952 427.95C474.352 423.15 473.052 417.5 473.052 411V361.5C473.052 354.9 474.352 349.25 476.952 344.55C479.652 339.85 483.402 336.25 488.202 333.75C493.102 331.25 498.852 330 505.452 330C512.052 330 517.752 331.3 522.552 333.9C527.352 336.4 531.052 340 533.652 344.7C536.252 349.4 537.552 355 537.552 361.5H524.052C524.052 355.3 522.402 350.55 519.102 347.25C515.902 343.85 511.352 342.15 505.452 342.15C499.552 342.15 494.902 343.8 491.502 347.1C488.202 350.4 486.552 355.15 486.552 361.35V411C486.552 417.2 488.202 422 491.502 425.4C494.902 428.8 499.552 430.5 505.452 430.5C511.352 430.5 515.902 428.8 519.102 425.4C522.402 422 524.052 417.2 524.052 411V397.5H501.852V385.2H537.552V411C537.552 417.4 536.252 423 533.652 427.8C531.052 432.5 527.352 436.15 522.552 438.75C517.752 441.25 512.052 442.5 505.452 442.5Z" fill="white"/>
<path d="M653.534 441V331.5H681.884C688.984 331.5 695.084 332.85 700.184 335.55C705.384 338.25 709.384 342.05 712.184 346.95C715.084 351.85 716.534 357.65 716.534 364.35V408C716.534 414.7 715.084 420.55 712.184 425.55C709.384 430.45 705.384 434.25 700.184 436.95C695.084 439.65 688.984 441 681.884 441H653.534ZM667.034 429H681.884C688.484 429 693.634 427.15 697.334 423.45C701.134 419.75 703.034 414.6 703.034 408V364.35C703.034 357.85 701.134 352.75 697.334 349.05C693.634 345.35 688.484 343.5 681.884 343.5H667.034V429ZM737.176 441L765.676 331.5H783.826L812.176 441H798.526L791.326 411.9H758.176L750.976 441H737.176ZM760.876 400.5H788.476L780.076 366.75C778.476 360.35 777.226 355 776.326 350.7C775.426 346.4 774.876 343.6 774.676 342.3C774.476 343.6 773.926 346.4 773.026 350.7C772.126 355 770.876 360.3 769.276 366.6L760.876 400.5ZM857.867 441V343.65H827.867V331.35H901.367V343.65H871.367V441H857.867ZM917.059 441L945.559 331.5H963.709L992.059 441H978.409L971.209 411.9H938.059L930.859 441H917.059ZM940.759 400.5H968.359L959.959 366.75C958.359 360.35 957.109 355 956.209 350.7C955.309 346.4 954.759 343.6 954.559 342.3C954.359 343.6 953.809 346.4 952.909 350.7C952.009 355 950.759 360.3 949.159 366.6L940.759 400.5ZM1100.84 441V331.5H1118.54L1129.94 366.9C1131.04 370.1 1132.04 373.3 1132.94 376.5C1133.84 379.6 1134.49 382 1134.89 383.7C1135.39 382 1136.04 379.6 1136.84 376.5C1137.64 373.3 1138.54 370.05 1139.54 366.75L1150.34 331.5H1168.04V441H1154.84V401.25C1154.84 396.85 1154.99 391.85 1155.29 386.25C1155.59 380.65 1155.99 374.95 1156.49 369.15C1156.99 363.25 1157.49 357.65 1157.99 352.35C1158.59 346.95 1159.09 342.25 1159.49 338.25L1141.79 393H1127.54L1109.69 338.25C1110.19 342.15 1110.69 346.7 1111.19 351.9C1111.69 357 1112.14 362.45 1112.54 368.25C1112.94 373.95 1113.29 379.65 1113.59 385.35C1113.89 391.05 1114.04 396.35 1114.04 401.25V441H1100.84ZM1186.88 441L1215.38 331.5H1233.53L1261.88 441H1248.23L1241.03 411.9H1207.88L1200.68 441H1186.88ZM1210.58 400.5H1238.18L1229.78 366.75C1228.18 360.35 1226.93 355 1226.03 350.7C1225.13 346.4 1224.58 343.6 1224.38 342.3C1224.18 343.6 1223.63 346.4 1222.73 350.7C1221.83 355 1220.58 360.3 1218.98 366.6L1210.58 400.5ZM1282.82 441V331.5H1300.82L1334.27 425.25C1334.07 422.75 1333.82 419.7 1333.52 416.1C1333.32 412.4 1333.12 408.55 1332.92 404.55C1332.82 400.45 1332.77 396.6 1332.77 393V331.5H1345.82V441H1327.82L1294.52 347.25C1294.72 349.65 1294.92 352.7 1295.12 356.4C1295.32 360 1295.47 363.85 1295.57 367.95C1295.77 371.95 1295.87 375.8 1295.87 379.5V441H1282.82ZM1366.77 441L1395.27 331.5H1413.42L1441.77 441H1428.12L1420.92 411.9H1387.77L1380.57 441H1366.77ZM1390.47 400.5H1418.07L1409.67 366.75C1408.07 360.35 1406.82 355 1405.92 350.7C1405.02 346.4 1404.47 343.6 1404.27 342.3C1404.07 343.6 1403.52 346.4 1402.62 350.7C1401.72 355 1400.47 360.3 1398.87 366.6L1390.47 400.5ZM1494.81 442.5C1488.21 442.5 1482.46 441.25 1477.56 438.75C1472.76 436.25 1469.01 432.65 1466.31 427.95C1463.71 423.15 1462.41 417.5 1462.41 411V361.5C1462.41 354.9 1463.71 349.25 1466.31 344.55C1469.01 339.85 1472.76 336.25 1477.56 333.75C1482.46 331.25 1488.21 330 1494.81 330C1501.41 330 1507.11 331.3 1511.91 333.9C1516.71 336.4 1520.41 340 1523.01 344.7C1525.61 349.4 1526.91 355 1526.91 361.5H1513.41C1513.41 355.3 1511.76 350.55 1508.46 347.25C1505.26 343.85 1500.71 342.15 1494.81 342.15C1488.91 342.15 1484.26 343.8 1480.86 347.1C1477.56 350.4 1475.91 355.15 1475.91 361.35V411C1475.91 417.2 1477.56 422 1480.86 425.4C1484.26 428.8 1488.91 430.5 1494.81 430.5C1500.71 430.5 1505.26 428.8 1508.46 425.4C1511.76 422 1513.41 417.2 1513.41 411V397.5H1491.21V385.2H1526.91V411C1526.91 417.4 1525.61 423 1523.01 427.8C1520.41 432.5 1516.71 436.15 1511.91 438.75C1507.11 441.25 1501.41 442.5 1494.81 442.5ZM1554.15 441V331.5H1617.15V343.8H1567.5V377.7H1611.9V389.85H1567.5V428.7H1617.15V441H1554.15ZM1640.49 441V331.5H1658.19L1669.59 366.9C1670.69 370.1 1671.69 373.3 1672.59 376.5C1673.49 379.6 1674.14 382 1674.54 383.7C1675.04 382 1675.69 379.6 1676.49 376.5C1677.29 373.3 1678.19 370.05 1679.19 366.75L1689.99 331.5H1707.69V441H1694.49V401.25C1694.49 396.85 1694.64 391.85 1694.94 386.25C1695.24 380.65 1695.64 374.95 1696.14 369.15C1696.64 363.25 1697.14 357.65 1697.64 352.35C1698.24 346.95 1698.74 342.25 1699.14 338.25L1681.44 393H1667.19L1649.34 338.25C1649.84 342.15 1650.34 346.7 1650.84 351.9C1651.34 357 1651.79 362.45 1652.19 368.25C1652.59 373.95 1652.94 379.65 1653.24 385.35C1653.54 391.05 1653.69 396.35 1653.69 401.25V441H1640.49ZM1734.03 441V331.5H1797.03V343.8H1747.38V377.7H1791.78V389.85H1747.38V428.7H1797.03V441H1734.03ZM1822.47 441V331.5H1840.47L1873.92 425.25C1873.72 422.75 1873.47 419.7 1873.17 416.1C1872.97 412.4 1872.77 408.55 1872.57 404.55C1872.47 400.45 1872.42 396.6 1872.42 393V331.5H1885.47V441H1867.47L1834.17 347.25C1834.37 349.65 1834.57 352.7 1834.77 356.4C1834.97 360 1835.12 363.85 1835.22 367.95C1835.42 371.95 1835.52 375.8 1835.52 379.5V441H1822.47ZM1937.16 441V343.65H1907.16V331.35H1980.66V343.65H1950.66V441H1937.16Z" fill="#C4C4C4"/>
</svg>
