<svg width="147" height="30" viewBox="0 0 147 30" fill="none" xmlns="http://www.w3.org/2000/svg">
<path d="M25.9485 0.284424L13.1152 18.9562L13.106 18.9428L5.8945 29.4613H0L9.90756 14.8709L0.128475 0.284424H6.01297L13.1611 10.8063L20.2725 0.284424H25.9485Z" fill="#14171A"/>
<path d="M22.2281 22.545H14.9221L20.0333 30H27.3095L22.2281 22.545Z" fill="#1E4DD8"/>
<path d="M66.2535 10.6771C66.2535 12.6417 65.7715 14.4355 64.8073 16.0584C63.8714 17.6529 62.5953 18.9341 60.9789 19.9022C59.3625 20.8703 57.5759 21.3543 55.6192 21.3543H38.5191V17.1261H55.6192C56.8102 17.1261 57.8878 16.8414 58.852 16.272C59.8162 15.6741 60.5819 14.8911 61.1491 13.923C61.7162 12.9265 61.9998 11.8445 61.9998 10.6771C61.9998 9.48131 61.7162 8.39936 61.1491 7.43129C60.5819 6.46323 59.8162 5.69448 58.852 5.12503C57.8878 4.55558 56.8102 4.27086 55.6192 4.27086H36.137V29.896H31.8833V0H55.6192C57.5759 0 59.3625 0.484031 60.9789 1.45209C62.5953 2.39168 63.8714 3.67294 64.8073 5.29586C65.7715 6.91879 66.2535 8.71255 66.2535 10.6771Z" fill="#14171A"/>
<path d="M105.094 29.896H99.3513L90.4185 21.3543H77.3595V17.1261H94.4595C95.6506 17.1261 96.7282 16.8414 97.6924 16.272C98.6565 15.6741 99.4222 14.8911 99.9894 13.923C100.557 12.9265 100.84 11.8445 100.84 10.6771C100.84 9.48131 100.557 8.39936 99.9894 7.43129C99.4222 6.46323 98.6565 5.69448 97.6924 5.12503C96.7282 4.55558 95.6506 4.27086 94.4595 4.27086H74.9774V29.896H70.7236V0H94.4595C96.4162 0 98.2028 0.484031 99.8192 1.45209C101.436 2.39168 102.712 3.67294 103.648 5.29586C104.612 6.91879 105.094 8.71255 105.094 10.6771C105.094 12.4424 104.697 14.0796 103.903 15.5886C103.137 17.0977 102.074 18.3505 100.713 19.347C99.3797 20.315 97.8625 20.9414 96.161 21.2262L105.094 29.896Z" fill="#14171A"/>
<path d="M146.081 14.948C146.081 17.0265 145.755 18.9768 145.102 20.7991C144.45 22.5928 143.514 24.1731 142.295 25.5397C141.104 26.9064 139.672 27.9741 137.999 28.7429C136.325 29.5116 134.468 29.896 132.426 29.896H122.515C120.445 29.896 118.573 29.5116 116.9 28.7429C115.227 27.9741 113.781 26.9064 112.561 25.5397C111.37 24.1731 110.448 22.5928 109.796 20.7991C109.144 18.9768 108.818 17.0265 108.818 14.948C108.818 12.898 109.144 10.9761 109.796 9.18235C110.448 7.36011 111.37 5.76566 112.561 4.39899C113.781 3.00384 115.227 1.92189 116.9 1.15313C118.573 0.384377 120.445 0 122.515 0H132.426C134.468 0 136.325 0.384377 137.999 1.15313C139.672 1.92189 141.104 3.00384 142.295 4.39899C143.514 5.76566 144.45 7.36011 145.102 9.18235C145.755 10.9761 146.081 12.898 146.081 14.948ZM141.827 14.948C141.827 12.9834 141.444 11.1896 140.678 9.56672C139.941 7.9438 138.863 6.66254 137.446 5.72295C136.056 4.75489 134.383 4.27086 132.426 4.27086H122.515C120.558 4.27086 118.871 4.75489 117.453 5.72295C116.063 6.66254 114.986 7.9438 114.22 9.56672C113.454 11.1896 113.072 12.9834 113.072 14.948C113.072 16.9126 113.454 18.7064 114.22 20.3293C114.986 21.9237 116.063 23.205 117.453 24.1731C118.871 25.1411 120.558 25.6251 122.515 25.6251H132.426C134.383 25.6251 136.056 25.1411 137.446 24.1731C138.863 23.205 139.941 21.9237 140.678 20.3293C141.444 18.7064 141.827 16.9126 141.827 14.948Z" fill="#14171A"/>
</svg>
