<svg width="158" height="47" viewBox="0 0 158 47" fill="none" xmlns="http://www.w3.org/2000/svg">
<path d="M2.03817 37V10.8182H12.9558C14.916 10.8182 16.5566 11.0952 17.8777 11.6491C19.2072 12.2031 20.2044 12.9787 20.8691 13.9759C21.5424 14.973 21.8791 16.1278 21.8791 17.4403C21.8791 18.4375 21.6703 19.3281 21.2527 20.1122C20.8351 20.8878 20.2598 21.5312 19.5268 22.0426C18.7939 22.554 17.9458 22.9119 16.9828 23.1165V23.3722C18.0396 23.4233 19.0154 23.7088 19.9103 24.2287C20.8137 24.7486 21.5382 25.473 22.0836 26.402C22.6291 27.3224 22.9018 28.4134 22.9018 29.6747C22.9018 31.081 22.5439 32.3381 21.8279 33.446C21.112 34.5455 20.0765 35.4148 18.7214 36.054C17.3663 36.6847 15.7214 37 13.7868 37H2.03817ZM8.3663 31.8991H12.2782C13.6504 31.8991 14.6603 31.6392 15.3081 31.1193C15.9643 30.5994 16.2924 29.875 16.2924 28.946C16.2924 28.2727 16.1348 27.6932 15.8194 27.2074C15.5041 26.7131 15.0566 26.3338 14.4771 26.0696C13.8976 25.7969 13.2029 25.6605 12.3933 25.6605H8.3663V31.8991ZM8.3663 21.5824H11.8691C12.5595 21.5824 13.1731 21.4673 13.7101 21.2372C14.247 21.0071 14.6646 20.6747 14.9629 20.2401C15.2697 19.8054 15.4231 19.2812 15.4231 18.6676C15.4231 17.7898 15.112 17.0994 14.4899 16.5966C13.8677 16.0938 13.0282 15.8423 11.9714 15.8423H8.3663V21.5824ZM50.6561 23.9091C50.6561 26.7898 50.1021 29.2315 48.9941 31.2344C47.8862 33.2372 46.3862 34.7585 44.4941 35.7983C42.6106 36.8381 40.497 37.358 38.1532 37.358C35.801 37.358 33.6831 36.8338 31.7995 35.7855C29.916 34.7372 28.4203 33.2159 27.3123 31.2216C26.2129 29.2187 25.6632 26.7812 25.6632 23.9091C25.6632 21.0284 26.2129 18.5866 27.3123 16.5838C28.4203 14.581 29.916 13.0597 31.7995 12.0199C33.6831 10.9801 35.801 10.4602 38.1532 10.4602C40.497 10.4602 42.6106 10.9801 44.4941 12.0199C46.3862 13.0597 47.8862 14.581 48.9941 16.5838C50.1021 18.5866 50.6561 21.0284 50.6561 23.9091ZM44.1873 23.9091C44.1873 22.2045 43.9444 20.7642 43.4586 19.5881C42.9814 18.4119 42.291 17.5213 41.3876 16.9162C40.4927 16.3111 39.4146 16.0085 38.1532 16.0085C36.9004 16.0085 35.8223 16.3111 34.9189 16.9162C34.0154 17.5213 33.3208 18.4119 32.8351 19.5881C32.3578 20.7642 32.1191 22.2045 32.1191 23.9091C32.1191 25.6136 32.3578 27.054 32.8351 28.2301C33.3208 29.4062 34.0154 30.2969 34.9189 30.902C35.8223 31.5071 36.9004 31.8097 38.1532 31.8097C39.4146 31.8097 40.4927 31.5071 41.3876 30.902C42.291 30.2969 42.9814 29.4062 43.4586 28.2301C43.9444 27.054 44.1873 25.6136 44.1873 23.9091ZM54.3507 37V10.8182H65.166C67.1262 10.8182 68.818 11.1719 70.2413 11.8793C71.6731 12.5781 72.7768 13.5838 73.5524 14.8963C74.3279 16.2003 74.7157 17.7472 74.7157 19.5369C74.7157 21.3523 74.3194 22.8949 73.5268 24.1648C72.7342 25.4261 71.6092 26.3892 70.1518 27.054C68.6944 27.7102 66.9686 28.0384 64.9743 28.0384H58.1348V23.0526H63.7981C64.7527 23.0526 65.5495 22.929 66.1887 22.6818C66.8365 22.4261 67.3265 22.0426 67.6589 21.5312C67.9913 21.0114 68.1575 20.3466 68.1575 19.5369C68.1575 18.7273 67.9913 18.0582 67.6589 17.5298C67.3265 16.9929 66.8365 16.5923 66.1887 16.3281C65.541 16.0554 64.7441 15.919 63.7981 15.919H60.6788V37H54.3507ZM69.0907 25.0341L75.6106 37H68.7072L62.3152 25.0341H69.0907ZM78.1866 37V10.8182H96.4423V15.9574H84.5147V21.3267H95.5091V26.4787H84.5147V31.8608H96.4423V37H78.1866Z" fill="black"/>
<path d="M110.083 37H100.405V10.8182H110.07C112.738 10.8182 115.035 11.3423 116.961 12.3906C118.895 13.4304 120.387 14.9304 121.435 16.8906C122.483 18.8423 123.008 21.1776 123.008 23.8963C123.008 26.6236 122.483 28.9673 121.435 30.9276C120.395 32.8878 118.908 34.392 116.974 35.4403C115.039 36.4801 112.742 37 110.083 37ZM106.733 31.6051H109.84C111.306 31.6051 112.546 31.358 113.56 30.8636C114.583 30.3608 115.354 29.5469 115.874 28.4219C116.403 27.2884 116.667 25.7798 116.667 23.8963C116.667 22.0128 116.403 20.5128 115.874 19.3963C115.346 18.2713 114.566 17.4616 113.535 16.9673C112.512 16.4645 111.251 16.2131 109.751 16.2131H106.733V31.6051ZM126.702 10.8182H134.539L141.187 27.0284H141.493L148.141 10.8182H155.978V37H149.816V20.9176H149.599L143.309 36.8338H139.371L133.081 20.8281H132.864V37H126.702V10.8182Z" fill="#606060"/>
</svg>
