<svg width="103" height="19" viewBox="0 0 103 19" fill="none" xmlns="http://www.w3.org/2000/svg">
<g clip-path="url(#clip0_14872_47925)">
<path d="M0 12.202V0.0292969L18.296 0.0340958C18.365 0.0340958 18.43 0.0607965 18.479 0.108397C18.528 0.155997 18.555 0.220597 18.555 0.287897V11.9338C18.555 11.9999 18.529 12.0632 18.482 12.1098C18.435 12.1566 18.372 12.1828 18.305 12.1828L0 12.202Z" fill="black"/>
<path d="M21.9459 17.7427C21.9549 17.7108 22.0698 17.615 22.2908 17.4554C22.3468 17.4171 22.3929 17.3657 22.4249 17.3056C22.4559 17.2455 22.4728 17.1785 22.4728 17.1106V1.3561C22.4728 1.2359 22.4278 1.12 22.3478 1.0304C22.2078 0.867598 22.0168 0.7304 21.7778 0.6186C21.7338 0.5981 21.6979 0.563999 21.6749 0.521499C21.6519 0.478999 21.6439 0.430199 21.6509 0.382499C21.6579 0.334699 21.6799 0.2904 21.7139 0.2562C21.7479 0.222 21.7919 0.199599 21.8399 0.192399C22.6929 0.0774989 23.4858 0.0295984 24.2178 0.0487984C29.5528 0.170098 32.9139 0.211599 34.3009 0.173299C36.7409 0.101499 39.2389 1.3704 39.7379 3.8701C40.0799 5.5748 39.4299 7.0513 37.7869 8.2996C37.7559 8.3232 37.7319 8.3537 37.7149 8.3888C37.6989 8.4239 37.6919 8.4623 37.6929 8.5009C37.6949 8.5395 37.7068 8.5771 37.7258 8.6104C37.7458 8.6437 37.7729 8.6717 37.8059 8.6922C40.3329 10.2054 41.4639 13.84 39.2349 16.0667C37.9109 17.3884 36.7459 17.9342 34.7559 18.0252C30.2299 18.2359 26.0348 18.2471 22.1708 18.0587C22.1338 18.0574 22.0979 18.0477 22.0649 18.03C22.0319 18.0124 22.0039 17.9874 21.9819 17.9569C21.9609 17.9265 21.9459 17.8914 21.9399 17.8543C21.9329 17.8171 21.9349 17.779 21.9459 17.7427ZM26.3848 3.2045L26.3558 6.7864C26.3558 6.8232 26.3709 6.8585 26.3969 6.8846C26.4229 6.9106 26.4589 6.9252 26.4959 6.9252L33.6249 6.9779C33.9429 6.9803 34.2579 6.935 34.5519 6.8445C34.8459 6.7541 35.1139 6.6203 35.3399 6.4508C35.5649 6.2813 35.7449 6.0795 35.8679 5.8569C35.9909 5.6343 36.0549 5.3952 36.0559 5.1534V4.9714C36.0579 4.4844 35.8068 4.0157 35.3558 3.6683C34.9058 3.3208 34.2939 3.1231 33.6539 3.1183L26.5239 3.0656C26.4869 3.0656 26.4519 3.0803 26.4259 3.1063C26.3999 3.1323 26.3848 3.1677 26.3848 3.2045ZM26.3848 10.397L26.3469 14.9078C26.3469 14.965 26.3699 15.0198 26.4099 15.0602C26.4509 15.1006 26.5049 15.1233 26.5629 15.1233L33.3419 15.1808C33.7709 15.1849 34.1949 15.1295 34.5919 15.0179C34.9889 14.9063 35.3509 14.7406 35.6559 14.5302C35.9609 14.3198 36.2039 14.0689 36.3699 13.7919C36.5369 13.515 36.6239 13.2172 36.6259 12.9158V12.5615C36.6289 12.2601 36.5469 11.9611 36.3859 11.6813C36.2249 11.4014 35.9859 11.1464 35.6849 10.9307C35.3849 10.715 35.0258 10.5429 34.6318 10.4243C34.2368 10.3055 33.8138 10.2426 33.3848 10.239L26.6058 10.1815C26.5768 10.1809 26.5479 10.1859 26.5219 10.1965C26.4949 10.207 26.4708 10.2228 26.4498 10.2428C26.4298 10.263 26.4129 10.2869 26.4019 10.3134C26.3909 10.3399 26.3848 10.3683 26.3848 10.397Z" fill="black"/>
<path d="M40.6384 17.8387C40.8114 17.5226 41.4204 17.2258 41.7174 16.608C44.0824 11.7715 46.3934 6.76579 48.6504 1.59089C48.6684 1.54799 48.6754 1.50158 48.6714 1.45578C48.6664 1.40988 48.6514 1.36589 48.6264 1.32759L48.0274 0.412886C48.0074 0.382686 47.9964 0.347584 47.9944 0.311384C47.9934 0.275184 48.0014 0.239285 48.0184 0.207485C48.0354 0.175585 48.0614 0.148885 48.0924 0.130285C48.1234 0.111685 48.1584 0.101785 48.1954 0.101685H53.4883C53.5473 0.103685 53.6044 0.125685 53.6494 0.164085C53.6954 0.202485 53.7263 0.254984 53.7383 0.313284C53.7493 0.371484 53.7414 0.431885 53.7144 0.484785C53.6874 0.537585 53.6434 0.579785 53.5884 0.604485C53.0964 0.802385 52.9244 1.13919 53.0714 1.61489C53.1474 1.85749 53.3153 2.25818 53.5743 2.81688C55.8153 7.62769 57.9274 12.0557 59.9124 16.1005C60.2514 16.7964 60.7294 17.3694 61.3464 17.8195C61.3794 17.844 61.4044 17.8783 61.4164 17.9175C61.4294 17.9567 61.4294 17.9989 61.4164 18.0381C61.4044 18.0774 61.3794 18.1116 61.3464 18.1359C61.3124 18.1603 61.2724 18.1735 61.2314 18.1739H55.4154C55.3644 18.1733 55.3154 18.1566 55.2744 18.1262C55.2344 18.0958 55.2044 18.0534 55.1894 18.0049C55.1744 17.9564 55.1754 17.9045 55.1914 17.8566C55.2084 17.8086 55.2394 17.7671 55.2814 17.7381L55.7654 17.4173C55.8674 17.3525 55.9414 17.253 55.9764 17.137C56.0104 17.021 56.0024 16.8962 55.9524 16.7852L54.6534 13.8881C54.6184 13.8137 54.5634 13.7507 54.4944 13.7066C54.4264 13.6625 54.3464 13.639 54.2644 13.6391H46.9144C46.8004 13.639 46.6884 13.6712 46.5914 13.7324C46.4944 13.7934 46.4174 13.8806 46.3684 13.9839C45.7094 15.3694 45.2914 16.351 45.1124 16.9289C45.0164 17.2449 45.2164 17.5082 45.7114 17.719C45.7584 17.7372 45.7984 17.7715 45.8224 17.8157C45.8474 17.8601 45.8553 17.9117 45.8453 17.9615C45.8363 18.0112 45.8094 18.056 45.7694 18.0878C45.7304 18.1196 45.6804 18.1366 45.6304 18.1356L40.8304 18.1596C40.7924 18.1602 40.7554 18.1508 40.7224 18.1323C40.6894 18.1139 40.6614 18.0871 40.6414 18.0546C40.6224 18.022 40.6114 17.9849 40.6114 17.947C40.6104 17.9091 40.6204 17.8717 40.6384 17.8387ZM47.8494 10.7612C47.8384 10.7866 47.8344 10.8145 47.8364 10.8422C47.8384 10.8699 47.8473 10.8966 47.8633 10.9199C47.8783 10.9431 47.8993 10.9622 47.9233 10.9755C47.9483 10.9888 47.9754 10.9957 48.0034 10.9958L53.1814 11.0245C53.2094 11.0245 53.2364 11.0174 53.2614 11.0042C53.2854 10.991 53.3064 10.9718 53.3214 10.9485C53.3364 10.9253 53.3454 10.8986 53.3484 10.8709C53.3504 10.8432 53.3454 10.8153 53.3344 10.7898L50.7744 5.06748C50.7614 5.03778 50.7393 5.01258 50.7123 4.99488C50.6853 4.97718 50.6533 4.96778 50.6213 4.96778C50.5883 4.96778 50.5564 4.97718 50.5294 4.99488C50.5024 5.01258 50.4804 5.03778 50.4674 5.06748L47.8494 10.7612Z" fill="black"/>
<path d="M75.6916 18.1356C75.6596 18.1354 75.6287 18.1265 75.6017 18.1099C75.5747 18.0932 75.5537 18.0696 75.5387 18.0414C75.5247 18.0132 75.5187 17.9816 75.5207 17.9501C75.5227 17.9186 75.5337 17.8884 75.5527 17.8626C75.6967 17.6616 75.8197 17.5355 75.9217 17.4844C75.9617 17.4643 75.9966 17.4362 76.0246 17.4019C76.0526 17.3677 76.0736 17.328 76.0846 17.2855C76.0966 17.2431 76.0996 17.1988 76.0926 17.1554C76.0856 17.1122 76.0707 17.0709 76.0467 17.0343L72.1197 11.082C72.0697 11.0078 72.0017 10.9472 71.9217 10.9054C71.8427 10.8636 71.7537 10.8421 71.6647 10.8426L67.4446 10.8474C67.3726 10.8474 67.3026 10.8761 67.2516 10.9273C67.2006 10.9785 67.1717 11.0479 67.1717 11.1203L67.1767 17.0822C67.1767 17.1673 67.1997 17.2506 67.2427 17.3231C67.2857 17.3957 67.3476 17.4547 67.4206 17.494C67.5806 17.5833 67.6987 17.6903 67.7757 17.8148C67.7957 17.8484 67.8067 17.8868 67.8077 17.926C67.8087 17.9651 67.7986 18.0038 67.7796 18.0381C67.7606 18.0725 67.7336 18.1013 67.6996 18.1218C67.6666 18.1423 67.6277 18.1536 67.5887 18.1548L62.8136 18.1644C62.7756 18.1636 62.7397 18.1521 62.7087 18.1315C62.6777 18.1107 62.6527 18.0815 62.6377 18.0473C62.6227 18.0131 62.6176 17.9753 62.6236 17.9384C62.6286 17.9014 62.6447 17.8668 62.6697 17.8387L63.0627 17.4173C63.2007 17.2702 63.2757 17.074 63.2687 16.8715C63.2687 16.8682 63.2656 11.7508 63.2596 1.51921C63.2596 1.01631 63.0967 0.762513 62.6747 0.594913C62.6257 0.574313 62.5857 0.537913 62.5597 0.491513C62.5347 0.445213 62.5257 0.391712 62.5347 0.339612C62.5437 0.287512 62.5696 0.240012 62.6086 0.204612C62.6486 0.169312 62.6986 0.148213 62.7516 0.144813C67.2966 -0.0945872 71.7216 -0.0371877 76.0276 0.317212C77.0656 0.403412 78.1357 0.915813 79.2347 1.85441C80.3657 2.81841 80.8507 4.18961 80.6877 5.96781C80.4437 8.61591 78.5727 9.75551 76.2527 10.6701C76.2247 10.6811 76.1997 10.6981 76.1797 10.7199C76.1587 10.7417 76.1436 10.7676 76.1346 10.7958C76.1266 10.8239 76.1236 10.8536 76.1286 10.8824C76.1336 10.9113 76.1447 10.9386 76.1617 10.9623C78.4787 14.2122 79.6637 15.8738 79.7137 15.9472C80.2067 16.6495 80.8246 17.2481 81.5696 17.743C81.6066 17.7684 81.6326 17.8046 81.6476 17.8464C81.6626 17.8882 81.6627 17.9335 81.6507 17.976C81.6377 18.0184 81.6116 18.0557 81.5766 18.0827C81.5416 18.1096 81.4986 18.1248 81.4546 18.126L75.6916 18.1356ZM67.1617 3.19521L67.1717 8.17531C67.1717 8.20201 67.1826 8.22761 67.2016 8.24651C67.2196 8.26531 67.2456 8.27591 67.2726 8.27591L73.3517 8.26631C73.8517 8.26541 74.3457 8.20261 74.8077 8.08151C75.2687 7.96041 75.6876 7.78341 76.0406 7.56061C76.3926 7.33781 76.6727 7.07351 76.8627 6.78291C77.0527 6.49241 77.1507 6.18121 77.1487 5.86721V5.46501C77.1467 4.83171 76.7447 4.22531 76.0307 3.77911C75.3167 3.33281 74.3496 3.08311 73.3426 3.08501L67.2627 3.09461C67.2357 3.09461 67.2106 3.10521 67.1916 3.12401C67.1726 3.14291 67.1617 3.16851 67.1617 3.19521Z" fill="black"/>
<path d="M96.8548 17.9002C96.9988 17.6991 97.1218 17.573 97.2248 17.5219C97.2638 17.5018 97.2988 17.4738 97.3268 17.4395C97.3548 17.4052 97.3759 17.3655 97.3879 17.3231C97.3989 17.2807 97.4018 17.2363 97.3948 17.193C97.3888 17.1497 97.3729 17.1084 97.3489 17.0718L93.4228 11.11C93.3718 11.0348 93.3039 10.9732 93.2239 10.9307C93.1449 10.8881 93.0568 10.8658 92.9668 10.8657H88.7428C88.6708 10.8657 88.6008 10.8945 88.5498 10.9457C88.4988 10.9968 88.4689 11.0663 88.4689 11.1387V17.1101C88.4689 17.1952 88.4918 17.2785 88.5348 17.3511C88.5778 17.4236 88.6399 17.4827 88.7139 17.5219C88.8739 17.6113 88.9918 17.7183 89.0688 17.8428C89.0908 17.8769 89.1028 17.9161 89.1028 17.9564C89.1038 17.9967 89.0948 18.0365 89.0748 18.0718C89.0548 18.107 89.0269 18.1363 88.9919 18.1567C88.9569 18.177 88.9178 18.1877 88.8768 18.1875H84.0968C84.0588 18.1867 84.0229 18.1753 83.9919 18.1546C83.9609 18.1338 83.9358 18.1047 83.9208 18.0704C83.9058 18.0363 83.9008 17.9984 83.9068 17.9615C83.9128 17.9246 83.9279 17.8901 83.9529 17.8619L84.3458 17.4405C84.4838 17.2934 84.5578 17.0971 84.5528 16.8946C84.5528 16.8914 84.5558 11.7676 84.5618 1.52319C84.5618 1.01559 84.3989 0.761793 83.9769 0.594193C83.9279 0.573493 83.8878 0.537094 83.8628 0.490794C83.8378 0.444394 83.8278 0.390894 83.8378 0.338794C83.8458 0.286794 83.8718 0.239193 83.9118 0.203893C83.9508 0.168493 84.0008 0.147392 84.0538 0.143992C88.6048 -0.0890077 93.0369 -0.0267077 97.3489 0.330792C98.3909 0.420192 99.4618 0.934193 100.561 1.87269C101.693 2.83999 102.175 4.21439 102.01 5.99569C101.76 8.64859 99.8899 9.78829 97.5649 10.6981C97.5369 10.7091 97.5119 10.7261 97.4919 10.7478C97.4709 10.7696 97.4558 10.7955 97.4468 10.8237C97.4388 10.8519 97.4358 10.8815 97.4408 10.9104C97.4458 10.9392 97.4568 10.9665 97.4728 10.9902C99.7908 14.2497 100.975 15.9161 101.027 15.9896C101.515 16.6919 102.134 17.292 102.882 17.7901C102.918 17.8155 102.945 17.8517 102.96 17.8935C102.974 17.9354 102.975 17.9807 102.963 18.0231C102.95 18.0655 102.924 18.1028 102.889 18.1297C102.854 18.1567 102.811 18.1719 102.767 18.1732H96.9938C96.9628 18.1729 96.9318 18.1641 96.9048 18.1474C96.8778 18.1308 96.8558 18.1072 96.8418 18.079C96.8278 18.0508 96.8208 18.0192 96.8238 17.9876C96.8258 17.9561 96.8368 17.9259 96.8548 17.9002ZM88.4548 3.36199L88.5218 8.16969C88.5218 8.20149 88.5349 8.23189 88.5569 8.25439C88.5799 8.27689 88.6108 8.28949 88.6418 8.28949L95.1769 8.19849C96.0219 8.18689 96.8278 7.95579 97.4198 7.55619C98.0108 7.15659 98.3388 6.62109 98.3318 6.06749L98.3218 5.19599C98.3188 4.92179 98.2328 4.65129 98.0688 4.40009C97.9058 4.14879 97.6679 3.92179 97.3699 3.73189C97.0719 3.54199 96.7189 3.39299 96.3309 3.29339C95.9429 3.19379 95.5278 3.14539 95.1098 3.15129L88.5748 3.24219C88.5438 3.24219 88.5129 3.25489 88.4899 3.27739C88.4679 3.29979 88.4548 3.33029 88.4548 3.36199Z" fill="black"/>
<path d="M0 18.2979V16.0041C0.042 15.6434 0.218982 15.4598 0.531982 15.4535C6.39098 15.3194 12.335 15.3066 18.363 15.4151C18.426 15.4164 18.486 15.4422 18.529 15.487C18.573 15.5317 18.598 15.5919 18.598 15.6546V18.0201C18.598 18.0723 18.577 18.1221 18.54 18.159C18.504 18.1958 18.453 18.2165 18.401 18.2165L0 18.2979Z" fill="black"/>
</g>
<defs>
<clipPath id="clip0_14872_47925">
<rect width="102.971" height="18.2979" fill="white"/>
</clipPath>
</defs>
</svg>
