<svg width="200" height="44" viewBox="0 0 200 44" fill="none" xmlns="http://www.w3.org/2000/svg">
<g clip-path="url(#clip0_14872_47927)">
<mask id="mask0_14872_47927" style="mask-type:luminance" maskUnits="userSpaceOnUse" x="0" y="0" width="200" height="44">
<path d="M200 0H0V43.0279H200V0Z" fill="white"/>
</mask>
<g mask="url(#mask0_14872_47927)">
<path d="M200 7.17559V8.06349C199.578 8.67779 198.947 8.73509 198.213 8.57589C197.343 8.38519 196.58 8.23179 195.925 8.11569C180.94 5.48179 170.205 16.5622 164.725 29.0104C164.446 29.6421 164.1 30.4438 163.685 31.4155C163.335 32.2363 163.109 32.2072 163.007 31.3284C162.987 31.161 163.022 30.7713 163.11 30.1594C163.45 27.7967 164.166 25.2763 165.257 22.5985C168.195 15.4006 173.668 8.31219 180.758 4.85509C182.598 3.95799 184.602 3.40419 186.77 3.19359C191.933 2.69289 196.343 4.02019 200 7.17559Z" fill="black"/>
<path d="M167.779 35.944C167.78 35.9522 167.783 35.9589 167.788 35.9639C167.797 35.9738 167.811 35.9763 167.831 35.9713C180.736 33.4518 192.841 24.3488 195.074 10.7888C195.12 10.5086 195.314 10.3121 195.656 10.1993C196.709 9.8536 197.019 11.9354 197.089 12.6118C197.223 13.8787 197.211 15.0833 197.051 16.2257C195.526 27.1543 188.304 34.9342 177.911 38.2247C176.596 38.6409 174.966 38.9601 173.021 39.1822C167.772 39.7841 162.557 39.9699 157.376 39.7393C154.059 39.5918 150.827 39.1383 147.678 38.3789C147.628 38.367 147.581 38.3453 147.54 38.315C147.498 38.2847 147.463 38.2463 147.436 38.2023C147.264 37.9204 147.338 37.6526 147.658 37.3989C147.82 37.2696 148.185 37.1867 148.753 37.1503C150.87 37.0126 152.014 36.9388 152.183 36.9289C158.41 36.5408 164.259 34.9997 169.731 32.3052C175.264 29.5793 179.694 25.4838 183.021 20.0186C183.279 19.5942 183.498 19.3264 183.678 19.2153C184.02 19.0031 184.395 18.9674 184.803 19.1083C184.883 19.1365 184.944 19.1887 184.983 19.2651C185.379 20.0186 184.834 21.1404 184.461 21.8467C182.513 25.5393 179.882 28.5811 176.571 30.9721C173.833 32.9469 170.914 34.5867 167.816 35.8917C167.784 35.905 167.772 35.9224 167.779 35.944Z" fill="black"/>
<path d="M0 22.0984V19.7928C0.592 15.4502 2.827 12.6613 6.705 11.426C9.05 10.6774 11.658 10.6973 14.058 11.2643C14.584 11.3887 15.072 11.5628 15.52 11.7866C15.55 11.8022 15.574 11.8276 15.587 11.8586C15.601 11.8896 15.602 11.924 15.593 11.9558L14.907 14.2041C14.904 14.2151 14.898 14.2253 14.89 14.234C14.883 14.2426 14.873 14.2496 14.863 14.2546C14.852 14.2594 14.841 14.2621 14.829 14.2625C14.817 14.2628 14.806 14.2607 14.795 14.2564C10.293 12.3413 4.393 13.3983 3.243 18.9024C2.954 20.2869 2.98601 21.6922 3.33701 23.1182C4.47501 27.7293 8.92501 28.9629 13.098 27.8586C13.14 27.8481 13.177 27.8236 13.204 27.7889C13.23 27.7543 13.245 27.7114 13.245 27.6672V22.6132C13.245 22.5941 13.237 22.5758 13.224 22.5622C13.21 22.5488 13.192 22.5411 13.173 22.5411H9.5C9.458 22.5411 9.41801 22.5246 9.38901 22.4952C9.35901 22.4658 9.342 22.426 9.342 22.3845V20.2231C9.342 20.1269 9.391 20.0788 9.487 20.0788H16.075C16.095 20.0788 16.114 20.0867 16.128 20.1007C16.142 20.1147 16.15 20.1337 16.15 20.1535V29.4579C16.15 29.5061 16.135 29.5532 16.107 29.5927C16.08 29.6323 16.04 29.6625 15.995 29.6793C9.91799 31.868 1.865 31.0845 0.235001 23.5161C0.185001 23.2823 0.107 22.8097 0 22.0984Z" fill="black"/>
<path d="M48.843 18.9043H56.031C56.047 18.9043 56.062 18.9075 56.077 18.9135C56.091 18.9195 56.105 18.9283 56.116 18.9393C56.127 18.9504 56.136 18.9636 56.142 18.9781C56.148 18.9926 56.151 19.0081 56.151 19.0238V21.409C56.151 21.4406 56.138 21.471 56.116 21.4934C56.093 21.5157 56.063 21.5283 56.031 21.5283H48.846C48.814 21.5283 48.783 21.5409 48.761 21.5633C48.738 21.5857 48.726 21.6161 48.726 21.6477V27.7064C48.726 27.7381 48.738 27.7685 48.761 27.7909C48.783 27.8133 48.814 27.8259 48.846 27.8259H56.933C56.965 27.8259 56.996 27.8385 57.018 27.8608C57.041 27.8832 57.053 27.9136 57.053 27.9452V30.3279C57.053 30.3596 57.041 30.3899 57.018 30.4123C56.996 30.4347 56.965 30.4473 56.933 30.4473H45.788C45.773 30.4473 45.757 30.4442 45.742 30.4382C45.728 30.4322 45.715 30.4234 45.703 30.4123C45.692 30.4012 45.683 30.3881 45.678 30.3736C45.671 30.3591 45.668 30.3436 45.668 30.3279V10.9231C45.668 10.8914 45.681 10.8611 45.703 10.8387C45.726 10.8163 45.757 10.8037 45.788 10.8037H56.4859C56.5179 10.8037 56.548 10.8163 56.571 10.8387C56.593 10.8611 56.606 10.8914 56.606 10.9231V13.3306C56.606 13.3624 56.593 13.3927 56.571 13.4151C56.548 13.4375 56.5179 13.45 56.4859 13.45H48.843C48.812 13.45 48.7809 13.4626 48.7579 13.485C48.7359 13.5074 48.7229 13.5377 48.7229 13.5694V18.785C48.7229 18.8167 48.7359 18.8471 48.7579 18.8694C48.7809 18.8918 48.812 18.9043 48.843 18.9043Z" fill="black"/>
<path d="M36.5097 16.5423C40.5647 16.7364 42.7027 20.099 42.5177 23.9192C42.3327 27.742 39.8827 30.8833 35.8247 30.6893C31.7677 30.4953 29.6327 27.1327 29.8177 23.3124C30.0027 19.4921 32.4527 16.3483 36.5097 16.5423ZM36.1287 28.3961C36.6057 28.397 37.0787 28.2741 37.5197 28.0343C37.9607 27.7946 38.3617 27.4428 38.6997 26.9991C39.0377 26.5552 39.3067 26.0282 39.4897 25.4479C39.6737 24.8677 39.7687 24.2456 39.7697 23.6172C39.7707 22.9887 39.6777 22.3663 39.4967 21.7854C39.3147 21.2046 39.0487 20.6765 38.7117 20.2316C38.3757 19.7866 37.9757 19.4335 37.5357 19.1922C37.0947 18.9509 36.6227 18.8264 36.1457 18.8255C35.6687 18.8247 35.1957 18.9477 34.7547 19.1874C34.3137 19.4271 33.9127 19.7789 33.5747 20.2227C33.2367 20.6664 32.9677 21.1935 32.7847 21.7737C32.6007 22.3541 32.5057 22.9761 32.5047 23.6046C32.5037 24.2329 32.5967 24.8554 32.7777 25.4363C32.9597 26.0172 33.2267 26.5451 33.5627 26.9901C33.8997 27.435 34.2997 27.7882 34.7397 28.0295C35.1797 28.2707 35.6517 28.3953 36.1287 28.3961Z" fill="black"/>
<path d="M148.471 19.4001C147.627 20.1711 148.124 21.3003 149.076 21.743C151.554 22.8921 154.146 23.6407 153.841 27.0059C153.778 27.7189 153.504 28.3862 153.019 29.008C151.289 31.2291 147.379 31.035 145.197 29.7069C145.075 29.6323 145.035 29.5278 145.076 29.3935L145.684 27.4038C145.692 27.3786 145.706 27.3557 145.724 27.3367C145.742 27.3178 145.765 27.3034 145.79 27.2946C145.815 27.286 145.842 27.2833 145.868 27.2866C145.895 27.29 145.919 27.2995 145.942 27.3143C147.275 28.2245 148.642 28.5015 150.044 28.145C151.056 27.8863 151.459 26.6328 150.989 25.8319C150.551 25.0907 149.429 24.7301 148.412 24.3421C147.91 24.1515 147.354 23.8131 146.744 23.3273C144.984 21.9246 144.899 19.41 146.489 17.8506C148.197 16.1767 151.264 16.2514 153.276 17.3084C153.386 17.3664 153.423 17.4543 153.386 17.572L152.777 19.5743C152.768 19.6027 152.753 19.6288 152.732 19.6504C152.711 19.6721 152.686 19.6886 152.658 19.6987C152.629 19.7089 152.6 19.7123 152.57 19.7088C152.54 19.7054 152.511 19.695 152.487 19.6787C151.474 19.0121 149.484 18.4774 148.471 19.4001Z" fill="black"/>
<path d="M82.6886 25.1498H80.3656C80.3356 25.1498 80.3086 25.1383 80.2876 25.1178C80.2666 25.0972 80.2556 25.0694 80.2556 25.0404V22.9388C80.2556 22.9078 80.2676 22.878 80.2896 22.8561C80.3126 22.8341 80.3416 22.8219 80.3726 22.8219H85.3556C85.3826 22.8219 85.4106 22.8329 85.4296 22.8525C85.4496 22.8721 85.4606 22.8986 85.4606 22.9263V29.6541C85.4606 29.6918 85.4496 29.7288 85.4266 29.76C85.4056 29.7911 85.3746 29.8149 85.3376 29.8282C82.9276 30.7235 79.8276 30.9972 77.5426 29.9302C74.5306 28.5249 73.4626 25.1026 74.1606 21.929C75.2506 16.9745 80.7956 15.6091 85.0136 17.3103C85.0686 17.3325 85.1136 17.3745 85.1396 17.4283C85.1646 17.4821 85.1706 17.5438 85.1526 17.6013L84.5556 19.5587C84.5126 19.698 84.4266 19.7345 84.2976 19.6682C82.6486 18.8274 80.3326 18.723 78.7356 19.6582C77.4426 20.4143 76.7686 21.6769 76.7156 23.4462C76.6676 24.9708 77.1376 26.575 78.4326 27.4778C79.6706 28.3384 81.2076 28.3658 82.6926 28.1394C82.7326 28.1329 82.7686 28.1126 82.7946 28.0821C82.8216 28.0516 82.8356 28.0129 82.8356 27.9728V25.2991C82.8356 25.1996 82.7866 25.1498 82.6886 25.1498Z" fill="black"/>
<path d="M140.607 24.063C141.178 24.7512 141.523 25.3547 141.645 25.8736C142.085 27.7813 142.365 29.0821 142.982 30.3058C142.992 30.3241 142.997 30.3445 142.996 30.365C142.995 30.3855 142.989 30.4055 142.978 30.423C142.967 30.4405 142.952 30.4549 142.934 30.4649C142.916 30.4749 142.896 30.48 142.875 30.4799H140.343C140.282 30.4801 140.224 30.4613 140.175 30.4263C140.127 30.3914 140.092 30.3422 140.075 30.2859C139.755 29.2712 139.396 27.9356 138.998 26.2791C138.859 25.707 138.483 25.3025 137.87 25.0654C137.663 24.9857 137.099 24.9667 136.178 25.0081C136.096 25.0115 136.055 25.0546 136.055 25.1375V30.3232C136.055 30.3661 136.038 30.4072 136.008 30.4375C135.978 30.4678 135.937 30.4849 135.895 30.4849H133.55C133.509 30.4849 133.469 30.4686 133.441 30.4397C133.411 30.4108 133.395 30.3716 133.395 30.3307V17.0741C133.395 17.0571 133.402 17.0406 133.412 17.0275C133.423 17.0144 133.438 17.0053 133.455 17.002C136.545 16.3677 142.58 15.9548 142.31 20.9466C142.252 22.0525 141.692 23.0218 140.63 23.8541C140.551 23.9155 140.544 23.9851 140.607 24.063ZM136.057 19.1011L136.062 22.5334C136.062 22.575 136.079 22.6148 136.108 22.6442C136.138 22.6736 136.178 22.6901 136.22 22.6901L137.618 22.6876C138.155 22.6868 138.672 22.4995 139.052 22.167C139.432 21.8344 139.645 21.3838 139.645 20.9143V20.7103C139.645 20.4777 139.592 20.2475 139.489 20.0327C139.387 19.8179 139.237 19.6229 139.049 19.4587C138.86 19.2944 138.636 19.1643 138.39 19.0756C138.143 18.987 137.879 18.9415 137.613 18.9419L136.215 18.9445C136.173 18.9445 136.133 18.961 136.104 18.9904C136.074 19.0197 136.057 19.0595 136.057 19.1011Z" fill="black"/>
<path d="M63.1404 21.7354V30.3932C63.1404 30.4512 63.1114 30.4802 63.0534 30.4802H60.6954C60.6104 30.4802 60.5684 30.438 60.5684 30.3534V16.8656C60.5684 16.8385 60.5784 16.8126 60.5984 16.7935C60.6174 16.7743 60.6434 16.7636 60.6704 16.7636H62.9504C63.0354 16.7636 63.1184 16.785 63.1924 16.826C63.2664 16.8668 63.3284 16.9259 63.3734 16.9974L68.5804 25.3119C68.6284 25.3882 68.6534 25.3816 68.6534 25.292V16.9128C68.6534 16.8116 68.7034 16.7611 68.8054 16.7611H71.0624C71.1644 16.7611 71.2154 16.8116 71.2154 16.9128V30.3335C71.2154 30.3528 71.2114 30.3719 71.2044 30.3896C71.1964 30.4075 71.1864 30.4237 71.1724 30.4373C71.1584 30.4509 71.1424 30.4617 71.1244 30.4691C71.1064 30.4765 71.0874 30.4802 71.0684 30.4802H68.8454C68.7554 30.4802 68.6874 30.4421 68.6404 30.3658L63.2204 21.713C63.1674 21.6284 63.1404 21.6359 63.1404 21.7354Z" fill="black"/>
<path d="M98.5789 21.7435L98.5759 30.3914C98.5759 30.4494 98.5469 30.4784 98.4889 30.4784H96.1328C96.0488 30.4784 96.0059 30.4361 96.0059 30.3515L96.0109 16.8786C96.0109 16.8515 96.0219 16.8256 96.0409 16.8065C96.0599 16.7874 96.0859 16.7766 96.1129 16.7766H98.3909C98.4759 16.7766 98.5598 16.798 98.6328 16.839C98.7068 16.88 98.7688 16.9389 98.8138 17.0104L104.011 25.3175C104.059 25.3938 104.084 25.3871 104.084 25.2976L104.089 16.9283C104.089 16.8272 104.14 16.7766 104.241 16.7766H106.496C106.598 16.7766 106.648 16.8272 106.646 16.9283L106.641 30.3366C106.641 30.3755 106.626 30.4129 106.598 30.4404C106.57 30.4678 106.532 30.4834 106.493 30.4834L104.273 30.4808C104.183 30.4808 104.115 30.4427 104.069 30.3664L98.6579 21.7211C98.6049 21.6365 98.5789 21.6439 98.5789 21.7435Z" fill="black"/>
<path d="M22.5347 28.1326H27.8667C27.8967 28.1326 27.9257 28.1444 27.9467 28.1655C27.9677 28.1864 27.9797 28.2149 27.9797 28.2446V30.3661C27.9797 30.3958 27.9677 30.4243 27.9467 30.4453C27.9257 30.4662 27.8967 30.478 27.8667 30.478H19.8747C19.8447 30.478 19.8157 30.4662 19.7947 30.4453C19.7737 30.4243 19.7617 30.3958 19.7617 30.3661V16.8808C19.7617 16.851 19.7737 16.8226 19.7947 16.8016C19.8157 16.7806 19.8447 16.7688 19.8747 16.7688H27.5917C27.6217 16.7688 27.6507 16.7806 27.6717 16.8016C27.6927 16.8226 27.7047 16.851 27.7047 16.8808V18.9973C27.7047 19.027 27.6927 19.0555 27.6717 19.0764C27.6507 19.0974 27.6217 19.1092 27.5917 19.1092H22.5467C22.5177 19.1092 22.4887 19.121 22.4677 19.142C22.4467 19.163 22.4347 19.1915 22.4347 19.2211V22.0366C22.4347 22.0663 22.4467 22.0948 22.4677 22.1157C22.4887 22.1368 22.5177 22.1486 22.5467 22.1486H27.2767C27.3067 22.1486 27.3357 22.1604 27.3567 22.1813C27.3777 22.2023 27.3897 22.2308 27.3897 22.2604V24.4243C27.3897 24.439 27.3867 24.4536 27.3807 24.4671C27.3757 24.4807 27.3667 24.493 27.3567 24.5035C27.3457 24.5138 27.3337 24.5221 27.3197 24.5277C27.3067 24.5333 27.2917 24.5362 27.2767 24.5362H22.5347C22.5047 24.5362 22.4757 24.548 22.4547 24.569C22.4337 24.59 22.4217 24.6184 22.4217 24.6482V28.0208C22.4217 28.0504 22.4337 28.0789 22.4547 28.0999C22.4757 28.1208 22.5047 28.1326 22.5347 28.1326Z" fill="black"/>
<path d="M91.8254 16.7579H89.3904C89.3254 16.7579 89.2734 16.8103 89.2734 16.8749V30.3553C89.2734 30.4198 89.3254 30.4722 89.3904 30.4722H91.8254C91.8904 30.4722 91.9434 30.4198 91.9434 30.3553V16.8749C91.9434 16.8103 91.8904 16.7579 91.8254 16.7579Z" fill="black"/>
<path d="M113.348 24.5356C113.238 24.5356 113.183 24.5896 113.183 24.6973L113.193 27.9978C113.195 28.0923 113.243 28.1395 113.338 28.1395L118.588 28.1246C118.7 28.1246 118.756 28.181 118.756 28.2937L118.751 30.3308C118.751 30.4285 118.701 30.4775 118.603 30.4775L110.656 30.4799C110.623 30.4799 110.592 30.4669 110.569 30.4435C110.546 30.4202 110.533 30.3886 110.533 30.3556L110.518 16.9324C110.518 16.8263 110.572 16.7732 110.681 16.7732L118.321 16.7657C118.418 16.7657 118.465 16.8139 118.463 16.91L118.454 18.9669C118.454 19.0038 118.438 19.0393 118.412 19.0653C118.386 19.0915 118.351 19.1061 118.313 19.1061L113.306 19.1087C113.289 19.1087 113.274 19.1117 113.259 19.1176C113.245 19.1235 113.231 19.1322 113.22 19.143C113.209 19.154 113.2 19.1669 113.194 19.181C113.188 19.1951 113.185 19.2104 113.186 19.2256L113.201 22.0311C113.201 22.1156 113.243 22.1579 113.329 22.1579L118.021 22.138C118.054 22.138 118.087 22.1516 118.111 22.1759C118.135 22.2002 118.148 22.2331 118.148 22.2673L118.158 24.3765C118.158 24.4842 118.105 24.539 117.999 24.5406L113.348 24.5356Z" fill="black"/>
<path d="M124.79 24.5337C124.68 24.5337 124.625 24.5876 124.625 24.6954L124.635 27.9959C124.635 28.0904 124.682 28.1376 124.778 28.1376L130.027 28.1277C130.139 28.1277 130.195 28.1841 130.195 28.2968L130.19 30.3338C130.19 30.4316 130.141 30.4805 130.042 30.4805L122.095 30.478C122.062 30.478 122.031 30.465 122.008 30.4416C121.986 30.4183 121.972 30.3866 121.972 30.3537L121.965 16.9329C121.965 16.8269 122.019 16.7738 122.128 16.7738L129.767 16.7688C129.864 16.7688 129.912 16.8169 129.91 16.9131L129.897 18.97C129.897 19.0069 129.883 19.0423 129.857 19.0685C129.83 19.0945 129.794 19.1092 129.758 19.1092H124.75C124.718 19.1093 124.688 19.1213 124.665 19.1427C124.642 19.1642 124.63 19.1933 124.63 19.2236L124.642 22.0292C124.642 22.1137 124.685 22.156 124.77 22.156L129.462 22.1411C129.496 22.1411 129.528 22.1547 129.552 22.179C129.576 22.2032 129.59 22.2361 129.59 22.2704L129.6 24.3796C129.6 24.4873 129.547 24.5412 129.44 24.5412L124.79 24.5337Z" fill="black"/>
</g>
</g>
<defs>
<clipPath id="clip0_14872_47927">
<rect width="200" height="43.0279" fill="white"/>
</clipPath>
</defs>
</svg>
