<svg width="96" height="29" viewBox="0 0 96 29" fill="none" xmlns="http://www.w3.org/2000/svg">
<g clip-path="url(#clip0_14872_47945)">
<mask id="mask0_14872_47945" style="mask-type:luminance" maskUnits="userSpaceOnUse" x="0" y="0" width="96" height="29">
<path d="M96 0H0V28.9655H96V0Z" fill="white"/>
</mask>
<g mask="url(#mask0_14872_47945)">
<path d="M32.2703 0L31.3703 3.5613C31.3703 3.5746 31.3603 3.5864 31.3503 3.5948C31.3403 3.6032 31.3203 3.6077 31.3103 3.6077C27.4003 3.6089 23.4802 3.6092 19.5702 3.6086C19.1802 3.6086 18.8503 3.6046 18.5903 3.5965C17.4203 3.5622 15.4902 3.6523 14.7102 4.641C14.5902 4.7914 14.4903 5.0433 14.4203 5.3967C14.1303 6.7435 13.9402 7.713 13.8202 8.3053C12.7902 13.6423 11.9403 18.1421 11.2703 21.8049C11.1003 22.7054 11.2203 23.8622 12.1203 24.3209C12.2803 24.4031 12.5703 24.4561 12.9803 24.4796C13.9503 24.5346 14.9203 24.5408 15.9003 24.4981C15.9003 24.4981 15.9003 24.4988 15.9103 24.5005C15.9103 24.5005 15.9203 24.505 15.9203 24.5084C15.9203 24.5118 15.9303 24.5158 15.9303 24.5201C15.9303 24.5244 15.9303 24.529 15.9303 24.5335L15.3302 27.8014C15.3302 27.8104 15.3302 27.8186 15.3202 27.8245C15.3102 27.8305 15.3003 27.8338 15.2903 27.8338C13.0803 27.8338 11.5502 27.8341 10.6902 27.8348C8.95023 27.8375 8.19032 26.6427 8.54032 25.0264C8.92032 23.2854 9.27025 21.6121 9.59025 20.0066C10.6403 14.6703 11.6903 9.2012 12.7503 3.5993C12.7903 3.3827 12.8303 3.1475 12.8603 2.8938C13.0603 1.1902 14.5403 0.270199 16.1303 0.0835991C16.5103 0.0395991 16.8003 0.0118 17.0103 0H32.2703Z" fill="black"/>
<path d="M0.958984 27.7621L1.49902 24.4515C1.50902 24.4344 1.51905 24.4188 1.52905 24.4077C1.53905 24.3966 1.55898 24.3907 1.57898 24.3912C2.48898 24.4109 3.57902 24.4122 4.86902 24.3949C5.76902 24.3828 6.09901 23.3783 6.23901 22.6811C7.38901 17.0829 8.559 11.5027 9.729 5.9405C9.989 4.7206 9.34896 3.7727 8.18896 3.4432C7.93896 3.3726 7.59907 3.3389 7.16907 3.342C5.28907 3.3556 3.16908 3.3667 0.809082 3.3754L0.799072 3.3738C0.799072 3.3738 0.799062 3.371 0.789062 3.369C0.789062 3.3669 0.789062 3.3645 0.789062 3.3619C0.789062 3.3593 0.789062 3.3566 0.789062 3.354L1.49902 0.102801C1.49902 0.0946011 1.50903 0.0873006 1.50903 0.0821006C1.51903 0.0769006 1.52906 0.0740012 1.53906 0.0741012C6.48906 0.0771012 9.49908 0.0762012 10.5591 0.0713012C11.1091 0.0688012 11.489 0.111501 11.699 0.199401C12.819 0.657101 12.639 2.0803 12.449 3.0003C10.589 12.1517 9.06904 19.6991 7.88904 25.6426C7.71904 26.5237 7.16907 27.4056 6.29907 27.7259C6.09907 27.8002 5.79906 27.837 5.40906 27.8364C3.60906 27.8327 2.14904 27.833 1.01904 27.8373C1.00904 27.8373 0.999023 27.8352 0.999023 27.8313C0.989023 27.8274 0.978994 27.8216 0.968994 27.8145C0.968994 27.8074 0.958984 27.7989 0.958984 27.7899C0.958984 27.7809 0.958984 27.7714 0.958984 27.7621Z" fill="black"/>
<path d="M0 7.28091C0 7.26851 0 7.25651 0 7.24471L0.72998 4.06221C0.72998 4.04721 0.74 4.03371 0.75 4.02411C0.76 4.01441 0.780039 4.00921 0.790039 4.00931C3.37004 4.00801 5.54006 4.00871 7.31006 4.01111C7.96006 4.01211 8.69 4.34441 9 4.93121C9.27 5.44361 9.28004 6.05641 9.17004 6.61901C8.54004 9.72471 7.51006 14.738 6.06006 21.6587C5.86006 22.615 5.44994 24.027 4.18994 24.0197C3.26994 24.0135 2.43004 24.0035 1.67004 23.99C1.67004 23.99 1.66002 23.9881 1.65002 23.9851C1.65002 23.9821 1.64001 23.9779 1.64001 23.9726C1.63001 23.9673 1.63 23.9611 1.63 23.9545C1.63 23.9479 1.63 23.941 1.63 23.9343L2.18005 20.58C2.18005 20.5642 2.18995 20.5498 2.19995 20.5395C2.21995 20.5291 2.23 20.5234 2.25 20.5234C2.61 20.5234 2.92994 20.5243 3.18994 20.5261C4.06994 20.5308 4.63004 19.2153 4.79004 18.5236C5.48004 15.4067 6.14001 12.491 6.76001 9.77641C6.82001 9.50441 6.83001 9.03841 6.76001 8.74501C6.57001 7.86051 5.99004 7.38401 5.04004 7.31531C3.52004 7.20511 1.84 7.19361 0 7.28091Z" fill="black"/>
<path d="M31.1493 4.19291L30.4293 7.11541C30.4193 7.12601 30.4193 7.13541 30.4093 7.14211C30.3993 7.14881 30.3892 7.15251 30.3792 7.15251C29.2492 7.14511 25.5993 7.14451 19.4093 7.15071C18.6993 7.15131 18.0393 7.31781 17.4293 7.65011C16.8293 7.97691 16.5693 8.46801 16.3893 9.18751C15.7693 11.6989 15.2592 14.3485 14.5892 17.8252C14.4692 18.4423 14.4292 18.844 14.4792 19.0303C14.7292 20.0171 15.8193 20.3699 16.7593 20.4089C16.7693 20.4094 16.7793 20.4119 16.7793 20.4165C16.7893 20.4209 16.7993 20.4272 16.8093 20.4349C16.8093 20.4426 16.8192 20.4515 16.8192 20.4609C16.8192 20.4704 16.8192 20.4802 16.8192 20.4896L16.0892 23.8504C16.0792 23.8625 16.0792 23.8733 16.0692 23.8811C16.0592 23.8889 16.0493 23.8931 16.0293 23.8931C14.3093 23.9012 13.2993 23.8975 13.0093 23.882C12.7493 23.8683 12.4992 23.761 12.2392 23.5598C11.5292 23.0102 11.6592 21.8144 11.8192 21.0616C12.7892 16.5013 13.7392 11.8548 14.6892 7.12191C14.8392 6.35011 14.9892 5.84721 15.1292 5.61331C15.7692 4.57161 16.9593 4.14921 18.1593 4.14641C22.1193 4.13651 26.4392 4.13531 31.1092 4.14271C31.1092 4.14271 31.1192 4.14431 31.1292 4.14701C31.1292 4.14981 31.1393 4.15371 31.1393 4.15851C31.1393 4.16331 31.1493 4.16891 31.1493 4.17481C31.1493 4.18081 31.1493 4.18691 31.1493 4.19291Z" fill="black"/>
<path d="M32.8691 10.3139C33.1891 10.6506 33.3591 11.0625 33.3891 11.5496C33.4491 12.6191 33.1391 13.4698 32.4591 14.1018C31.7791 14.7336 30.9091 14.9884 29.8291 14.8658C29.3391 14.8101 28.9391 14.6142 28.6191 14.2781C28.2991 13.942 28.1191 13.5301 28.0991 13.0424C28.0391 11.9735 28.3491 11.1232 29.0191 10.4912C29.6991 9.85929 30.5791 9.60429 31.6491 9.72619C32.1391 9.78189 32.5491 9.97779 32.8691 10.3139ZM29.7892 11.933C29.5592 12.517 29.4391 13.411 30.1891 13.6997C30.9391 13.9885 31.4591 13.243 31.6891 12.6599C31.9191 12.076 32.0392 11.182 31.2892 10.8932C30.5292 10.6045 30.0192 11.35 29.7892 11.933Z" fill="black"/>
<path d="M35.5499 11.8113C35.5399 11.8159 35.5499 11.8207 35.5499 11.825C35.5499 11.8293 35.5499 11.8327 35.5599 11.8347L35.5698 11.8355C35.5798 11.8341 35.5798 11.8311 35.5798 11.8271C35.9898 11.3063 36.3598 10.8959 37.0898 11.1828C37.0998 11.1856 37.0999 11.1897 37.1099 11.1949C37.1099 11.2002 37.1199 11.2064 37.1199 11.2133C37.1199 11.2202 37.1199 11.2275 37.1199 11.2349C37.1199 11.2423 37.1199 11.2495 37.1199 11.2562L36.6499 12.2254C36.6399 12.2398 36.6299 12.2513 36.6199 12.2585C36.5999 12.2657 36.5898 12.2681 36.5698 12.2653C35.7698 12.1242 35.4499 12.7221 35.3099 13.3738C35.1199 14.262 35.0199 14.724 35.0099 14.7598C35.0099 14.7746 34.9999 14.7877 34.9899 14.7972C34.9699 14.8066 34.9598 14.8118 34.9398 14.8119L33.6199 14.8109C33.6199 14.8109 33.6099 14.8097 33.6099 14.8076C33.5999 14.8055 33.5999 14.8024 33.5999 14.7986C33.5899 14.7948 33.5898 14.7904 33.5898 14.7856C33.5898 14.7808 33.5898 14.7758 33.5898 14.771L34.3699 11.2246C34.3699 11.2098 34.3799 11.1967 34.3899 11.1872C34.3999 11.1778 34.4199 11.1727 34.4299 11.1726L35.6299 11.1735C35.6399 11.1735 35.6399 11.175 35.6499 11.1779C35.6599 11.1807 35.6599 11.1848 35.6599 11.19C35.6699 11.1952 35.6699 11.2012 35.6699 11.2077C35.6799 11.2141 35.6799 11.2208 35.6699 11.2274L35.5499 11.8113Z" fill="black"/>
<path d="M41.0498 13.93C40.4498 14.852 39.4697 14.9856 38.4397 14.8538C37.5797 14.7415 37.0098 14.1158 37.0098 13.244C37.0098 12.1634 37.8198 11.2377 38.9298 11.1153C39.8698 11.0112 40.9597 11.1542 41.2397 12.1894C41.3297 12.5093 41.3197 12.8798 41.2097 13.3007C41.1997 13.3134 41.1997 13.3248 41.1897 13.3328C41.1697 13.3408 41.1598 13.3452 41.1498 13.3452H38.5298C38.5098 13.3453 38.4797 13.3513 38.4597 13.3629C38.4397 13.3745 38.4198 13.3911 38.4098 13.4113C38.3998 13.4315 38.3898 13.4545 38.3898 13.4782C38.3898 13.5019 38.3898 13.5254 38.4098 13.5466L38.5198 13.7695C38.5498 13.8408 38.6098 13.9027 38.6698 13.9507C38.7398 13.9987 38.8098 14.0313 38.8898 14.0462C39.2198 14.1062 39.4798 14.0202 39.6798 13.788C39.6898 13.7743 39.7097 13.7635 39.7197 13.7568C39.7397 13.75 39.7598 13.7473 39.7798 13.7491L41.0198 13.8633C41.0198 13.8633 41.0298 13.8666 41.0398 13.8709C41.0398 13.8751 41.0498 13.8809 41.0498 13.8876C41.0598 13.8943 41.0598 13.9017 41.0598 13.9092C41.0598 13.9166 41.0498 13.9238 41.0498 13.93ZM38.5897 12.6684L39.8397 12.6666C39.8597 12.6665 39.8698 12.6607 39.8898 12.6501C39.8998 12.6395 39.9098 12.6249 39.9098 12.609C39.9498 12.307 39.8698 12.1006 39.6498 11.9898C39.1498 11.7391 38.6998 12.1281 38.5398 12.6052C38.5398 12.6125 38.5398 12.6201 38.5398 12.6276C38.5398 12.6351 38.5398 12.6422 38.5498 12.6484C38.5498 12.6545 38.5598 12.6595 38.5598 12.663C38.5698 12.6665 38.5797 12.6683 38.5897 12.6684Z" fill="black"/>
<path d="M46.2699 11.1715C46.2699 11.1715 46.2799 11.1728 46.2899 11.1751C46.2899 11.1774 46.2899 11.1808 46.2999 11.185C46.2999 11.1892 46.2999 11.1941 46.2999 11.1993C46.3099 11.2045 46.3099 11.2099 46.3099 11.2152C45.8399 13.3573 45.5998 14.4766 45.5798 14.5732C45.4198 15.3131 45.1698 16.0075 44.3298 16.1876C43.7698 16.309 43.2298 16.3191 42.6998 16.2183C42.1198 16.1069 41.7799 15.712 41.6699 15.0336C41.6699 15.0146 41.6699 14.9952 41.6799 14.977C41.6799 14.9587 41.6898 14.9422 41.7098 14.9287C41.7198 14.9152 41.7399 14.9051 41.7599 14.8993C41.7799 14.8935 41.7999 14.8921 41.8099 14.8953L43.0099 15.0884C43.0199 15.0905 43.0299 15.097 43.0399 15.1068C43.0499 15.1166 43.0599 15.1293 43.0599 15.1432C43.1599 15.6575 43.8499 15.4607 44.0099 15.0801C44.1199 14.8214 44.1999 14.5481 44.2399 14.2603C44.2399 14.2549 44.2299 14.2494 44.2299 14.2446C44.2299 14.2398 44.2298 14.2359 44.2198 14.2334C44.2198 14.2309 44.2098 14.2299 44.1998 14.2306C44.1998 14.2306 44.1898 14.2335 44.1898 14.2371C43.5598 14.821 42.4998 14.8814 42.0898 14.0366C41.5298 12.8547 42.3299 11.0769 43.7899 11.0918C44.2099 11.0961 44.5598 11.2758 44.8398 11.6311C44.8398 11.6367 44.8499 11.641 44.8599 11.6434C44.8599 11.6458 44.8699 11.6462 44.8799 11.6446C44.8899 11.643 44.8899 11.6395 44.8999 11.6346C44.8999 11.6295 44.9099 11.6232 44.9099 11.6163L44.9899 11.2236C44.9999 11.2089 44.9999 11.1958 45.0199 11.1863C45.0299 11.1768 45.0399 11.1716 45.0599 11.1715H46.2699ZM44.2499 12.0377C44.1799 12.0112 44.0999 12.0068 44.0099 12.0248C43.9299 12.0427 43.8499 12.0826 43.7699 12.1422C43.6899 12.2018 43.6099 12.2799 43.5399 12.3721C43.4799 12.4642 43.4199 12.5687 43.3799 12.6794C43.2999 12.903 43.2798 13.1386 43.3298 13.3345C43.3698 13.5303 43.4799 13.6704 43.6299 13.7238C43.6999 13.7502 43.7799 13.7546 43.8599 13.7367C43.9499 13.7187 44.0299 13.6788 44.1099 13.6192C44.1899 13.5596 44.2698 13.4815 44.3298 13.3893C44.3998 13.2972 44.4499 13.1928 44.4899 13.082C44.5799 12.8584 44.5999 12.6228 44.5499 12.4269C44.5099 12.2311 44.3999 12.0911 44.2499 12.0377Z" fill="black"/>
<path d="M48.3602 11.1384C48.9602 11.0353 49.5702 11.0817 50.0802 11.3705C50.5002 11.6091 50.7803 12.1754 50.7903 12.6786C50.7903 13.7806 50.1102 14.6569 49.0002 14.8482C48.4002 14.9503 47.7903 14.9049 47.2803 14.6152C46.8603 14.3766 46.5802 13.8112 46.5802 13.308C46.5702 12.2051 47.2502 11.3296 48.3602 11.1384ZM48.9902 12.0312C48.9002 12.0042 48.8102 12.0022 48.7102 12.0252C48.6102 12.0482 48.5203 12.0958 48.4303 12.1652C48.3403 12.2347 48.2602 12.3245 48.1902 12.4299C48.1202 12.5352 48.0603 12.6537 48.0203 12.7789C47.9803 12.904 47.9602 13.0332 47.9602 13.1592C47.9602 13.285 47.9702 13.4052 48.0102 13.5128C48.0402 13.6203 48.0903 13.7131 48.1603 13.7858C48.2203 13.8586 48.3002 13.9099 48.3902 13.9368C48.4702 13.9638 48.5703 13.9658 48.6603 13.9429C48.7603 13.9199 48.8602 13.8723 48.9502 13.8029C49.0402 13.7334 49.1202 13.6435 49.1902 13.5382C49.2602 13.4328 49.3102 13.3142 49.3502 13.1891C49.3902 13.064 49.4103 12.9348 49.4203 12.8088C49.4203 12.683 49.4002 12.5628 49.3702 12.4553C49.3402 12.3478 49.2802 12.2549 49.2202 12.1822C49.1502 12.1094 49.0702 12.058 48.9902 12.0312Z" fill="black"/>
<path d="M53.1094 11.657C53.1094 11.6616 53.1094 11.6666 53.1094 11.671C53.1094 11.6754 53.1094 11.6792 53.1194 11.6817C53.1194 11.6842 53.1294 11.6852 53.1294 11.6852C53.1394 11.6849 53.1394 11.6831 53.1494 11.6802C53.2194 11.6183 53.2994 11.5542 53.3794 11.488C54.1294 10.8549 55.7694 10.8642 55.4794 12.3004C55.3394 13.0462 55.1594 13.8659 54.9594 14.7596C54.9594 14.7746 54.9493 14.788 54.9393 14.7976C54.9293 14.8073 54.9094 14.8125 54.8994 14.8126L53.5793 14.8116C53.5693 14.8116 53.5694 14.8105 53.5594 14.8084C53.5594 14.8084 53.5594 14.8035 53.5494 14.7998C53.5494 14.7962 53.5494 14.792 53.5494 14.7874C53.5494 14.7829 53.5494 14.7781 53.5494 14.7735C53.7594 13.8464 53.9194 13.0839 54.0294 12.486C54.0594 12.335 54.0194 12.2233 53.9094 12.1509C53.8794 12.1305 53.8493 12.1189 53.8193 12.1175C53.2993 12.0952 53.0394 12.6002 52.9194 13.0319C52.8894 13.1563 52.7594 13.7319 52.5394 14.7587C52.5394 14.7737 52.5294 14.7871 52.5194 14.7967C52.4994 14.8063 52.4894 14.8116 52.4694 14.8116L51.1394 14.8107C51.1294 14.8107 51.1294 14.8077 51.1294 14.8077C51.1194 14.8058 51.1194 14.803 51.1194 14.7995C51.1094 14.796 51.1094 14.792 51.1094 14.7877C51.1094 14.7833 51.1094 14.7788 51.1094 14.7745L51.8894 11.2049C51.8894 11.1954 51.8994 11.1868 51.8994 11.1808C51.9094 11.1747 51.9194 11.1714 51.9294 11.1714L53.1594 11.1724C53.1694 11.1724 53.1694 11.1738 53.1794 11.1766C53.1794 11.1793 53.1893 11.1834 53.1893 11.1883C53.1993 11.1933 53.1993 11.1992 53.1993 11.2054C53.1993 11.2116 53.1993 11.2181 53.1993 11.2243L53.1094 11.657Z" fill="black"/>
<path d="M27.75 21.0987L28.8199 16.1941C28.8199 16.1804 28.83 16.1681 28.84 16.1592C28.85 16.1503 28.86 16.1452 28.88 16.1449C29.31 16.1374 30.02 16.1378 31 16.1458C31.82 16.1523 32.5 16.442 32.84 17.219C33.24 18.1381 33.0199 19.3432 32.4399 20.1759C32.0099 20.7868 31.4 21.1139 30.6 21.1572C30.18 21.1802 29.2501 21.1841 27.8101 21.1693C27.8001 21.1693 27.79 21.1674 27.78 21.1637C27.77 21.16 27.77 21.1545 27.76 21.1478C27.75 21.141 27.75 21.1331 27.75 21.1246C27.75 21.1161 27.75 21.1073 27.75 21.0987ZM29.63 20.0534C30.34 20.0552 30.83 20.0979 31.15 19.4527C31.42 18.9161 31.84 17.5394 31.03 17.3008C30.86 17.2519 30.59 17.237 30.22 17.2562C30.21 17.2571 30.1901 17.2627 30.1801 17.2723C30.1701 17.2818 30.16 17.2948 30.16 17.309L29.5699 19.9828C29.5699 19.9914 29.5699 20.0003 29.5699 20.0087C29.5799 20.0172 29.58 20.0252 29.59 20.032C29.59 20.0388 29.6 20.0441 29.61 20.0479C29.61 20.0516 29.62 20.0535 29.63 20.0534Z" fill="black"/>
<path d="M53.7303 16.2442L53.4603 17.4864C53.4503 17.4916 53.4503 17.497 53.4603 17.5022C53.4603 17.5074 53.4603 17.5123 53.4603 17.5165C53.4703 17.5207 53.4703 17.5241 53.4803 17.5264C53.4803 17.5287 53.4904 17.5301 53.4904 17.5301H54.1204C54.1304 17.53 54.1404 17.5315 54.1404 17.5345C54.1504 17.5373 54.1604 17.5417 54.1604 17.547C54.1604 17.5523 54.1704 17.5586 54.1704 17.5653C54.1704 17.572 54.1704 17.579 54.1704 17.5858L53.9703 18.4816C53.9703 18.4964 53.9603 18.5096 53.9503 18.519C53.9403 18.5285 53.9204 18.5336 53.9104 18.5336H53.2804C53.2704 18.5336 53.2604 18.5386 53.2404 18.5479C53.2304 18.5572 53.2203 18.5702 53.2203 18.5847L52.9204 19.9568C52.9104 20.0003 52.9203 20.0458 52.9403 20.0859C52.9603 20.1261 52.9904 20.1587 53.0304 20.1787C53.1704 20.248 53.3604 20.2459 53.6204 20.1722C53.6304 20.1696 53.6304 20.1692 53.6404 20.1712C53.6504 20.1733 53.6604 20.1776 53.6704 20.1838C53.6704 20.19 53.6804 20.1979 53.6804 20.2066C53.6804 20.2153 53.6904 20.2246 53.6804 20.2335L53.4904 21.1154C53.4904 21.1312 53.4803 21.1455 53.4703 21.1565C53.4603 21.1676 53.4404 21.1746 53.4204 21.1767C52.6904 21.2761 51.6603 21.4394 51.4703 20.511C51.4503 20.4021 51.4604 20.2214 51.5204 19.9689C51.5804 19.6755 51.6804 19.2172 51.8104 18.5939C51.8104 18.5866 51.8104 18.5791 51.8104 18.5718C51.8004 18.5646 51.8004 18.5578 51.8004 18.5521C51.7904 18.5463 51.7904 18.5416 51.7804 18.5384C51.7704 18.5353 51.7604 18.5336 51.7604 18.5336H51.3704C51.3604 18.5337 51.3603 18.5321 51.3503 18.529C51.3403 18.526 51.3403 18.5215 51.3303 18.516C51.3303 18.5104 51.3203 18.504 51.3203 18.4971C51.3203 18.4901 51.3203 18.4829 51.3203 18.4761L51.5204 17.5774C51.5204 17.564 51.5304 17.552 51.5404 17.5434C51.5504 17.5348 51.5603 17.5301 51.5803 17.5301H51.9904C52.0004 17.5301 52.0104 17.5261 52.0204 17.5186C52.0304 17.5112 52.0404 17.5008 52.0404 17.4892L52.1504 17.0157C52.1504 16.9992 52.1604 16.9836 52.1704 16.9701C52.1804 16.9567 52.1903 16.9456 52.2103 16.9378L53.6804 16.2089C53.6904 16.2063 53.6903 16.2053 53.7003 16.206C53.7003 16.206 53.7103 16.2089 53.7103 16.2126C53.7203 16.2163 53.7203 16.2212 53.7303 16.2268C53.7303 16.2324 53.7303 16.2385 53.7303 16.2442Z" fill="black"/>
<path d="M73.389 16.2155C73.399 16.2128 73.3991 16.2118 73.4091 16.2125C73.4091 16.2125 73.4191 16.2154 73.4291 16.2191C73.4291 16.2227 73.429 16.2277 73.439 16.2333C73.439 16.2389 73.439 16.2449 73.439 16.2507L73.1691 17.491C73.1691 17.4961 73.1691 17.5013 73.1691 17.5063C73.1691 17.5114 73.1691 17.5161 73.1691 17.5201C73.1791 17.5242 73.179 17.5275 73.189 17.5299C73.189 17.5322 73.199 17.5337 73.199 17.5337H73.829C73.839 17.5337 73.849 17.5352 73.849 17.5382C73.859 17.5411 73.869 17.5455 73.869 17.5508C73.869 17.5561 73.879 17.5624 73.879 17.5691C73.879 17.5758 73.879 17.5827 73.879 17.5894L73.6791 18.4835C73.6791 18.4982 73.6691 18.5114 73.6591 18.5209C73.6491 18.5303 73.629 18.5354 73.619 18.5354H72.999C72.979 18.5354 72.969 18.5405 72.959 18.5497C72.939 18.559 72.9391 18.572 72.9291 18.5865L72.629 19.9568C72.629 20.0003 72.629 20.0456 72.649 20.0856C72.669 20.1256 72.699 20.158 72.739 20.1778C72.879 20.247 73.069 20.2449 73.329 20.1712C73.339 20.1686 73.339 20.1683 73.349 20.1703C73.359 20.1723 73.369 20.1767 73.379 20.1829C73.379 20.1891 73.389 20.197 73.389 20.2057C73.389 20.2144 73.399 20.2236 73.389 20.2326L73.199 21.1126C73.199 21.1283 73.1891 21.1427 73.1791 21.1537C73.1691 21.1647 73.149 21.1717 73.139 21.1739C72.399 21.2733 71.3691 21.4366 71.1791 20.5101C71.1591 20.4012 71.179 20.2208 71.229 19.9689C71.289 19.6761 71.389 19.2184 71.519 18.5958C71.519 18.5886 71.519 18.5811 71.519 18.574C71.519 18.5669 71.519 18.5602 71.509 18.5545C71.509 18.5488 71.499 18.5443 71.489 18.5411C71.489 18.538 71.479 18.5364 71.469 18.5363H71.079C71.079 18.5363 71.0691 18.5349 71.0591 18.5318C71.0591 18.5287 71.0491 18.5243 71.0491 18.5187C71.0391 18.5133 71.0391 18.5068 71.0391 18.4998C71.0391 18.493 71.0391 18.4858 71.0391 18.4788L71.229 17.582C71.229 17.5686 71.239 17.5566 71.249 17.548C71.259 17.5394 71.2791 17.5347 71.2891 17.5346H71.699C71.719 17.5347 71.729 17.5307 71.739 17.5232C71.749 17.5158 71.749 17.5054 71.759 17.4938L71.859 17.0213C71.859 17.0046 71.869 16.9891 71.879 16.9756C71.889 16.9621 71.8991 16.9511 71.9191 16.9432L73.389 16.2155Z" fill="black"/>
<path d="M37.4004 20.2256C37.4104 20.2263 37.4204 20.229 37.4304 20.2332C37.4304 20.2375 37.4403 20.2432 37.4403 20.2499C37.4403 20.2566 37.4403 20.2641 37.4403 20.2715C37.4403 20.279 37.4403 20.2862 37.4403 20.2924C36.8403 21.2143 35.8603 21.3461 34.8303 21.2134C33.9603 21.0992 33.4004 20.4725 33.4004 19.6008C33.4004 18.5202 34.2203 17.5964 35.3203 17.4748C36.2703 17.3727 37.3504 17.5166 37.6304 18.5527C37.7204 18.8726 37.7103 19.2431 37.6003 19.6639C37.5903 19.6767 37.5803 19.6881 37.5703 19.6961C37.5603 19.7041 37.5504 19.7085 37.5404 19.7085L34.9204 19.7048C34.9004 19.7049 34.8703 19.711 34.8503 19.7225C34.8303 19.734 34.8104 19.7505 34.8004 19.7707C34.7904 19.7907 34.7804 19.8135 34.7804 19.8371C34.7804 19.8607 34.7804 19.8841 34.7904 19.9053L34.9104 20.1291C34.9404 20.2003 34.9904 20.2623 35.0604 20.3103C35.1204 20.3583 35.2004 20.3909 35.2804 20.4057C35.6004 20.4664 35.8703 20.3807 36.0703 20.1485C36.0803 20.135 36.0904 20.1244 36.1104 20.1178C36.1304 20.1111 36.1504 20.1086 36.1604 20.1105L37.4004 20.2256ZM34.9803 19.0271H36.2303C36.2503 19.0271 36.2604 19.0212 36.2804 19.0106C36.2904 19 36.3004 18.9854 36.3004 18.9695C36.3404 18.6675 36.2604 18.4611 36.0404 18.3503C35.5404 18.0987 35.0904 18.4867 34.9304 18.9639C34.9304 18.9711 34.9304 18.9788 34.9304 18.9863C34.9304 18.9938 34.9303 19.0008 34.9403 19.007C34.9403 19.0132 34.9503 19.0182 34.9503 19.0217C34.9603 19.0252 34.9703 19.027 34.9803 19.0271Z" fill="black"/>
<path d="M40.1591 17.8949C40.1591 17.8949 40.229 17.837 40.359 17.7269C40.669 17.4576 41.139 17.4065 41.569 17.4864C42.179 17.5978 42.469 18.1595 42.519 18.7295C42.599 19.7739 42.089 21.1498 40.869 21.2464C40.369 21.2859 39.959 21.1179 39.639 20.7422C39.639 20.7375 39.629 20.732 39.629 20.732C39.619 20.7301 39.619 20.7299 39.609 20.7314C39.599 20.733 39.599 20.7362 39.589 20.7407C39.589 20.7453 39.589 20.7509 39.579 20.7571L39.199 22.5127C39.199 22.5266 39.1891 22.5391 39.1791 22.5481C39.1691 22.5571 39.149 22.5619 39.139 22.5619H37.839C37.829 22.5619 37.819 22.5603 37.819 22.5572C37.809 22.554 37.7991 22.5495 37.7991 22.5438C37.7991 22.5381 37.7891 22.5314 37.7891 22.5242C37.7891 22.5171 37.7891 22.5097 37.7891 22.5025L38.859 17.5848C38.869 17.5702 38.869 17.557 38.889 17.5476C38.899 17.5381 38.9091 17.5329 38.9291 17.5328H40.119C40.129 17.5328 40.139 17.5344 40.139 17.5374C40.149 17.5404 40.1591 17.5447 40.1591 17.5501C40.1591 17.5555 40.1691 17.5619 40.1691 17.5687C40.1691 17.5754 40.1691 17.5826 40.1691 17.5894L40.119 17.8634C40.119 17.8683 40.119 17.8735 40.119 17.8783C40.119 17.8831 40.119 17.8873 40.129 17.8905C40.129 17.8937 40.139 17.8966 40.139 17.8966C40.149 17.8974 40.1491 17.8968 40.1591 17.8949ZM40.759 18.3655C40.599 18.3247 40.419 18.388 40.259 18.5415C40.099 18.695 39.9691 18.9262 39.9091 19.1844C39.8391 19.4424 39.839 19.7061 39.899 19.9175C39.959 20.1289 40.089 20.2706 40.249 20.3115C40.409 20.3524 40.589 20.2891 40.749 20.1356C40.909 19.982 41.029 19.7508 41.099 19.4927C41.169 19.2347 41.169 18.971 41.109 18.7596C41.039 18.5482 40.919 18.4064 40.759 18.3655Z" fill="black"/>
<path d="M45.5195 20.8004C45.5195 20.7956 45.5195 20.7913 45.5095 20.7876C45.5095 20.7841 45.5095 20.7815 45.4995 20.7802L45.4895 20.7804C45.4795 20.7818 45.4795 20.7845 45.4795 20.7883C45.4095 20.8644 45.1695 21.025 45.0095 21.0946C44.1895 21.4511 42.9395 21.2459 42.9795 20.1077C43.0095 19.3854 43.6295 19.1162 44.2695 19.0383C44.9195 18.9572 45.4195 18.8897 45.7595 18.8358C45.7695 18.8333 45.7895 18.8271 45.7995 18.8176C45.8095 18.8082 45.8194 18.7959 45.8294 18.782C45.9294 18.5332 45.8595 18.3766 45.6095 18.3122C45.1895 18.2052 44.8994 18.3061 44.7194 18.6149C44.7094 18.6284 44.6994 18.6395 44.6894 18.6467C44.6694 18.654 44.6595 18.6571 44.6395 18.6557L43.4394 18.5462C43.4294 18.5453 43.4195 18.5425 43.4095 18.5379C43.4095 18.5334 43.3995 18.5274 43.3995 18.5202C43.3895 18.5131 43.3895 18.505 43.3895 18.4967C43.3895 18.4883 43.3895 18.4799 43.3895 18.4719C43.5595 18.0108 43.8495 17.7184 44.2695 17.5946C44.8295 17.4293 45.4895 17.4015 46.2395 17.511C47.0895 17.6345 47.3395 18.1554 47.1795 18.9547C47.0695 19.474 46.9895 19.8893 46.9195 20.2006C46.8495 20.5113 46.8495 20.8152 46.9295 21.1123C46.9295 21.119 46.9295 21.1261 46.9295 21.1329C46.9295 21.1397 46.9295 21.146 46.9195 21.1515C46.9195 21.157 46.9095 21.1614 46.8995 21.1644C46.8995 21.1674 46.8895 21.169 46.8795 21.1689H45.6195C45.6095 21.169 45.5894 21.1631 45.5794 21.1523C45.5694 21.1416 45.5595 21.1266 45.5595 21.1104L45.5195 20.8004ZM45.5894 19.5619C45.1294 19.6411 44.8095 19.7153 44.6295 19.7847C44.0595 20.0084 44.4695 20.6564 44.9995 20.4586C45.3795 20.3151 45.5895 20.0344 45.6495 19.6167C45.6495 19.609 45.6495 19.6013 45.6495 19.5941C45.6395 19.5869 45.6395 19.5804 45.6295 19.575C45.6295 19.5697 45.6195 19.5658 45.6195 19.5635C45.6095 19.5612 45.5994 19.5606 45.5894 19.5619Z" fill="black"/>
<path d="M49.5698 18.1877C49.9798 17.666 50.3498 17.2547 51.0698 17.5416C51.0798 17.5443 51.0898 17.5484 51.0898 17.5537C51.0998 17.5589 51.0998 17.5652 51.1098 17.5721C51.1098 17.579 51.1098 17.5863 51.1098 17.5936C51.1098 17.601 51.1098 17.6083 51.0998 17.6149L50.6398 18.5851C50.6298 18.5995 50.6198 18.6112 50.5998 18.6186C50.5898 18.626 50.5699 18.6285 50.5599 18.6259C49.7499 18.4848 49.4399 19.0836 49.2999 19.7362C49.0999 20.625 48.9998 21.0874 48.9998 21.1233C48.9898 21.1379 48.9798 21.1511 48.9698 21.1606C48.9598 21.17 48.9499 21.1752 48.9299 21.1752H47.6098C47.5998 21.1752 47.5998 21.1741 47.5898 21.1719C47.5898 21.1698 47.5898 21.1667 47.5798 21.1629C47.5798 21.1591 47.5798 21.1546 47.5798 21.1499C47.5698 21.1451 47.5698 21.1402 47.5798 21.1354L48.3498 17.5852C48.3498 17.5704 48.3598 17.5573 48.3698 17.5479C48.3798 17.5384 48.3998 17.5332 48.4098 17.5332H49.6198C49.6198 17.5332 49.6298 17.5347 49.6298 17.5375C49.6398 17.5404 49.6498 17.5445 49.6498 17.5497C49.6498 17.5549 49.6598 17.5609 49.6598 17.5674C49.6598 17.5738 49.6598 17.5805 49.6598 17.5871L49.5298 18.1719C49.5298 18.1762 49.5298 18.1806 49.5298 18.1845C49.5398 18.1883 49.5398 18.1932 49.5398 18.1932C49.5498 18.195 49.5499 18.1954 49.5599 18.1944C49.5599 18.1944 49.5598 18.1911 49.5698 18.1877Z" fill="black"/>
<path d="M56.2596 17.5841L56.1797 17.975C56.1697 17.9827 56.1797 17.9909 56.1797 17.9981C56.1797 18.0053 56.1896 18.0113 56.1896 18.0152C56.1996 18.019 56.2096 18.0205 56.2196 18.0195C56.2296 18.0184 56.2296 18.0149 56.2396 18.0093C56.8496 17.4133 58.0096 17.1087 58.4896 18.0093C58.4996 18.0151 58.4996 18.0201 58.5096 18.024C58.5096 18.0278 58.5197 18.0316 58.5197 18.0316C58.5297 18.0327 58.5397 18.0307 58.5397 18.0307C58.5497 18.0288 58.5597 18.0257 58.5597 18.0214C58.9097 17.7215 59.2396 17.5181 59.7196 17.4597C60.4796 17.3678 61.0297 17.7883 60.9097 18.5737C60.8697 18.8442 60.6896 19.6937 60.3696 21.1222C60.3696 21.1369 60.3596 21.1501 60.3396 21.1595C60.3296 21.1689 60.3197 21.1741 60.2997 21.1742H58.9996C58.9996 21.1742 58.9896 21.1726 58.9796 21.1694C58.9796 21.1664 58.9696 21.1618 58.9696 21.1562C58.9596 21.1507 58.9596 21.144 58.9596 21.1371C58.9596 21.13 58.9596 21.1227 58.9596 21.1156C58.9596 21.1076 59.0996 20.4373 59.3896 19.1048C59.4296 18.9296 59.4397 18.7742 59.4097 18.6388C59.4097 18.5961 59.3896 18.5572 59.3496 18.5282C59.3196 18.4992 59.2796 18.4819 59.2396 18.479C58.6696 18.441 58.4496 18.9888 58.3496 19.4436C58.2296 19.9877 58.1096 20.5456 57.9896 21.1175C57.9796 21.1334 57.9696 21.1478 57.9596 21.1581C57.9496 21.1685 57.9297 21.1741 57.9197 21.1742H56.6196C56.6096 21.1742 56.5996 21.1726 56.5996 21.1694C56.5896 21.1663 56.5796 21.1617 56.5796 21.156C56.5696 21.1503 56.5696 21.1437 56.5696 21.1365C56.5696 21.1294 56.5696 21.1219 56.5696 21.1147C56.8496 19.8447 56.9896 19.1741 56.9996 19.103C57.0396 18.9457 57.0497 18.8064 57.0397 18.6851C57.0397 18.636 57.0196 18.5889 56.9796 18.5522C56.9496 18.5155 56.8996 18.4913 56.8496 18.4837C56.4196 18.4215 56.0996 18.8913 56.0096 19.2644C55.8796 19.8184 55.7496 20.4364 55.6096 21.1185C55.5996 21.1342 55.5896 21.1484 55.5796 21.1585C55.5696 21.1687 55.5497 21.1742 55.5397 21.1742H54.2296C54.2196 21.1742 54.2096 21.1726 54.2096 21.1694C54.1996 21.1662 54.1996 21.1616 54.1896 21.1558C54.1896 21.15 54.1797 21.1432 54.1797 21.1359C54.1797 21.1287 54.1797 21.1211 54.1797 21.1138L54.9496 17.5729C54.9496 17.5617 54.9596 17.5515 54.9696 17.5442C54.9796 17.5369 54.9896 17.533 54.9996 17.533H56.2196C56.2296 17.533 56.2296 17.5344 56.2396 17.5371C56.2396 17.5398 56.2496 17.5437 56.2496 17.5486C56.2596 17.5535 56.2596 17.5592 56.2596 17.5654C56.2596 17.5715 56.2596 17.5779 56.2596 17.5841Z" fill="black"/>
<path d="M65.4807 20.2256C65.4807 20.2256 65.4907 20.229 65.5007 20.2332C65.5007 20.2375 65.5107 20.2433 65.5107 20.25C65.5107 20.2567 65.5208 20.2641 65.5208 20.2715C65.5208 20.279 65.5107 20.2862 65.5107 20.2925C64.9107 21.2134 63.9308 21.3461 62.9008 21.2134C62.0408 21.1002 61.4707 20.4735 61.4707 19.6017C61.4707 18.5211 62.2907 17.5964 63.3907 17.4749C64.3407 17.3727 65.4207 17.5166 65.7107 18.5517C65.7907 18.8723 65.7808 19.2427 65.6708 19.663C65.6608 19.6758 65.6607 19.6871 65.6407 19.6952C65.6307 19.7032 65.6207 19.7076 65.6107 19.7076L62.9907 19.7048C62.9707 19.7049 62.9408 19.7109 62.9208 19.7225C62.9008 19.7341 62.8807 19.7507 62.8707 19.7709C62.8607 19.7911 62.8507 19.8141 62.8507 19.8378C62.8507 19.8614 62.8507 19.885 62.8707 19.9062L62.9807 20.1291C63.0107 20.2002 63.0707 20.2622 63.1307 20.3102C63.1907 20.3582 63.2707 20.3909 63.3507 20.4058C63.6807 20.4664 63.9407 20.3807 64.1407 20.1485C64.1507 20.135 64.1708 20.1245 64.1808 20.1178C64.2008 20.1111 64.2207 20.1086 64.2407 20.1105L65.4807 20.2256ZM63.0508 19.0271L64.3008 19.0253C64.3208 19.0252 64.3307 19.0194 64.3507 19.0088C64.3607 18.9982 64.3707 18.9836 64.3707 18.9677C64.4107 18.6662 64.3307 18.4604 64.1107 18.3503C63.6107 18.0996 63.1607 18.4877 63.0007 18.9639C63.0007 18.9711 63.0007 18.9788 63.0007 18.9863C63.0007 18.9938 63.0107 19.0008 63.0107 19.007C63.0107 19.0132 63.0208 19.0182 63.0308 19.0217C63.0308 19.0252 63.0408 19.027 63.0508 19.0271Z" fill="black"/>
<path d="M68.0395 18.04C68.1195 17.9781 68.1995 17.914 68.2795 17.8478C69.0295 17.2137 70.6594 17.2221 70.3794 18.6592C70.2294 19.4056 70.0594 20.226 69.8594 21.1203C69.8594 21.1353 69.8494 21.1487 69.8394 21.1583C69.8294 21.168 69.8095 21.1732 69.7995 21.1733H68.4794C68.4694 21.1732 68.4694 21.1721 68.4594 21.1701C68.4594 21.1681 68.4494 21.1652 68.4494 21.1615C68.4494 21.1578 68.4494 21.1536 68.4494 21.149C68.4394 21.1445 68.4394 21.1398 68.4394 21.1352C68.6494 20.2074 68.8095 19.4443 68.9295 18.8458C68.9495 18.6948 68.9195 18.5831 68.8095 18.5107C68.7795 18.4901 68.7494 18.4784 68.7094 18.4773C68.1994 18.4559 67.9394 18.9609 67.8194 19.3926C67.7794 19.5176 67.6594 20.0939 67.4394 21.1213C67.4294 21.1363 67.4295 21.1496 67.4095 21.1593C67.3995 21.1689 67.3894 21.1741 67.3694 21.1742H66.0295C66.0295 21.1742 66.0295 21.1731 66.0195 21.1712C66.0195 21.1692 66.0095 21.1664 66.0095 21.1629C66.0095 21.1595 66.0095 21.1555 66.0095 21.1511C65.9995 21.1468 65.9995 21.1423 66.0095 21.1379L66.7795 17.5656C66.7895 17.5561 66.7895 17.5475 66.7995 17.5415C66.8095 17.5355 66.8194 17.5322 66.8294 17.5322H68.0495C68.0595 17.5322 68.0694 17.5336 68.0694 17.5363C68.0794 17.5391 68.0794 17.5431 68.0894 17.5481C68.0894 17.5531 68.0894 17.559 68.0994 17.5652C68.0994 17.5714 68.0994 17.5779 68.0994 17.5841L67.9994 18.0168C67.9994 18.0214 67.9994 18.0263 67.9994 18.0308C68.0094 18.0352 68.0095 18.0389 68.0095 18.0414C68.0195 18.044 68.0195 18.0453 68.0295 18.0449C68.0295 18.0449 68.0395 18.0429 68.0395 18.04Z" fill="black"/>
<path d="M34.8303 23.8913H35.3804C35.3804 23.8913 35.3904 23.8927 35.4004 23.8955C35.4004 23.8982 35.4104 23.9023 35.4104 23.9073C35.4204 23.9123 35.4204 23.9181 35.4204 23.9243C35.4204 23.9305 35.4204 23.937 35.4204 23.9433L35.2203 24.8428C35.2203 24.8572 35.2103 24.8702 35.2003 24.8794C35.1903 24.8887 35.1804 24.8938 35.1604 24.8939H34.6104C34.6004 24.894 34.5803 24.8991 34.5703 24.9086C34.5603 24.9181 34.5504 24.9312 34.5504 24.9459L33.9904 27.4999C33.9904 27.5088 33.9803 27.5168 33.9803 27.5226C33.9703 27.5283 33.9603 27.5314 33.9503 27.5314H32.6104C32.6004 27.5314 32.6003 27.5303 32.5903 27.528C32.5903 27.5259 32.5803 27.5226 32.5803 27.5187C32.5803 27.5146 32.5703 27.51 32.5703 27.505C32.5703 27.5 32.5703 27.4948 32.5703 27.4896L33.1304 24.9412C33.1304 24.9355 33.1304 24.9297 33.1304 24.924C33.1304 24.9183 33.1204 24.913 33.1204 24.9085C33.1204 24.9039 33.1104 24.9003 33.1104 24.8977C33.1004 24.8952 33.0903 24.8939 33.0903 24.8939H32.6704C32.6604 24.8939 32.6604 24.8925 32.6504 24.8898C32.6404 24.8869 32.6404 24.883 32.6404 24.8779C32.6304 24.873 32.6304 24.8671 32.6304 24.8609C32.6304 24.8547 32.6304 24.8481 32.6304 24.8419L32.8203 23.9423C32.8303 23.9279 32.8303 23.915 32.8503 23.9057C32.8603 23.8964 32.8704 23.8914 32.8904 23.8913H33.2904C33.3104 23.8913 33.3303 23.885 33.3403 23.8737C33.3503 23.8622 33.3604 23.8464 33.3604 23.829C33.4004 23.6205 33.4604 23.385 33.5404 23.1225C33.8404 22.1868 35.1304 22.3696 35.8804 22.5758C35.8904 22.5771 35.8904 22.5802 35.9004 22.5845C35.9004 22.5888 35.9004 22.594 35.9004 22.5989L35.7103 23.3741C35.7103 23.3778 35.7003 23.3813 35.7003 23.3844C35.7003 23.3874 35.7003 23.39 35.6903 23.3919C35.6903 23.3939 35.6904 23.3951 35.6804 23.3956C35.6804 23.3956 35.6804 23.3956 35.6704 23.3946C35.3904 23.3129 34.9704 23.2136 34.8604 23.5533C34.8604 23.5675 34.8304 23.662 34.7904 23.8365C34.7804 23.8429 34.7804 23.8497 34.7904 23.8561C34.7904 23.8626 34.7904 23.8688 34.7904 23.8741C34.8004 23.8794 34.8004 23.8837 34.8104 23.8866C34.8104 23.8896 34.8203 23.8912 34.8303 23.8913Z" fill="black"/>
<path d="M39.3203 23.7052L39.5803 22.5206C39.5803 22.5143 39.5803 22.5087 39.5903 22.5047C39.5903 22.5006 39.6004 22.4984 39.6104 22.4983H44.3604C44.3604 22.4983 44.3604 22.4994 44.3704 22.5013C44.3704 22.5013 44.3804 22.5059 44.3804 22.5093C44.3804 22.5127 44.3804 22.5166 44.3804 22.5208C44.3904 22.525 44.3904 22.5294 44.3804 22.5336L44.1304 23.7182C44.1204 23.7245 44.1204 23.7302 44.1204 23.7342C44.1104 23.7383 44.1003 23.7405 44.1003 23.7405H42.5004C42.4904 23.7406 42.4803 23.7427 42.4803 23.7468C42.4703 23.7508 42.4703 23.7565 42.4703 23.7628L41.6504 27.5088C41.6504 27.5151 41.6504 27.5207 41.6404 27.5248C41.6404 27.5289 41.6304 27.531 41.6204 27.5311H40.1003L40.0903 27.5282C40.0903 27.5282 40.0803 27.5236 40.0803 27.5202C40.0803 27.5168 40.0703 27.5128 40.0703 27.5086C40.0703 27.5044 40.0703 27.5001 40.0703 27.4958L40.8804 23.7758C40.8904 23.7716 40.8904 23.7672 40.8804 23.763C40.8804 23.7588 40.8804 23.7548 40.8804 23.7514C40.8804 23.748 40.8704 23.7434 40.8704 23.7434C40.8604 23.7415 40.8604 23.7405 40.8604 23.7405H39.3503L39.3403 23.7376C39.3303 23.7357 39.3303 23.733 39.3303 23.7296C39.3203 23.7262 39.3203 23.7222 39.3203 23.718C39.3203 23.7138 39.3203 23.7095 39.3203 23.7052Z" fill="black"/>
<path d="M85.4102 23.423L85.6101 22.5244C85.6101 22.517 85.6101 22.5105 85.6201 22.5057C85.6301 22.501 85.6301 22.4984 85.6401 22.4983H86.9901C87.0001 22.4984 87.0001 22.4995 87.0101 22.5015C87.0101 22.5037 87.0101 22.5067 87.0201 22.5104C87.0201 22.5141 87.0201 22.5185 87.0201 22.5231C87.0201 22.5278 87.0201 22.5326 87.0201 22.5374L86.8301 23.436C86.8301 23.4433 86.8201 23.4498 86.8201 23.4546C86.8101 23.4593 86.8002 23.462 86.8002 23.462H85.4401C85.4401 23.462 85.4402 23.4609 85.4302 23.4588C85.4302 23.4567 85.4202 23.4537 85.4202 23.4499C85.4202 23.4462 85.4102 23.4419 85.4102 23.4372C85.4102 23.4326 85.4102 23.4277 85.4102 23.423Z" fill="black"/>
<path d="M76.1799 22.5695C76.1899 22.5669 76.1998 22.5665 76.1998 22.5665C76.2098 22.5671 76.2098 22.5695 76.2198 22.5731C76.2198 22.5768 76.2298 22.5817 76.2298 22.5873C76.2298 22.5929 76.2298 22.5989 76.2298 22.6047L75.9598 23.846C75.9598 23.8511 75.9598 23.8565 75.9598 23.8617C75.9598 23.8669 75.9598 23.8718 75.9698 23.876C75.9698 23.8803 75.9698 23.8837 75.9798 23.886C75.9798 23.8884 75.9898 23.8896 75.9898 23.8896H76.6298C76.6298 23.8896 76.6398 23.8911 76.6498 23.894C76.6498 23.897 76.6598 23.9013 76.6598 23.9067C76.6698 23.912 76.6699 23.9183 76.6699 23.925C76.6699 23.9317 76.6699 23.9386 76.6699 23.9453L76.4798 24.8412C76.4698 24.8558 76.4598 24.8687 76.4498 24.878C76.4398 24.8873 76.4298 24.8923 76.4098 24.8922H75.7898C75.7698 24.8922 75.7598 24.8973 75.7498 24.9066C75.7398 24.9158 75.7298 24.9288 75.7198 24.9433L75.4299 26.3145C75.4199 26.3579 75.4198 26.4032 75.4398 26.4435C75.4598 26.4836 75.4898 26.5163 75.5298 26.5364C75.6698 26.6058 75.8598 26.6036 76.1198 26.53C76.1298 26.5272 76.1398 26.5269 76.1498 26.529C76.1498 26.531 76.1599 26.5353 76.1699 26.5415C76.1799 26.5477 76.1799 26.5556 76.1799 26.5643C76.1899 26.5731 76.1898 26.5823 76.1898 26.5912L75.9898 27.4732C75.9898 27.489 75.9798 27.5033 75.9698 27.5143C75.9598 27.5252 75.9399 27.5322 75.9299 27.5344C75.1899 27.6338 74.1598 27.7962 73.9698 26.8688C73.9498 26.7599 73.9698 26.5791 74.0198 26.3266C74.0798 26.0332 74.1799 25.5752 74.3099 24.9526C74.3099 24.9454 74.3099 24.9379 74.3099 24.9307C74.3099 24.9235 74.2999 24.9168 74.2999 24.911C74.2999 24.9053 74.2898 24.9006 74.2798 24.8974C74.2798 24.8941 74.2698 24.8924 74.2598 24.8922H73.8698C73.8698 24.8922 73.8598 24.8908 73.8498 24.8877C73.8498 24.8846 73.8398 24.8802 73.8398 24.8746C73.8298 24.8691 73.8298 24.8626 73.8298 24.8557C73.8198 24.8488 73.8198 24.8416 73.8298 24.8347L74.0198 23.937C74.0198 23.9236 74.0298 23.9116 74.0398 23.9029C74.0498 23.8944 74.0698 23.8896 74.0798 23.8896H74.4898C74.5098 23.8897 74.5198 23.8856 74.5298 23.8782C74.5398 23.8708 74.5399 23.8603 74.5499 23.8487L74.6498 23.3753C74.6498 23.3586 74.6599 23.3431 74.6699 23.3296C74.6799 23.3162 74.6998 23.3051 74.7098 23.2973L76.1799 22.5695Z" fill="black"/>
<path d="M84.0006 22.571C84.0006 22.5684 84.0106 22.5681 84.0106 22.5681C84.0206 22.5686 84.0206 22.571 84.0306 22.5747C84.0306 22.5783 84.0406 22.5833 84.0406 22.5888C84.0406 22.5945 84.0406 22.6005 84.0406 22.6063L83.7706 23.8475C83.7706 23.8527 83.7706 23.8581 83.7706 23.8633C83.7706 23.8685 83.7706 23.8734 83.7806 23.8776C83.7806 23.8818 83.7806 23.8853 83.7906 23.8876C83.7906 23.8899 83.8007 23.8911 83.8107 23.8911H84.4406C84.4506 23.8913 84.4506 23.8929 84.4606 23.8959C84.4606 23.8989 84.4706 23.9032 84.4706 23.9086C84.4806 23.914 84.4806 23.9202 84.4806 23.9268C84.4806 23.9334 84.4806 23.9403 84.4806 23.9468L84.2906 24.8419C84.2906 24.8566 84.2806 24.8698 84.2606 24.8792C84.2506 24.8887 84.2406 24.8938 84.2206 24.8938H83.6006C83.5806 24.8938 83.5707 24.8988 83.5607 24.9081C83.5507 24.9174 83.5406 24.9303 83.5406 24.9449L83.2406 26.3151C83.2306 26.3587 83.2306 26.4041 83.2506 26.4442C83.2706 26.4845 83.3006 26.5171 83.3406 26.537C83.4806 26.6064 83.6807 26.6042 83.9307 26.5306C83.9407 26.5279 83.9506 26.5276 83.9606 26.5296C83.9706 26.5316 83.9806 26.5359 83.9806 26.5421C83.9906 26.5484 83.9906 26.5562 84.0006 26.565C84.0006 26.5737 84.0006 26.5829 84.0006 26.5918L83.8007 27.4728C83.8007 27.4886 83.7906 27.503 83.7806 27.514C83.7706 27.5249 83.7506 27.532 83.7406 27.5342C83.0106 27.6335 81.9706 27.7968 81.7806 26.8695C81.7606 26.7605 81.7806 26.5798 81.8306 26.3272C81.8906 26.0345 81.9906 25.5768 82.1206 24.9542C82.1206 24.9469 82.1206 24.9393 82.1206 24.9321C82.1206 24.9248 82.1206 24.9181 82.1106 24.9123C82.1106 24.9065 82.1006 24.9019 82.1006 24.8986C82.0906 24.8954 82.0806 24.8938 82.0706 24.8938H81.6906C81.6806 24.8938 81.6706 24.8923 81.6606 24.8892C81.6606 24.8861 81.6506 24.8818 81.6506 24.8762C81.6406 24.8707 81.6406 24.8642 81.6406 24.8573C81.6406 24.8504 81.6406 24.8432 81.6406 24.8362L81.8306 23.9385C81.8406 23.9251 81.8406 23.9131 81.8506 23.9045C81.8706 23.8959 81.8806 23.8912 81.8906 23.8911H82.3107C82.3207 23.8912 82.3306 23.8872 82.3406 23.8797C82.3506 23.8723 82.3606 23.8619 82.3606 23.8503L82.4606 23.3769C82.4606 23.3602 82.4706 23.3447 82.4806 23.3312C82.4906 23.3177 82.5106 23.3067 82.5206 23.2988L84.0006 22.571Z" fill="black"/>
<path d="M29.6709 23.8554C30.2709 23.7532 30.8809 23.7997 31.3909 24.0893C31.8109 24.3279 32.0908 24.8942 32.0908 25.3974C32.0908 26.5003 31.4109 27.3758 30.3009 27.5661C29.7109 27.6682 29.0908 27.6209 28.5808 27.3322C28.1608 27.0926 27.8809 26.5263 27.8809 26.0231C27.8809 24.9202 28.5609 24.0457 29.6709 23.8554ZM30.2909 24.7496C30.2109 24.7225 30.1109 24.7204 30.0209 24.7431C29.9209 24.766 29.8308 24.8134 29.7408 24.8826C29.6508 24.9519 29.5608 25.0417 29.4908 25.1469C29.4208 25.2521 29.3708 25.3706 29.3308 25.4956C29.2908 25.6208 29.2709 25.7499 29.2609 25.8758C29.2609 26.0017 29.2809 26.1219 29.3109 26.2295C29.3409 26.337 29.3908 26.43 29.4608 26.5029C29.5208 26.5757 29.6008 26.6272 29.6908 26.6543C29.7808 26.6814 29.8708 26.6836 29.9708 26.6607C30.0608 26.6379 30.1609 26.5905 30.2509 26.5212C30.3409 26.4519 30.4208 26.3621 30.4908 26.2569C30.5608 26.1517 30.6209 26.0333 30.6609 25.9082C30.7009 25.7831 30.7208 25.654 30.7208 25.5281C30.7208 25.4022 30.7109 25.282 30.6809 25.1744C30.6409 25.0668 30.5909 24.9739 30.5309 24.901C30.4609 24.8281 30.3809 24.7767 30.2909 24.7496Z" fill="black"/>
<path d="M45.5499 24.5291C45.5499 24.5334 45.5499 24.5378 45.5499 24.5417C45.5499 24.5456 45.5499 24.5486 45.5599 24.5505L45.5698 24.5517C45.5798 24.5507 45.5798 24.5483 45.5798 24.5449C45.9898 24.0232 46.3698 23.6119 47.0898 23.8987C47.0998 23.9016 47.0999 23.9058 47.1099 23.9111C47.1199 23.9164 47.1199 23.9227 47.1199 23.9295C47.1199 23.9364 47.1299 23.9437 47.1299 23.951C47.1299 23.9583 47.1199 23.9655 47.1199 23.9721L46.6499 24.9422C46.6499 24.9566 46.6299 24.9684 46.6199 24.9758C46.6099 24.9831 46.5898 24.9857 46.5698 24.9831C45.7698 24.842 45.4599 25.4399 45.3099 26.0925C45.1199 26.9813 45.0199 27.4436 45.0099 27.4795C45.0099 27.4942 44.9999 27.5074 44.9899 27.5169C44.9799 27.5263 44.9598 27.5315 44.9498 27.5315L43.6199 27.5306C43.6199 27.5306 43.6099 27.5294 43.6099 27.5273C43.5999 27.5251 43.5999 27.5221 43.5999 27.5183C43.5899 27.5145 43.5898 27.51 43.5898 27.5053C43.5898 27.5005 43.5898 27.4955 43.5898 27.4907L44.3699 23.9414C44.3699 23.9267 44.3799 23.9135 44.3899 23.9041C44.3999 23.8947 44.4199 23.8895 44.4299 23.8895L45.6299 23.8904C45.6399 23.8904 45.6499 23.8919 45.6499 23.8948C45.6599 23.8976 45.6599 23.9017 45.6699 23.9069C45.6699 23.9121 45.6699 23.9181 45.6799 23.9246C45.6799 23.931 45.6799 23.9377 45.6799 23.9442L45.5499 24.5291Z" fill="black"/>
<path d="M49.4902 27.1603C49.4902 27.1556 49.4902 27.1512 49.4802 27.1476C49.4802 27.144 49.4702 27.1402 49.4702 27.1402L49.4602 27.1404C49.4502 27.1418 49.4502 27.1445 49.4402 27.1483C49.3802 27.2243 49.1402 27.385 48.9802 27.4546C48.1502 27.8102 46.9102 27.6041 46.9502 26.4668C46.9802 25.7436 47.6002 25.4753 48.2302 25.3973C48.8902 25.3162 49.3902 25.249 49.7302 25.1958C49.7402 25.1933 49.7602 25.187 49.7702 25.1776C49.7802 25.1682 49.7903 25.1559 49.8003 25.142C49.9003 24.8932 49.8202 24.7363 49.5802 24.6713C49.1602 24.5642 48.8702 24.6651 48.6902 24.9739C48.6802 24.9875 48.6702 24.9985 48.6602 25.0058C48.6402 25.013 48.6302 25.0162 48.6102 25.0148L47.4102 24.9043C47.4002 24.9034 47.3902 24.9005 47.3802 24.8961C47.3802 24.8915 47.3702 24.8855 47.3702 24.8784C47.3602 24.8712 47.3602 24.8631 47.3602 24.8548C47.3602 24.8464 47.3602 24.838 47.3602 24.83C47.5302 24.369 47.8202 24.0765 48.2402 23.9527C48.8002 23.7881 49.4602 23.7605 50.2102 23.8701C51.0602 23.9945 51.3102 24.5154 51.1502 25.3156C51.0402 25.8349 50.9502 26.2502 50.8902 26.5615C50.8202 26.8722 50.8202 27.1761 50.9002 27.4732C50.9002 27.4799 50.9002 27.487 50.9002 27.4938C50.9002 27.5006 50.8902 27.5069 50.8902 27.5124C50.8802 27.5179 50.8802 27.5223 50.8702 27.5253C50.8702 27.5284 50.8602 27.5299 50.8502 27.5298H49.5902C49.5702 27.5299 49.5603 27.524 49.5503 27.5132C49.5303 27.5025 49.5302 27.4876 49.5202 27.4713L49.4902 27.1603ZM49.5603 25.9209C49.1003 25.9989 48.7702 26.0726 48.6002 26.1418C48.0302 26.3647 48.4402 27.0145 48.9602 26.8177C49.3402 26.6747 49.5602 26.3941 49.6202 25.9757C49.6202 25.9681 49.6202 25.9604 49.6202 25.9531C49.6102 25.9459 49.6102 25.9394 49.6002 25.9341C49.6002 25.9288 49.5902 25.9248 49.5802 25.9225C49.5802 25.9203 49.5703 25.9197 49.5603 25.9209Z" fill="black"/>
<path d="M53.5408 24.3744C53.5408 24.3791 53.5408 24.384 53.5408 24.3884C53.5508 24.3929 53.5508 24.3966 53.5508 24.3992C53.5608 24.4017 53.5607 24.4029 53.5707 24.4026C53.5707 24.4026 53.5807 24.4007 53.5807 24.3977C53.6607 24.3364 53.7407 24.2726 53.8207 24.2064C54.5707 23.5723 56.2008 23.5816 55.9208 25.0178C55.7708 25.7643 55.6008 26.5843 55.4008 27.478C55.4008 27.493 55.3907 27.5064 55.3807 27.516C55.3707 27.5256 55.3507 27.5309 55.3407 27.5309L54.0208 27.53C54.0108 27.53 54.0107 27.5289 54.0007 27.5269C54.0007 27.5248 53.9907 27.5219 53.9907 27.5183C53.9907 27.5146 53.9907 27.5103 53.9907 27.5058C53.9807 27.5013 53.9807 27.4965 53.9907 27.4919C54.1907 26.5648 54.3507 25.802 54.4707 25.2035C54.4907 25.0531 54.4607 24.9417 54.3507 24.8692C54.3207 24.8487 54.2907 24.837 54.2507 24.8359C53.7407 24.8135 53.4807 25.3186 53.3607 25.7503C53.3207 25.8753 53.2007 26.4513 52.9807 27.478C52.9707 27.493 52.9707 27.5064 52.9507 27.516C52.9407 27.5256 52.9308 27.5309 52.9108 27.5309L51.5807 27.53C51.5707 27.53 51.5708 27.5289 51.5608 27.527C51.5608 27.525 51.5608 27.5222 51.5508 27.5188C51.5508 27.5154 51.5508 27.5113 51.5508 27.5069C51.5508 27.5026 51.5508 27.4981 51.5508 27.4938L52.3307 23.9232C52.3307 23.9138 52.3307 23.9053 52.3407 23.8992C52.3507 23.8931 52.3607 23.8898 52.3707 23.8898L53.6007 23.8908C53.6007 23.8908 53.6107 23.8922 53.6107 23.8949C53.6207 23.8977 53.6207 23.9017 53.6307 23.9068C53.6307 23.9117 53.6407 23.9175 53.6407 23.9238C53.6407 23.93 53.6407 23.9365 53.6407 23.9428L53.5408 24.3744Z" fill="black"/>
<path d="M60.3602 24.7378C60.3602 24.7429 60.3602 24.7482 60.3602 24.7532C60.3602 24.7583 60.3502 24.763 60.3502 24.7671C60.3502 24.7712 60.3402 24.7746 60.3402 24.777C60.3402 24.7795 60.3302 24.7814 60.3302 24.7814L59.1002 24.8872C59.0902 24.8886 59.0703 24.8853 59.0603 24.878C59.0503 24.8705 59.0403 24.8594 59.0303 24.8464C58.9603 24.6279 58.7402 24.5459 58.3802 24.6004C58.2602 24.6189 58.1702 24.6554 58.1202 24.71C57.9602 24.8863 58.0703 25.1175 58.2703 25.1555C58.7503 25.2447 59.0903 25.3121 59.2803 25.358C59.7803 25.4749 60.1202 25.7256 60.1202 26.2492C60.1302 26.9185 59.5503 27.379 58.9303 27.5127C58.3503 27.6389 57.7703 27.6461 57.1803 27.534C56.6303 27.4301 56.3202 27.1076 56.2402 26.5666C56.2402 26.5607 56.2402 26.5546 56.2402 26.5488C56.2402 26.5429 56.2502 26.5375 56.2502 26.5328C56.2502 26.5281 56.2603 26.5242 56.2603 26.5215C56.2703 26.5186 56.2703 26.517 56.2803 26.5166L57.5603 26.4051C57.5803 26.4038 57.6002 26.4077 57.6102 26.4163C57.6202 26.4249 57.6303 26.4376 57.6403 26.4525C57.7803 26.8814 58.2402 26.9167 58.5902 26.7495C58.8302 26.6372 58.8902 26.2696 58.6002 26.2046C58.0002 26.0737 57.0402 26.0357 56.8202 25.3282C56.6702 24.8687 56.9702 24.3572 57.3802 24.1232C57.9802 23.7778 58.7603 23.7471 59.4203 23.8706C59.9303 23.9635 60.2702 24.2374 60.3602 24.7378Z" fill="black"/>
<path d="M62.619 24.2231C62.619 24.2281 62.619 24.2333 62.619 24.2381C62.619 24.2428 62.619 24.2471 62.629 24.2503C62.629 24.2535 62.639 24.2564 62.639 24.2564C62.649 24.2572 62.6491 24.2566 62.6591 24.2547C62.6591 24.2547 62.729 24.1968 62.859 24.0866C63.179 23.8165 63.639 23.7654 64.079 23.8453C64.679 23.9567 64.969 24.5183 65.019 25.0884C65.099 26.1328 64.589 27.5087 63.369 27.6062C62.869 27.6457 62.459 27.4777 62.149 27.102C62.139 27.0973 62.139 27.0937 62.129 27.0918C62.119 27.0899 62.119 27.0897 62.109 27.0912C62.109 27.0912 62.099 27.0959 62.099 27.1005C62.089 27.105 62.089 27.1107 62.089 27.1169L61.699 28.8734C61.699 28.8873 61.6891 28.8998 61.6791 28.9089C61.6691 28.9178 61.659 28.9227 61.639 28.9226H60.339C60.329 28.9226 60.329 28.921 60.319 28.918C60.309 28.9149 60.3091 28.9103 60.2991 28.9048C60.2991 28.8992 60.2991 28.8926 60.2891 28.8856C60.2891 28.8786 60.2891 28.8712 60.2891 28.8641L61.359 23.9446C61.369 23.9299 61.369 23.9168 61.389 23.9073C61.399 23.8979 61.4091 23.8927 61.4291 23.8926H62.619C62.629 23.8926 62.639 23.8942 62.639 23.8972C62.649 23.9001 62.6591 23.9045 62.6591 23.9099C62.6691 23.9153 62.6691 23.9217 62.6691 23.9284C62.6691 23.9352 62.6691 23.9423 62.6691 23.9492L62.619 24.2231ZM63.259 24.7244C63.099 24.6835 62.919 24.7468 62.759 24.9004C62.599 25.0539 62.4791 25.2851 62.4091 25.5431C62.3391 25.8012 62.339 26.0649 62.399 26.2763C62.469 26.4878 62.589 26.6294 62.749 26.6703C62.909 26.7113 63.089 26.648 63.249 26.4945C63.409 26.3409 63.539 26.1096 63.599 25.8516C63.669 25.5935 63.669 25.3298 63.609 25.1184C63.549 24.9071 63.419 24.7653 63.259 24.7244Z" fill="black"/>
<path d="M67.3407 23.8545C67.9307 23.7533 68.5508 23.8007 69.0608 24.0904C69.4808 24.3299 69.7607 24.8962 69.7607 25.3994C69.7607 26.5014 69.0807 27.3759 67.9607 27.5662C67.3707 27.6674 66.7507 27.62 66.2507 27.3304C65.8307 27.0909 65.5508 26.5246 65.5508 26.0214C65.5508 24.9194 66.2207 24.0449 67.3407 23.8545ZM67.9607 24.7505C67.7807 24.6958 67.5808 24.7436 67.4008 24.8834C67.2208 25.0232 67.0707 25.2434 66.9907 25.4957C66.9107 25.7481 66.9107 26.0118 66.9807 26.2289C67.0407 26.446 67.1807 26.5988 67.3607 26.6535C67.5307 26.7082 67.7308 26.6604 67.9208 26.5207C68.1008 26.3809 68.2407 26.1607 68.3207 25.9083C68.4007 25.6559 68.4107 25.3922 68.3407 25.1751C68.2707 24.9579 68.1407 24.8053 67.9607 24.7505Z" fill="black"/>
<path d="M72.0302 24.5299C72.0302 24.5345 72.0302 24.5393 72.0402 24.5436C72.0402 24.5479 72.0402 24.5513 72.0502 24.5532C72.0502 24.5552 72.0502 24.5555 72.0602 24.5541C72.0602 24.5541 72.0701 24.5497 72.0701 24.5457C72.4801 24.0239 72.8501 23.6136 73.5801 23.9004C73.5801 23.9033 73.5901 23.9074 73.6001 23.9126C73.6001 23.9179 73.6101 23.9241 73.6101 23.931C73.6101 23.9379 73.6101 23.9452 73.6101 23.9526C73.6101 23.96 73.6101 23.9672 73.6101 23.9739L73.1401 24.943C73.1301 24.9575 73.1201 24.9694 73.1101 24.9767C73.0901 24.9842 73.0802 24.9867 73.0602 24.9839C72.2602 24.8427 71.9402 25.4407 71.8002 26.0933C71.6102 26.9815 71.5101 27.4435 71.5001 27.4793C71.5001 27.4941 71.4901 27.5072 71.4701 27.5167C71.4601 27.5262 71.4502 27.5313 71.4302 27.5314L70.1101 27.5304C70.1101 27.5304 70.1001 27.5292 70.1001 27.5272C70.0901 27.525 70.0901 27.522 70.0801 27.5182C70.0801 27.5143 70.0801 27.5099 70.0801 27.5051C70.0801 27.5003 70.0801 27.4953 70.0801 27.4905L70.8501 23.9432C70.8601 23.9284 70.8601 23.9153 70.8801 23.9058C70.8901 23.8964 70.9002 23.8913 70.9202 23.8912H72.1201C72.1201 23.8912 72.1301 23.8927 72.1401 23.8955C72.1401 23.8984 72.1501 23.9025 72.1501 23.9077C72.1601 23.9129 72.1602 23.9189 72.1602 23.9254C72.1602 23.9318 72.1602 23.9385 72.1602 23.9451L72.0302 24.5299Z" fill="black"/>
<path d="M79.3091 27.1483C79.2491 27.2243 78.999 27.385 78.839 27.4546C78.019 27.8111 76.7791 27.605 76.8091 26.4668C76.8391 25.7436 77.459 25.4753 78.099 25.3973C78.759 25.3162 79.259 25.249 79.589 25.1958C79.609 25.1933 79.6191 25.187 79.6291 25.1776C79.6491 25.1682 79.6591 25.1559 79.6591 25.142C79.7591 24.8932 79.689 24.7363 79.439 24.6713C79.029 24.5642 78.7291 24.6651 78.5491 24.9739C78.5491 24.9875 78.5291 24.9985 78.5191 25.0058C78.5091 25.013 78.489 25.0162 78.479 25.0148L77.2691 24.9043C77.2591 24.9034 77.2591 24.9005 77.2491 24.8961C77.2391 24.8915 77.229 24.8855 77.229 24.8784C77.229 24.8712 77.219 24.8631 77.219 24.8548C77.219 24.8464 77.219 24.838 77.219 24.83C77.389 24.369 77.679 24.0765 78.099 23.9527C78.659 23.7881 79.319 23.7605 80.069 23.8701C80.929 23.9945 81.1791 24.5154 81.0091 25.3156C80.9091 25.8349 80.8191 26.2502 80.7491 26.5615C80.6791 26.8722 80.6891 27.1761 80.7591 27.4732C80.7591 27.4799 80.7591 27.487 80.7591 27.4938C80.7591 27.5006 80.7591 27.5069 80.7491 27.5124C80.7491 27.5179 80.7391 27.5223 80.7391 27.5253C80.7291 27.5284 80.719 27.5298 80.719 27.5298H79.459C79.439 27.5297 79.4191 27.5237 79.4091 27.513C79.3991 27.5022 79.3891 27.4874 79.3891 27.4713L79.349 27.1603C79.349 27.1556 79.349 27.1512 79.349 27.1476C79.339 27.144 79.339 27.1402 79.339 27.1402C79.329 27.1389 79.329 27.139 79.319 27.1404C79.319 27.1404 79.3091 27.1445 79.3091 27.1483ZM79.4291 25.9191C78.9591 25.9989 78.639 26.0738 78.459 26.1437C77.889 26.3684 78.309 27.0164 78.829 26.8177C79.209 26.6736 79.429 26.3922 79.479 25.9738C79.479 25.9662 79.479 25.9585 79.479 25.9513C79.479 25.9441 79.469 25.9376 79.469 25.9323C79.459 25.9269 79.459 25.923 79.449 25.9207C79.439 25.9184 79.4291 25.9191 79.4291 25.9191Z" fill="black"/>
<path d="M88.8407 23.8554C89.4407 23.7532 90.0608 23.7997 90.5608 24.0893C90.9808 24.3289 91.2607 24.8951 91.2607 25.3984C91.2707 26.5003 90.5907 27.3758 89.4707 27.5661C88.8807 27.6682 88.2607 27.6209 87.7607 27.3322C87.3307 27.0926 87.0508 26.5263 87.0508 26.0231C87.0508 24.9202 87.7307 24.0457 88.8407 23.8554ZM89.4707 24.7496C89.2907 24.6949 89.0908 24.7426 88.9108 24.8824C88.7308 25.0221 88.5807 25.2424 88.5007 25.4947C88.4207 25.7471 88.4207 26.0108 88.4807 26.228C88.5507 26.445 88.6907 26.5977 88.8707 26.6524C89.0407 26.7071 89.2408 26.6594 89.4208 26.5197C89.6008 26.3799 89.7507 26.1596 89.8307 25.9073C89.9107 25.6549 89.9207 25.3912 89.8507 25.1741C89.7807 24.957 89.6407 24.8043 89.4707 24.7496Z" fill="black"/>
<path d="M95.9999 24.5448V24.7805L95.4398 27.5045C95.4298 27.5117 95.4299 27.5183 95.4199 27.523C95.4199 27.5277 95.4099 27.5304 95.3999 27.5304H94.0898C94.0798 27.5304 94.0699 27.5288 94.0599 27.5255C94.0599 27.5221 94.0499 27.5173 94.0499 27.5112C94.0399 27.5052 94.0399 27.4981 94.0399 27.4905C94.0299 27.4829 94.0299 27.475 94.0399 27.4673L94.5399 25.1519C94.5499 25.1175 94.5499 25.0819 94.5399 25.0473C94.5299 25.0128 94.5199 24.9802 94.4999 24.9514C94.4799 24.9226 94.4499 24.8983 94.4199 24.8801C94.3899 24.8619 94.3598 24.8501 94.3198 24.8455C93.7498 24.7704 93.4699 25.4221 93.3599 25.8937C93.1399 26.9223 93.0199 27.4518 93.0199 27.4821C93.0099 27.4959 93.0099 27.508 92.9999 27.5168C92.9799 27.5256 92.9698 27.5304 92.9598 27.5304H91.6199C91.6099 27.5304 91.6099 27.5294 91.6099 27.5274C91.5999 27.5254 91.5999 27.5225 91.5999 27.5189C91.5899 27.5154 91.5898 27.5113 91.5898 27.5068C91.5898 27.5024 91.5898 27.4978 91.5898 27.4933L92.3599 23.9422C92.3699 23.9276 92.3799 23.9144 92.3899 23.905C92.3999 23.8955 92.4099 23.8903 92.4299 23.8902H93.6299C93.6399 23.8902 93.6499 23.8918 93.6499 23.8947C93.6599 23.8977 93.6699 23.902 93.6699 23.9073C93.6799 23.9127 93.6799 23.9189 93.6799 23.9256C93.6799 23.9323 93.6799 23.9392 93.6799 23.9459L93.5798 24.4055C93.5798 24.4103 93.5798 24.4153 93.5798 24.42C93.5798 24.4245 93.5898 24.4282 93.5898 24.4306C93.5998 24.4329 93.5999 24.4336 93.6099 24.4325C93.6099 24.4325 93.6099 24.4289 93.6199 24.425C94.0599 23.9589 94.5798 23.7575 95.1898 23.8206C95.6298 23.8652 95.9099 24.1279 95.9999 24.5448Z" fill="black"/>
<path d="M85.3492 23.8901H86.6892C86.6992 23.8901 86.6992 23.8913 86.7092 23.8935C86.7092 23.8958 86.7192 23.899 86.7192 23.903C86.7192 23.907 86.7292 23.9117 86.7292 23.9167C86.7292 23.9217 86.7292 23.9269 86.7292 23.9319L85.9492 27.5034C85.9492 27.511 85.9393 27.5179 85.9293 27.5227C85.9293 27.5276 85.9193 27.5303 85.9093 27.5303H84.5692C84.5592 27.5303 84.5593 27.5291 84.5493 27.5269C84.5493 27.5246 84.5393 27.5214 84.5393 27.5174C84.5393 27.5134 84.5293 27.5088 84.5293 27.5037C84.5293 27.4987 84.5293 27.4935 84.5293 27.4886L85.3093 23.917C85.3093 23.9094 85.3192 23.9026 85.3192 23.8977C85.3292 23.8929 85.3392 23.8901 85.3492 23.8901Z" fill="black"/>
</g>
</g>
<defs>
<clipPath id="clip0_14872_47945">
<rect width="96" height="28.9655" fill="white"/>
</clipPath>
</defs>
</svg>
