<svg width="342" height="56" viewBox="0 0 342 56" fill="none" xmlns="http://www.w3.org/2000/svg">
<mask id="mask0_12752_5993" style="mask-type:alpha" maskUnits="userSpaceOnUse" x="0" y="0" width="342" height="56">
<g clip-path="url(#clip0_12752_5993)">
<path d="M26.9141 12.7917L26.972 20.0414C26.972 20.3088 26.8442 20.4425 26.5887 20.4425L0.872559 20.4349V19.6857C1.5186 16.0029 3.54831 13.7048 6.9617 12.7917H26.9141Z" fill="#1A294F"/>
<path d="M36.5618 12.7917L36.5546 40.3074C36.5546 40.6403 36.3955 40.7841 36.0773 40.7387C33.5317 40.3755 31.6683 39.2227 30.4871 37.2803C29.8025 36.1603 29.4457 34.1373 29.4168 31.2111C29.3493 25.0663 29.3566 18.9265 29.4385 12.7917H36.5618Z" fill="#1A294F"/>
<path d="M46.0566 12.7917L45.9698 40.7917H38.9116L38.9839 12.7917H46.0566Z" fill="#1A294F"/>
<path d="M55.4576 12.7917C55.6649 23.1946 55.7058 29.96 55.5805 33.0879C55.4118 37.2652 53.2904 39.8331 49.2165 40.7917H48.4138L48.4934 12.7917H55.4576Z" fill="#1A294F"/>
<path d="M64.9535 19.6714C64.8884 21.5632 64.9173 22.8195 66.906 23.3719C70.2085 24.2901 72.3395 24.8299 73.2989 24.9914C76.6111 25.5665 79.2145 26.8605 79.7135 30.5762C80.4656 36.1207 78.3226 39.2814 73.2845 40.0584C66.5155 41.1027 59.7177 39.8843 59.6526 30.8562C59.6526 30.7099 59.7225 30.6368 59.8623 30.6368H63.565C63.6807 30.6368 63.7434 30.6948 63.753 30.8108C63.9555 33.0735 64.7076 35.7373 66.9784 36.373C69.4323 37.0591 71.8357 36.9305 74.1884 35.987C75.8011 35.3438 75.548 31.8778 75.1286 30.7881C74.7718 29.8548 73.9956 29.262 72.7999 29.0097C70.1386 28.4447 67.6654 27.8267 65.3801 27.1557C61.5618 26.0306 59.9828 23.2735 60.6433 18.8843C61.0001 16.5132 62.2994 14.9265 64.5413 14.1243C70.3845 12.0357 79.6484 13.1935 79.0699 22.0022C79.0602 22.093 79.012 22.1384 78.9252 22.1384H75.1792C75.0056 22.1384 74.9188 22.0501 74.9188 21.8735C74.9188 20.7384 74.767 19.7924 74.4632 19.0357C73.364 16.2962 66.9711 16.0919 65.3874 18.1276C65.1174 18.4656 64.9728 18.9802 64.9535 19.6714Z" fill="#1A294F"/>
<path d="M239.658 13.4955C240.275 13.4955 240.88 13.5358 241.473 13.6166C241.743 13.6519 241.914 13.8108 241.987 14.0933L246.376 31.3247C246.564 32.0612 246.745 32.0612 246.919 31.3247L251.099 13.662C251.132 13.5207 251.217 13.4501 251.352 13.4501H255.242C255.358 13.4501 255.402 13.5081 255.373 13.6241L248.799 39.263C248.727 39.5355 248.558 39.6717 248.293 39.6717H245.335C245.218 39.6713 245.105 39.6312 245.013 39.5574C244.92 39.4837 244.853 39.3803 244.821 39.263C243.115 32.8508 241.456 26.6555 239.846 20.6771C239.827 20.6115 239.776 20.5787 239.694 20.5787C239.612 20.5838 239.562 20.6166 239.542 20.6771C237.99 26.6706 236.392 32.8836 234.748 39.316C234.717 39.4347 234.651 39.5398 234.558 39.615C234.465 39.6902 234.351 39.7314 234.234 39.7322L231.276 39.7625C231.011 39.7625 230.842 39.6288 230.77 39.3614L223.951 13.7906C223.922 13.6746 223.965 13.6166 224.081 13.6166L227.971 13.5712C228.106 13.5712 228.191 13.6418 228.225 13.783L232.571 31.4003C232.754 32.1369 232.935 32.1344 233.113 31.3928L237.337 14.116C237.409 13.8335 237.58 13.6721 237.85 13.6317C238.438 13.5459 239.041 13.5005 239.658 13.4955Z" fill="#1A294F"/>
<path d="M289.616 21.1095C288.712 19.5203 285.298 19.369 283.758 19.8457C281.878 20.4284 281.487 22.5776 282.384 24.1592C282.524 24.4082 282.744 24.5962 283.006 24.689C287.569 26.263 295.271 25.3246 295.249 32.7181C295.239 36.7794 293.231 39.1203 289.225 39.7409C283.729 40.6036 277.105 39.6425 276.772 32.3473C276.753 31.974 276.921 31.7873 277.278 31.7873H280.627C280.969 31.7873 281.15 31.9639 281.169 32.3171C281.203 33.0587 281.465 33.8129 281.957 34.5798C283.541 37.0468 289.905 37.4554 290.794 34.1257C291.604 31.0987 290.057 30.2965 287.533 29.8425C287.412 29.8223 285.821 29.4767 282.76 28.8057C278.672 27.9077 277.02 25.2818 277.806 20.9279C278.826 15.3052 286.868 15.4187 290.548 16.8263C292.954 17.7495 294.237 19.7524 294.396 22.8349C294.399 22.8848 294.392 22.9349 294.376 22.982C294.36 23.0292 294.335 23.0724 294.302 23.1092C294.27 23.1459 294.231 23.1755 294.187 23.196C294.144 23.2164 294.096 23.2275 294.049 23.2284L290.686 23.289C290.609 23.2917 290.524 23.2467 290.443 23.1608C290.362 23.0748 290.29 22.9526 290.238 22.8122C290.049 22.3354 289.927 21.6468 289.616 21.1095Z" fill="#1A294F"/>
<path d="M318.123 29.7336C318.176 32.3723 317.225 34.9248 315.479 36.8297C313.734 38.7346 311.336 39.8359 308.815 39.8911L305.677 39.9599C303.155 40.0152 300.716 39.02 298.895 37.1933C297.075 35.3665 296.023 32.8579 295.97 30.2192L295.893 26.3606C295.84 23.7219 296.791 21.1693 298.537 19.2644C300.282 17.3595 302.68 16.2583 305.201 16.203L308.339 16.1342C310.861 16.0789 313.3 17.0741 315.12 18.9009C316.941 20.7276 317.993 23.2363 318.046 25.8749L318.123 29.7336ZM313.549 25.7929C313.535 24.1994 312.918 22.6767 311.831 21.5597C310.745 20.4427 309.28 19.823 307.757 19.8369L306.18 19.8513C305.426 19.8582 304.681 20.0204 303.987 20.3287C303.293 20.6371 302.663 21.0854 302.135 21.6482C301.606 22.211 301.189 22.8773 300.906 23.6089C300.624 24.3405 300.482 25.1231 300.488 25.9122L300.525 30.3012C300.538 31.8947 301.156 33.4175 302.242 34.5344C303.328 35.6514 304.794 36.2711 306.317 36.2572L307.894 36.2428C308.648 36.2359 309.393 36.0737 310.087 35.7654C310.781 35.4571 311.41 35.0087 311.939 34.4459C312.467 33.8831 312.885 33.2169 313.167 32.4853C313.45 31.7537 313.592 30.971 313.585 30.182L313.549 25.7929Z" fill="#1A294F"/>
<path d="M180.456 30.0529C180.469 31.3746 180.233 32.686 179.762 33.9124C179.291 35.1388 178.594 36.256 177.71 37.2003C176.826 38.1447 175.773 38.8977 174.611 39.4162C173.45 39.9348 172.202 40.2088 170.939 40.2227L167.974 40.2551C165.423 40.2831 162.966 39.2495 161.143 37.3819C159.321 35.5142 158.282 32.9654 158.255 30.2962L158.218 26.5732C158.205 25.2515 158.44 23.9401 158.912 22.7137C159.383 21.4873 160.08 20.3701 160.964 19.4257C161.848 18.4814 162.9 17.7284 164.062 17.2099C165.224 16.6913 166.472 16.4173 167.735 16.4034L170.7 16.371C173.251 16.343 175.708 17.3766 177.53 19.2442C179.353 21.1119 180.392 23.6607 180.418 26.3299L180.456 30.0529ZM175.91 26.1814C175.921 24.5658 175.318 23.0118 174.234 21.8615C173.15 20.7111 171.673 20.0584 170.129 20.0471L168.698 20.0367C167.154 20.0254 165.669 20.6564 164.569 21.7909C163.47 22.9253 162.846 24.4703 162.836 26.0859L162.807 30.3993C162.796 32.0149 163.399 33.5688 164.483 34.7192C165.567 35.8696 167.044 36.5223 168.588 36.5335L170.019 36.544C171.563 36.5553 173.048 35.9243 174.148 34.7898C175.247 33.6554 175.871 32.1104 175.881 30.4948L175.91 26.1814Z" fill="#1A294F"/>
<path d="M258.875 16.4135L255.534 16.4196C255.223 16.4202 254.97 16.6849 254.971 17.0109L255.008 39.093C255.008 39.419 255.261 39.6829 255.573 39.6823L258.914 39.6762C259.225 39.6756 259.478 39.4109 259.477 39.0849L259.44 17.0028C259.44 16.6768 259.187 16.413 258.875 16.4135Z" fill="#1A294F"/>
<path d="M277.524 36.243V39.2095C277.524 39.342 277.473 39.469 277.384 39.5627C277.294 39.6564 277.173 39.709 277.046 39.709H262.597C262.471 39.709 262.349 39.6564 262.26 39.5627C262.17 39.469 262.12 39.342 262.12 39.2095V16.8852C262.12 16.7527 262.17 16.6257 262.26 16.532C262.349 16.4384 262.471 16.3857 262.597 16.3857H266.112C266.175 16.3857 266.237 16.3987 266.295 16.4238C266.353 16.4489 266.405 16.4857 266.45 16.532C266.494 16.5784 266.529 16.6335 266.553 16.6941C266.577 16.7547 266.589 16.8196 266.589 16.8852V35.2441C266.589 35.3766 266.64 35.5036 266.729 35.5973C266.819 35.691 266.94 35.7436 267.067 35.7436H277.046C277.173 35.7436 277.294 35.7962 277.384 35.8899C277.473 35.9835 277.524 36.1106 277.524 36.243Z" fill="#1A294F"/>
<path d="M337.873 16.3939V39.5052L333.779 39.5657C333.408 39.5708 333.129 39.4043 332.941 39.0663L324.624 23.9917C324.248 23.3056 324.06 23.3585 324.06 24.1506V38.9679C324.06 39.3917 323.855 39.6036 323.445 39.6036H320.444C320.073 39.6036 319.887 39.4093 319.887 39.0209V16.8252C319.887 16.5074 320.039 16.3484 320.343 16.3484H324.27C324.38 16.3487 324.489 16.3788 324.585 16.4358C324.681 16.4928 324.762 16.5748 324.819 16.6739L333.172 31.4912C333.495 32.0663 333.656 32.0184 333.656 31.3474V16.7874C333.656 16.5503 333.77 16.4317 333.996 16.4317L337.873 16.3939Z" fill="#1A294F"/>
<path d="M99.4128 38.369L106.023 16.9831C106.1 16.7409 106.259 16.6198 106.5 16.6198H110.477C110.757 16.6198 110.94 16.7611 111.027 17.0436L117.319 37.8393C117.733 39.1964 117.941 39.1611 117.941 37.7333V17.1193C117.941 16.7913 118.095 16.6274 118.403 16.6274H122.338C122.463 16.6274 122.586 16.6616 122.695 16.7266C122.804 16.7916 122.895 16.8852 122.959 16.9982L131.312 31.8306C131.63 32.3957 131.789 32.3503 131.789 31.6944V16.9679C131.789 16.7358 131.9 16.6198 132.122 16.6198H135.695C135.883 16.6198 135.977 16.7182 135.977 16.9149V39.4285C135.977 39.7059 135.846 39.8447 135.586 39.8447H131.724C131.454 39.8447 131.254 39.7236 131.124 39.4814L122.648 24.1193C122.243 23.3877 122.041 23.4458 122.041 24.2933V39.4436C122.041 39.716 121.911 39.8522 121.65 39.8522H113.761C113.573 39.8522 113.45 39.7589 113.392 39.5722L112.141 35.4252C112.068 35.1881 111.912 35.0695 111.671 35.0695H105.119C104.935 35.0695 104.815 35.1604 104.757 35.342L103.47 39.5193C103.402 39.7312 103.263 39.8371 103.05 39.8371H95.0376C94.7821 39.8371 94.6543 39.7034 94.6543 39.436V29.8404C94.6543 29.748 94.6185 29.6595 94.5548 29.5942C94.491 29.5289 94.4046 29.4922 94.3144 29.4922H85.8677C85.7469 29.4922 85.631 29.5425 85.5456 29.6319C85.4601 29.7213 85.4121 29.8426 85.4121 29.969V39.4058C85.4121 39.6984 85.2699 39.8447 84.9855 39.8447H81.3262C81.0851 39.8447 80.9646 39.7185 80.9646 39.4663V17.1722C80.9646 16.804 81.1382 16.6198 81.4853 16.6198H84.9493C85.2723 16.6198 85.4338 16.7913 85.4338 17.1344V25.3225C85.4338 25.6303 85.5809 25.7841 85.875 25.7841H94.2855C94.3339 25.7841 94.3819 25.7742 94.4266 25.7548C94.4714 25.7354 94.512 25.7069 94.5463 25.6711C94.5805 25.6353 94.6077 25.5927 94.6262 25.5459C94.6448 25.4991 94.6543 25.4489 94.6543 25.3982V17.0966C94.6543 16.7838 94.8038 16.6274 95.1027 16.6274H98.6607C98.9741 16.6274 99.1308 16.7913 99.1308 17.1193V38.3236C99.1308 38.9593 99.2248 38.9744 99.4128 38.369ZM105.842 31.1117C105.83 31.1595 105.828 31.2096 105.837 31.2581C105.847 31.3067 105.866 31.3524 105.895 31.3918C105.923 31.4311 105.96 31.4632 106.002 31.4855C106.045 31.5078 106.091 31.5197 106.138 31.5204H110.752C110.799 31.5197 110.846 31.5078 110.888 31.4855C110.93 31.4632 110.967 31.4311 110.996 31.3918C111.024 31.3524 111.044 31.3067 111.053 31.2581C111.062 31.2096 111.061 31.1595 111.049 31.1117L108.749 22.1895C108.734 22.1171 108.695 22.0522 108.64 22.0057C108.585 21.9593 108.516 21.9339 108.445 21.9339C108.374 21.9339 108.306 21.9593 108.25 22.0057C108.195 22.0522 108.157 22.1171 108.142 22.1895L105.842 31.1117Z" fill="#1A294F"/>
<path d="M143.346 24.3322C142.946 23.6209 142.746 23.6789 142.746 24.5063L142.76 39.2933C142.76 39.6767 142.577 39.8685 142.21 39.8685L139.101 39.8609C138.963 39.8609 138.83 39.8043 138.733 39.7035C138.635 39.6027 138.58 39.4661 138.58 39.3236V17.0749C138.58 16.7773 138.722 16.6285 139.007 16.6285L142.782 16.6133C143.172 16.6083 143.471 16.7899 143.678 17.1582L151.85 31.6652C152.226 32.3261 152.414 32.2681 152.414 31.4912L152.465 17.0522C152.465 16.7748 152.6 16.6335 152.87 16.6285H156.269C156.326 16.6285 156.382 16.6406 156.435 16.6642C156.488 16.6877 156.536 16.7223 156.576 16.7659C156.616 16.8094 156.648 16.8612 156.67 16.9181C156.692 16.975 156.703 17.036 156.703 17.0976L156.696 39.3841C156.696 39.6919 156.546 39.8483 156.247 39.8533L152.458 39.876C152.188 39.876 151.985 39.7575 151.85 39.5203L143.346 24.3322Z" fill="#1A294F"/>
<path d="M185.97 39.8156H182.282C182.218 39.8156 182.158 39.7893 182.113 39.7424C182.068 39.6956 182.043 39.6321 182.043 39.5658V16.8934C182.043 16.8272 182.068 16.7637 182.113 16.7168C182.158 16.67 182.218 16.6437 182.282 16.6437H186.78C186.822 16.6427 186.863 16.6534 186.9 16.6747C186.937 16.696 186.968 16.727 186.989 16.7648L195.422 32.0588C195.447 32.1078 195.487 32.1464 195.536 32.1686C195.585 32.1909 195.64 32.1954 195.691 32.1815C195.743 32.1675 195.788 32.136 195.821 32.0918C195.853 32.0477 195.871 31.9934 195.87 31.9377V16.8783C195.87 16.8455 195.876 16.813 195.888 16.7827C195.9 16.7524 195.918 16.7249 195.94 16.7017C195.962 16.6785 195.988 16.6601 196.017 16.6475C196.046 16.635 196.077 16.6285 196.109 16.6285H199.884C199.947 16.6285 200.008 16.6549 200.052 16.7017C200.097 16.7485 200.122 16.812 200.122 16.8783V39.5507C200.122 39.6169 200.097 39.6805 200.052 39.7273C200.008 39.7741 199.947 39.8004 199.884 39.8004H195.545C195.502 39.8006 195.46 39.7888 195.423 39.7661C195.386 39.7435 195.356 39.7109 195.335 39.6718L186.657 23.9312C186.631 23.8823 186.591 23.8436 186.542 23.8214C186.494 23.7992 186.439 23.7947 186.387 23.8086C186.336 23.8225 186.29 23.8541 186.258 23.8982C186.225 23.9424 186.208 23.9966 186.208 24.0523V39.5658C186.208 39.6321 186.183 39.6956 186.139 39.7424C186.094 39.7893 186.033 39.8156 185.97 39.8156Z" fill="#1A294F"/>
<path d="M218.31 31.6586L215.085 33.611C215.053 33.6309 215.017 33.6413 214.98 33.6413C214.943 33.6413 214.907 33.6307 214.874 33.6108C214.842 33.5909 214.815 33.5622 214.796 33.5277C214.777 33.4932 214.767 33.4541 214.767 33.4142V29.5245C214.767 29.3782 214.827 29.2672 214.947 29.1915L222.034 24.9159C222.071 24.8932 222.112 24.8809 222.154 24.8802C222.196 24.8795 222.237 24.8905 222.274 24.912C222.311 24.9335 222.341 24.9648 222.363 25.0027C222.384 25.0406 222.396 25.0837 222.396 25.1278C222.406 28.286 222.406 30.6824 222.396 32.317C222.382 34.4157 222.051 35.9469 221.405 36.9105C217.818 42.2683 208.439 39.6802 206.566 33.838C205.416 30.2661 207.528 27.451 210.5 25.8921C210.746 25.7609 210.77 25.5818 210.572 25.3548C210.534 25.3144 210.223 25.1151 209.639 24.757C207.209 23.2737 207.115 18.8542 209.835 17.1894C211.382 16.2359 214.181 16.637 216.828 16.6294C216.875 16.6284 216.922 16.6374 216.965 16.656C217.009 16.6746 217.049 16.7023 217.083 16.7375C217.116 16.7727 217.143 16.8148 217.161 16.8612C217.18 16.9076 217.189 16.9574 217.189 17.0078V20.1937C217.189 20.5015 217.042 20.6553 216.748 20.6553H212.098C211.057 20.6553 210.987 20.9278 211.888 21.4726L214.354 22.9634C214.504 23.053 214.674 23.1002 214.846 23.1002C215.019 23.1002 215.188 23.053 215.338 22.9634L216.726 22.131C217.035 21.9443 217.189 22.0351 217.189 22.4034V25.9451C217.189 26.0678 217.16 26.1886 217.103 26.2959C217.046 26.4032 216.964 26.4934 216.864 26.558C215.54 27.4132 211.317 29.5548 210.587 31.1213C208.41 35.7905 219.728 38.9688 218.787 31.9007C218.744 31.5728 218.585 31.4921 218.31 31.6586Z" fill="#1A294F"/>
<path d="M0.872559 29.2598V23.0014L26.5887 22.9636C26.9262 22.9636 27.0949 23.1427 27.0949 23.5009V30.1603C27.0949 30.4731 26.9455 30.6295 26.6465 30.6295H1.39325C1.12808 30.6295 0.983446 30.4933 0.95934 30.2209L0.872559 29.2598Z" fill="#1A294F"/>
<path d="M21.1143 40.7917H0.872559V33.2166L26.8057 33.2241C26.8443 33.2239 26.8826 33.2322 26.918 33.2485C26.9533 33.2648 26.985 33.2888 27.011 33.3188C27.0369 33.3487 27.0565 33.3841 27.0685 33.4226C27.0804 33.4611 27.0845 33.5017 27.0805 33.542C26.7189 37.3459 24.7301 39.7625 21.1143 40.7917Z" fill="#1A294F"/>
</g>
</mask>
<g mask="url(#mask0_12752_5993)">
<rect x="0.872559" y="8.44208" width="341" height="38" fill="black"/>
</g>
<defs>
<clipPath id="clip0_12752_5993">
<rect width="337" height="28" fill="white" transform="translate(0.872559 12.7917)"/>
</clipPath>
</defs>
</svg>
