<svg width="698" height="200" viewBox="0 0 698 200" fill="none" xmlns="http://www.w3.org/2000/svg">
<path d="M0.860035 196.637L63.9992 99.3087L2.79005 3.63495H32.016L81.0936 80.2842L129.62 3.63495H157.467L94.328 101.239L155.537 196.637H126.311L77.2336 120.263L28.7074 196.637H0.860035ZM186.06 196.637V3.63495H255.265C275.484 3.63495 291.292 8.50595 302.688 18.2479C314.084 27.9899 319.783 41.6839 319.783 59.3297C319.783 71.0937 317.025 81.2952 311.511 89.9343C306.18 98.3896 298.644 105.007 288.902 109.786C279.344 114.381 268.132 116.679 255.265 116.679H211.977V196.637H186.06ZM211.977 96.8272H253.886C265.834 96.8272 275.208 93.7024 282.009 87.4529C288.994 81.2033 292.487 71.8289 292.487 59.3297C292.487 47.0144 288.902 38.0077 281.734 32.3095C274.749 26.4275 264.639 23.4866 251.405 23.4866H211.977V96.8272ZM351.651 196.637V3.63495H420.029C441.351 3.63495 457.619 8.04642 468.831 16.8694C480.227 25.5085 485.926 38.0996 485.926 54.6426C485.926 67.5093 482.249 78.2623 474.897 86.9014C467.544 95.5406 457.343 101.423 444.292 104.547C451.829 108.407 458.354 113.83 463.868 120.815C469.383 127.616 473.886 136.53 477.378 147.559C480.871 158.404 483.444 172.098 485.098 188.641L485.926 196.637H459.732L458.905 188.641C456.883 168.422 453.483 152.706 448.704 141.493C444.109 130.097 437.675 122.101 429.404 117.506C421.132 112.911 410.379 110.613 397.145 110.613H377.569V196.637H351.651ZM377.569 91.8643H419.478C446.13 91.8643 459.457 80.1004 459.457 56.5726C459.457 44.8087 456.148 36.3533 449.531 31.2066C442.914 26.0599 432.069 23.4866 416.996 23.4866H377.569V91.8643ZM605.817 199.394C590.928 199.394 577.786 196.821 566.39 191.674C554.993 186.527 545.435 179.358 537.715 170.168C529.995 160.977 524.113 150.408 520.069 138.46C516.209 126.513 514.279 113.738 514.279 100.136C514.279 86.5338 516.209 73.7589 520.069 61.8112C524.113 49.8635 529.995 39.2943 537.715 30.1038C545.435 20.9132 554.993 13.7446 566.39 8.59785C577.786 3.45114 590.928 0.877782 605.817 0.877782C620.706 0.877782 633.848 3.45114 645.245 8.59785C656.641 13.7446 666.199 20.9132 673.919 30.1038C681.639 39.2943 687.429 49.8635 691.289 61.8112C695.333 73.7589 697.355 86.5338 697.355 100.136C697.355 113.738 695.333 126.513 691.289 138.46C687.429 150.408 681.639 160.977 673.919 170.168C666.199 179.358 656.641 186.527 645.245 191.674C633.848 196.821 620.706 199.394 605.817 199.394ZM605.817 178.715C619.971 178.715 631.826 175.407 641.385 168.789C651.127 161.988 658.387 152.706 663.166 140.942C668.129 128.994 670.611 115.392 670.611 100.136C670.611 84.6957 668.129 71.0937 663.166 59.3297C658.387 47.5658 651.127 38.3753 641.385 31.7581C631.826 24.957 619.971 21.5565 605.817 21.5565C591.664 21.5565 579.716 24.957 569.974 31.7581C560.416 38.3753 553.155 47.5658 548.192 59.3297C543.413 71.0937 541.024 84.6957 541.024 100.136C541.024 115.392 543.413 128.994 548.192 140.942C553.155 152.706 560.416 161.988 569.974 168.789C579.716 175.407 591.664 178.715 605.817 178.715Z" fill="url(#paint0_linear_14727_10572)" fill-opacity="0.19"/>
<defs>
<linearGradient id="paint0_linear_14727_10572" x1="354.179" y1="-79.3633" x2="354" y2="211.137" gradientUnits="userSpaceOnUse">
<stop offset="0.3" stop-color="white"/>
<stop offset="1" stop-color="#040710"/>
</linearGradient>
</defs>
</svg>
